<svg width="455" height="130" viewBox="0 0 455 130" fill="none" xmlns="http://www.w3.org/2000/svg">
<g filter="url(#filter0_d_423_5975)">
<rect x="15" y="15" width="425" height="100.513" rx="14.0577" fill="white"/>
<path d="M51.3241 51.3379V43.4656H55.1702C56.1599 43.4656 56.9022 43.653 57.397 44.0279C57.8993 44.4028 58.1505 44.8976 58.1505 45.5124C58.1505 45.9247 58.0493 46.2846 57.8468 46.592C57.6444 46.8919 57.367 47.1243 57.0146 47.2893C56.6622 47.4542 56.2574 47.5367 55.8 47.5367L56.0137 47.0756C56.5085 47.0756 56.9471 47.1581 57.3295 47.323C57.7119 47.4805 58.008 47.7166 58.218 48.0315C58.4354 48.3464 58.5441 48.7325 58.5441 49.1899C58.5441 49.8646 58.2779 50.3932 57.7456 50.7756C57.2133 51.1505 56.4298 51.3379 55.3952 51.3379H51.3241ZM53.1347 49.9659H55.2602C55.7326 49.9659 56.0887 49.8909 56.3286 49.7409C56.576 49.5835 56.6997 49.3361 56.6997 48.9987C56.6997 48.6688 56.576 48.4251 56.3286 48.2677C56.0887 48.1027 55.7326 48.0203 55.2602 48.0203H52.9997V46.6932H54.9453C55.3877 46.6932 55.7251 46.6183 55.9575 46.4683C56.1974 46.3109 56.3174 46.0747 56.3174 45.7598C56.3174 45.4524 56.1974 45.2237 55.9575 45.0738C55.7251 44.9163 55.3877 44.8376 54.9453 44.8376H53.1347V49.9659ZM59.7997 51.3379V45.2875H61.5541V51.3379H59.7997ZM60.6769 44.444C60.3545 44.444 60.0921 44.3503 59.8897 44.1628C59.6872 43.9754 59.586 43.743 59.586 43.4656C59.586 43.1882 59.6872 42.9558 59.8897 42.7683C60.0921 42.5809 60.3545 42.4872 60.6769 42.4872C60.9993 42.4872 61.2617 42.5771 61.4641 42.7571C61.6666 42.9295 61.7678 43.1544 61.7678 43.4318C61.7678 43.7242 61.6666 43.9679 61.4641 44.1628C61.2692 44.3503 61.0068 44.444 60.6769 44.444ZM63.1823 51.3379V42.9932H64.9367V51.3379H63.1823ZM66.565 51.3379V42.9932H68.3194V51.3379H66.565ZM77.0237 51.4728C76.4164 51.4728 75.8504 51.3754 75.3256 51.1804C74.8082 50.978 74.3584 50.6931 73.976 50.3257C73.5936 49.9584 73.2938 49.5273 73.0763 49.0324C72.8664 48.5376 72.7614 47.994 72.7614 47.4017C72.7614 46.8094 72.8664 46.2659 73.0763 45.771C73.2938 45.2762 73.5936 44.8451 73.976 44.4777C74.3659 44.1104 74.8195 43.8292 75.3368 43.6343C75.8541 43.4318 76.4202 43.3306 77.035 43.3306C77.7172 43.3306 78.332 43.4506 78.8793 43.6905C79.4342 43.9229 79.899 44.2678 80.2739 44.7251L79.1043 45.8048C78.8344 45.4974 78.5345 45.2687 78.2046 45.1188C77.8747 44.9613 77.5148 44.8826 77.1249 44.8826C76.7576 44.8826 76.4202 44.9426 76.1128 45.0625C75.8054 45.1825 75.5392 45.3549 75.3143 45.5799C75.0894 45.8048 74.9132 46.0709 74.7857 46.3783C74.6658 46.6857 74.6058 47.0269 74.6058 47.4017C74.6058 47.7766 74.6658 48.1177 74.7857 48.4251C74.9132 48.7325 75.0894 48.9987 75.3143 49.2236C75.5392 49.4485 75.8054 49.621 76.1128 49.7409C76.4202 49.8609 76.7576 49.9209 77.1249 49.9209C77.5148 49.9209 77.8747 49.8459 78.2046 49.696C78.5345 49.5385 78.8344 49.3023 79.1043 48.9874L80.2739 50.0671C79.899 50.5244 79.4342 50.873 78.8793 51.113C78.332 51.3529 77.7135 51.4728 77.0237 51.4728ZM84.0508 51.4279C83.406 51.4279 82.8325 51.2929 82.3302 51.023C81.8353 50.7531 81.4417 50.3857 81.1493 49.9209C80.8644 49.4485 80.722 48.9125 80.722 48.3127C80.722 47.7054 80.8644 47.1693 81.1493 46.7045C81.4417 46.2321 81.8353 45.8648 82.3302 45.6023C82.8325 45.3324 83.406 45.1975 84.0508 45.1975C84.6881 45.1975 85.2579 45.3324 85.7602 45.6023C86.2626 45.8648 86.6562 46.2284 86.9411 46.6932C87.226 47.1581 87.3684 47.6979 87.3684 48.3127C87.3684 48.9125 87.226 49.4485 86.9411 49.9209C86.6562 50.3857 86.2626 50.7531 85.7602 51.023C85.2579 51.2929 84.6881 51.4279 84.0508 51.4279ZM84.0508 49.9884C84.3432 49.9884 84.6056 49.9209 84.8381 49.7859C85.0705 49.651 85.2542 49.4598 85.3891 49.2124C85.5241 48.9575 85.5915 48.6576 85.5915 48.3127C85.5915 47.9603 85.5241 47.6604 85.3891 47.413C85.2542 47.1656 85.0705 46.9744 84.8381 46.8394C84.6056 46.7045 84.3432 46.637 84.0508 46.637C83.7584 46.637 83.496 46.7045 83.2636 46.8394C83.0312 46.9744 82.8437 47.1656 82.7013 47.413C82.5663 47.6604 82.4989 47.9603 82.4989 48.3127C82.4989 48.6576 82.5663 48.9575 82.7013 49.2124C82.8437 49.4598 83.0312 49.651 83.2636 49.7859C83.496 49.9209 83.7584 49.9884 84.0508 49.9884ZM96.2897 45.1975C96.7696 45.1975 97.1932 45.295 97.5605 45.4899C97.9354 45.6773 98.2278 45.9697 98.4377 46.3671C98.6552 46.757 98.7639 47.2593 98.7639 47.8741V51.3379H97.0095V48.144C97.0095 47.6566 96.9083 47.2968 96.7058 47.0643C96.5034 46.8319 96.2185 46.7157 95.8511 46.7157C95.5962 46.7157 95.3675 46.7757 95.1651 46.8957C94.9627 47.0081 94.8052 47.1806 94.6928 47.413C94.5803 47.6454 94.5241 47.9416 94.5241 48.3014V51.3379H92.7697V48.144C92.7697 47.6566 92.6685 47.2968 92.466 47.0643C92.2711 46.8319 91.9899 46.7157 91.6226 46.7157C91.3676 46.7157 91.139 46.7757 90.9365 46.8957C90.7341 47.0081 90.5767 47.1806 90.4642 47.413C90.3517 47.6454 90.2955 47.9416 90.2955 48.3014V51.3379H88.5411V45.2875H90.2168V46.9406L89.9019 46.4571C90.1118 46.0447 90.408 45.7336 90.7903 45.5236C91.1802 45.3062 91.6226 45.1975 92.1174 45.1975C92.6722 45.1975 93.1558 45.3399 93.5681 45.6248C93.988 45.9022 94.2654 46.3296 94.4004 46.9069L93.7818 46.7382C93.9843 46.2659 94.3066 45.891 94.749 45.6136C95.1988 45.3362 95.7124 45.1975 96.2897 45.1975ZM103.913 51.4279C103.403 51.4279 102.957 51.3154 102.574 51.0905C102.192 50.8656 101.892 50.5244 101.675 50.0671C101.465 49.6022 101.36 49.0174 101.36 48.3127C101.36 47.6004 101.461 47.0156 101.663 46.5583C101.866 46.1009 102.158 45.7598 102.541 45.5349C102.923 45.3099 103.38 45.1975 103.913 45.1975C104.482 45.1975 104.992 45.3287 105.442 45.5911C105.9 45.846 106.259 46.2059 106.522 46.6707C106.792 47.1356 106.927 47.6829 106.927 48.3127C106.927 48.95 106.792 49.501 106.522 49.9659C106.259 50.4307 105.9 50.7906 105.442 51.0455C104.992 51.3004 104.482 51.4279 103.913 51.4279ZM100.336 53.5196V45.2875H102.012V46.5245L101.978 48.3239L102.091 50.1121V53.5196H100.336ZM103.609 49.9884C103.901 49.9884 104.16 49.9209 104.385 49.7859C104.617 49.651 104.801 49.4598 104.936 49.2124C105.079 48.9575 105.15 48.6576 105.15 48.3127C105.15 47.9603 105.079 47.6604 104.936 47.413C104.801 47.1656 104.617 46.9744 104.385 46.8394C104.16 46.7045 103.901 46.637 103.609 46.637C103.317 46.637 103.054 46.7045 102.822 46.8394C102.589 46.9744 102.406 47.1656 102.271 47.413C102.136 47.6604 102.068 47.9603 102.068 48.3127C102.068 48.6576 102.136 48.9575 102.271 49.2124C102.406 49.4598 102.589 49.651 102.822 49.7859C103.054 49.9209 103.317 49.9884 103.609 49.9884ZM111.713 51.3379V50.157L111.601 49.8984V47.7841C111.601 47.4092 111.485 47.1168 111.252 46.9069C111.027 46.697 110.679 46.592 110.206 46.592C109.884 46.592 109.565 46.6445 109.251 46.7495C108.943 46.8469 108.681 46.9819 108.463 47.1543L107.834 45.9285C108.163 45.6961 108.561 45.5161 109.026 45.3887C109.49 45.2612 109.963 45.1975 110.443 45.1975C111.365 45.1975 112.081 45.4149 112.591 45.8498C113.1 46.2846 113.355 46.9631 113.355 47.8853V51.3379H111.713ZM109.869 51.4279C109.397 51.4279 108.992 51.3491 108.655 51.1917C108.317 51.0267 108.058 50.8056 107.879 50.5282C107.699 50.2508 107.609 49.9396 107.609 49.5947C107.609 49.2349 107.695 48.92 107.867 48.6501C108.047 48.3802 108.328 48.1702 108.711 48.0203C109.093 47.8628 109.592 47.7841 110.206 47.7841H111.815V48.8075H110.398C109.985 48.8075 109.7 48.875 109.543 49.0099C109.393 49.1449 109.318 49.3136 109.318 49.516C109.318 49.7409 109.404 49.9209 109.577 50.0558C109.757 50.1833 110 50.247 110.308 50.247C110.6 50.247 110.863 50.1795 111.095 50.0446C111.327 49.9021 111.496 49.696 111.601 49.426L111.871 50.2358C111.743 50.6256 111.511 50.9218 111.174 51.1242C110.836 51.3266 110.401 51.4279 109.869 51.4279ZM114.943 51.3379V45.2875H116.619V46.9969L116.383 46.502C116.563 46.0747 116.851 45.7523 117.249 45.5349C117.646 45.3099 118.13 45.1975 118.699 45.1975V46.8169C118.624 46.8094 118.557 46.8057 118.497 46.8057C118.437 46.7982 118.373 46.7944 118.306 46.7944C117.826 46.7944 117.436 46.9331 117.136 47.2105C116.844 47.4805 116.698 47.9041 116.698 48.4814V51.3379H114.943ZM119.754 51.3379V45.2875H121.508V51.3379H119.754ZM120.631 44.444C120.308 44.444 120.046 44.3503 119.844 44.1628C119.641 43.9754 119.54 43.743 119.54 43.4656C119.54 43.1882 119.641 42.9558 119.844 42.7683C120.046 42.5809 120.308 42.4872 120.631 42.4872C120.953 42.4872 121.216 42.5771 121.418 42.7571C121.62 42.9295 121.722 43.1544 121.722 43.4318C121.722 43.7242 121.62 43.9679 121.418 44.1628C121.223 44.3503 120.961 44.444 120.631 44.444ZM125.172 51.4279C124.654 51.4279 124.156 51.3679 123.676 51.2479C123.204 51.1205 122.829 50.963 122.551 50.7756L123.136 49.516C123.414 49.6885 123.74 49.8309 124.115 49.9434C124.497 50.0483 124.872 50.1008 125.239 50.1008C125.644 50.1008 125.929 50.0521 126.094 49.9546C126.266 49.8571 126.353 49.7222 126.353 49.5498C126.353 49.4073 126.285 49.3023 126.15 49.2349C126.023 49.1599 125.85 49.1037 125.633 49.0662C125.415 49.0287 125.176 48.9912 124.913 48.9537C124.658 48.9162 124.4 48.8675 124.137 48.8075C123.875 48.74 123.635 48.6426 123.417 48.5151C123.2 48.3876 123.024 48.2152 122.889 47.9978C122.761 47.7804 122.698 47.4992 122.698 47.1543C122.698 46.7719 122.806 46.4346 123.024 46.1422C123.249 45.8498 123.571 45.6211 123.991 45.4561C124.411 45.2837 124.913 45.1975 125.498 45.1975C125.91 45.1975 126.33 45.2425 126.757 45.3324C127.185 45.4224 127.541 45.5536 127.826 45.7261L127.241 46.9744C126.949 46.8019 126.653 46.6857 126.353 46.6257C126.06 46.5583 125.775 46.5245 125.498 46.5245C125.108 46.5245 124.823 46.577 124.643 46.682C124.463 46.7869 124.373 46.9219 124.373 47.0868C124.373 47.2368 124.437 47.3493 124.564 47.4242C124.699 47.4992 124.876 47.5592 125.093 47.6042C125.31 47.6492 125.547 47.6904 125.802 47.7279C126.064 47.7579 126.326 47.8066 126.589 47.8741C126.851 47.9416 127.087 48.039 127.297 48.1665C127.515 48.2864 127.691 48.4551 127.826 48.6726C127.961 48.8825 128.028 49.1599 128.028 49.5048C128.028 49.8796 127.916 50.2133 127.691 50.5057C127.466 50.7906 127.14 51.0155 126.713 51.1804C126.293 51.3454 125.779 51.4279 125.172 51.4279ZM131.99 51.4279C131.345 51.4279 130.771 51.2929 130.269 51.023C129.774 50.7531 129.381 50.3857 129.088 49.9209C128.803 49.4485 128.661 48.9125 128.661 48.3127C128.661 47.7054 128.803 47.1693 129.088 46.7045C129.381 46.2321 129.774 45.8648 130.269 45.6023C130.771 45.3324 131.345 45.1975 131.99 45.1975C132.627 45.1975 133.197 45.3324 133.699 45.6023C134.202 45.8648 134.595 46.2284 134.88 46.6932C135.165 47.1581 135.307 47.6979 135.307 48.3127C135.307 48.9125 135.165 49.4485 134.88 49.9209C134.595 50.3857 134.202 50.7531 133.699 51.023C133.197 51.2929 132.627 51.4279 131.99 51.4279ZM131.99 49.9884C132.282 49.9884 132.545 49.9209 132.777 49.7859C133.009 49.651 133.193 49.4598 133.328 49.2124C133.463 48.9575 133.53 48.6576 133.53 48.3127C133.53 47.9603 133.463 47.6604 133.328 47.413C133.193 47.1656 133.009 46.9744 132.777 46.8394C132.545 46.7045 132.282 46.637 131.99 46.637C131.697 46.637 131.435 46.7045 131.203 46.8394C130.97 46.9744 130.783 47.1656 130.64 47.413C130.505 47.6604 130.438 47.9603 130.438 48.3127C130.438 48.6576 130.505 48.9575 130.64 49.2124C130.783 49.4598 130.97 49.651 131.203 49.7859C131.435 49.9209 131.697 49.9884 131.99 49.9884ZM140.158 45.1975C140.637 45.1975 141.065 45.295 141.44 45.4899C141.822 45.6773 142.122 45.9697 142.339 46.3671C142.557 46.757 142.665 47.2593 142.665 47.8741V51.3379H140.911V48.144C140.911 47.6566 140.802 47.2968 140.585 47.0643C140.375 46.8319 140.075 46.7157 139.685 46.7157C139.408 46.7157 139.157 46.7757 138.932 46.8957C138.714 47.0081 138.542 47.1843 138.414 47.4242C138.294 47.6641 138.234 47.9715 138.234 48.3464V51.3379H136.48V45.2875H138.156V46.9631L137.841 46.4571C138.058 46.0522 138.369 45.7411 138.774 45.5236C139.179 45.3062 139.64 45.1975 140.158 45.1975Z" fill="black"/>
<path d="M94.103 73.6897H101.209V76.3466H94.103V73.6897ZM94.3561 79.7627H102.39V82.5039H90.9611V67.7433H102.116V70.4846H94.3561V79.7627ZM108.631 82.6726C107.661 82.6726 106.726 82.5601 105.826 82.3352C104.941 82.0962 104.238 81.801 103.718 81.4496L104.814 79.0879C105.334 79.4112 105.946 79.6783 106.649 79.8892C107.366 80.086 108.069 80.1844 108.758 80.1844C109.517 80.1844 110.051 80.093 110.36 79.9103C110.683 79.7275 110.845 79.4745 110.845 79.1511C110.845 78.884 110.719 78.6872 110.466 78.5607C110.227 78.4201 109.903 78.3147 109.496 78.2444C109.088 78.1741 108.638 78.1038 108.146 78.0336C107.668 77.9633 107.183 77.8719 106.691 77.7594C106.199 77.6329 105.749 77.4502 105.341 77.2112C104.934 76.9722 104.603 76.6489 104.35 76.2412C104.111 75.8335 103.992 75.3064 103.992 74.6597C103.992 73.9428 104.196 73.3102 104.603 72.7619C105.025 72.2137 105.63 71.7849 106.417 71.4756C107.204 71.1523 108.146 70.9907 109.243 70.9907C110.016 70.9907 110.803 71.075 111.604 71.2437C112.405 71.4124 113.073 71.6584 113.607 71.9817L112.511 74.3223C111.963 73.999 111.407 73.7811 110.845 73.6686C110.297 73.5421 109.763 73.4789 109.243 73.4789C108.512 73.4789 107.977 73.5773 107.64 73.7741C107.303 73.9709 107.134 74.2239 107.134 74.5332C107.134 74.8143 107.253 75.0252 107.492 75.1658C107.745 75.3064 108.076 75.4188 108.483 75.5032C108.891 75.5875 109.334 75.6648 109.812 75.7351C110.304 75.7914 110.796 75.8827 111.288 76.0092C111.78 76.1358 112.223 76.3185 112.616 76.5575C113.024 76.7824 113.354 77.0987 113.607 77.5064C113.86 77.9 113.987 78.4201 113.987 79.0668C113.987 79.7697 113.776 80.3953 113.354 80.9435C112.933 81.4777 112.321 81.8994 111.52 82.2087C110.733 82.518 109.77 82.6726 108.631 82.6726ZM120.656 82.6726C119.32 82.6726 118.28 82.3352 117.535 81.6604C116.79 80.9716 116.417 79.9524 116.417 78.6029V68.65H119.707V78.5607C119.707 79.0387 119.833 79.4112 120.086 79.6783C120.339 79.9313 120.684 80.0579 121.12 80.0579C121.64 80.0579 122.082 79.9173 122.448 79.6361L123.334 81.9557C122.996 82.1946 122.589 82.3774 122.111 82.5039C121.647 82.6164 121.162 82.6726 120.656 82.6726ZM114.667 73.9428V71.4124H122.532V73.9428H114.667ZM125.18 82.5039V71.1593H128.47V82.5039H125.18ZM126.825 69.5779C126.22 69.5779 125.728 69.4021 125.349 69.0507C124.969 68.6992 124.779 68.2635 124.779 67.7433C124.779 67.2232 124.969 66.7874 125.349 66.436C125.728 66.0845 126.22 65.9088 126.825 65.9088C127.429 65.9088 127.921 66.0775 128.301 66.4149C128.681 66.7382 128.87 67.1599 128.87 67.6801C128.87 68.2283 128.681 68.6852 128.301 69.0507C127.935 69.4021 127.443 69.5779 126.825 69.5779ZM146.051 70.9907C146.951 70.9907 147.745 71.1734 148.434 71.5389C149.137 71.8903 149.685 72.4386 150.079 73.1837C150.486 73.9147 150.69 74.8565 150.69 76.0092V82.5039H147.401V76.5153C147.401 75.6016 147.211 74.9268 146.831 74.491C146.452 74.0552 145.918 73.8373 145.229 73.8373C144.751 73.8373 144.322 73.9498 143.943 74.1747C143.563 74.3856 143.268 74.7089 143.057 75.1447C142.846 75.5805 142.741 76.1358 142.741 76.8105V82.5039H139.451V76.5153C139.451 75.6016 139.261 74.9268 138.882 74.491C138.516 74.0552 137.989 73.8373 137.3 73.8373C136.822 73.8373 136.394 73.9498 136.014 74.1747C135.634 74.3856 135.339 74.7089 135.128 75.1447C134.918 75.5805 134.812 76.1358 134.812 76.8105V82.5039H131.523V71.1593H134.664V74.2591L134.074 73.3523C134.468 72.5792 135.023 71.9958 135.74 71.6022C136.471 71.1945 137.3 70.9907 138.228 70.9907C139.268 70.9907 140.175 71.2577 140.948 71.7919C141.736 72.3121 142.256 73.1134 142.509 74.1958L141.349 73.8795C141.728 72.9939 142.333 72.291 143.162 71.7709C144.006 71.2507 144.969 70.9907 146.051 70.9907ZM160.597 82.5039V80.2898L160.386 79.8048V75.8406C160.386 75.1377 160.169 74.5894 159.733 74.1958C159.311 73.8022 158.657 73.6054 157.772 73.6054C157.167 73.6054 156.57 73.7038 155.979 73.9006C155.403 74.0833 154.911 74.3364 154.503 74.6597L153.322 72.3613C153.941 71.9255 154.686 71.5881 155.558 71.3491C156.429 71.1101 157.315 70.9907 158.215 70.9907C159.944 70.9907 161.286 71.3983 162.242 72.2137C163.198 73.029 163.676 74.3012 163.676 76.0303V82.5039H160.597ZM157.139 82.6726C156.253 82.6726 155.494 82.525 154.862 82.2298C154.229 81.9205 153.744 81.5058 153.407 80.9857C153.069 80.4655 152.901 79.8821 152.901 79.2355C152.901 78.5607 153.062 77.9703 153.386 77.4642C153.723 76.9581 154.25 76.5645 154.967 76.2834C155.684 75.9882 156.619 75.8406 157.772 75.8406H160.787V77.7594H158.13C157.357 77.7594 156.823 77.886 156.528 78.139C156.246 78.392 156.106 78.7083 156.106 79.0879C156.106 79.5096 156.268 79.847 156.591 80.1C156.928 80.339 157.385 80.4585 157.961 80.4585C158.51 80.4585 159.002 80.332 159.438 80.079C159.873 79.8119 160.19 79.4253 160.386 78.9192L160.893 80.4374C160.654 81.1684 160.218 81.7237 159.585 82.1033C158.953 82.4828 158.137 82.6726 157.139 82.6726ZM171.292 82.6726C169.957 82.6726 168.916 82.3352 168.171 81.6604C167.426 80.9716 167.054 79.9524 167.054 78.6029V68.65H170.343V78.5607C170.343 79.0387 170.47 79.4112 170.723 79.6783C170.976 79.9313 171.32 80.0579 171.756 80.0579C172.276 80.0579 172.719 79.9173 173.085 79.6361L173.97 81.9557C173.633 82.1946 173.225 82.3774 172.747 82.5039C172.283 82.6164 171.798 82.6726 171.292 82.6726ZM165.304 73.9428V71.4124H173.169V73.9428H165.304ZM181.097 82.6726C179.803 82.6726 178.665 82.4196 177.681 81.9135C176.711 81.4074 175.959 80.7186 175.424 79.847C174.89 78.9614 174.623 77.9562 174.623 76.8316C174.623 75.693 174.883 74.6878 175.403 73.8162C175.938 72.9306 176.662 72.2418 177.575 71.7498C178.489 71.2437 179.522 70.9907 180.675 70.9907C181.786 70.9907 182.784 71.2296 183.669 71.7076C184.569 72.1715 185.279 72.8463 185.799 73.7319C186.319 74.6035 186.579 75.6508 186.579 76.8738C186.579 77.0003 186.572 77.1479 186.558 77.3166C186.544 77.4712 186.53 77.6189 186.516 77.7594H177.301V75.8406H184.787L183.522 76.4099C183.522 75.8195 183.402 75.3064 183.163 74.8706C182.924 74.4348 182.594 74.0974 182.172 73.8584C181.75 73.6054 181.258 73.4789 180.696 73.4789C180.134 73.4789 179.635 73.6054 179.199 73.8584C178.777 74.0974 178.447 74.4418 178.208 74.8917C177.969 75.3275 177.849 75.8476 177.849 76.4521V76.9581C177.849 77.5767 177.983 78.1249 178.25 78.6029C178.531 79.0668 178.918 79.4253 179.41 79.6783C179.916 79.9173 180.506 80.0368 181.181 80.0368C181.786 80.0368 182.313 79.9454 182.763 79.7627C183.226 79.5799 183.648 79.3058 184.028 78.9403L185.778 80.8381C185.258 81.4285 184.604 81.8854 183.817 82.2087C183.03 82.518 182.123 82.6726 181.097 82.6726ZM193.64 82.6726C192.572 82.6726 191.609 82.4336 190.751 81.9557C189.894 81.4636 189.212 80.7818 188.706 79.9103C188.214 79.0387 187.968 78.0125 187.968 76.8316C187.968 75.6367 188.214 74.6035 188.706 73.7319C189.212 72.8603 189.894 72.1856 190.751 71.7076C191.609 71.2296 192.572 70.9907 193.64 70.9907C194.596 70.9907 195.433 71.2015 196.15 71.6232C196.867 72.045 197.422 72.6846 197.815 73.5421C198.209 74.3996 198.406 75.4961 198.406 76.8316C198.406 78.153 198.216 79.2495 197.836 80.1211C197.457 80.9786 196.909 81.6183 196.192 82.04C195.489 82.4617 194.638 82.6726 193.64 82.6726ZM194.21 79.9735C194.744 79.9735 195.229 79.847 195.665 79.594C196.1 79.3409 196.445 78.9825 196.698 78.5185C196.965 78.0406 197.098 77.4783 197.098 76.8316C197.098 76.1709 196.965 75.6086 196.698 75.1447C196.445 74.6808 196.1 74.3223 195.665 74.0693C195.229 73.8162 194.744 73.6897 194.21 73.6897C193.661 73.6897 193.169 73.8162 192.734 74.0693C192.298 74.3223 191.946 74.6808 191.679 75.1447C191.426 75.6086 191.3 76.1709 191.3 76.8316C191.3 77.4783 191.426 78.0406 191.679 78.5185C191.946 78.9825 192.298 79.3409 192.734 79.594C193.169 79.847 193.661 79.9735 194.21 79.9735ZM197.183 82.5039V80.1844L197.246 76.8105L197.035 73.4578V66.8577H200.325V82.5039H197.183ZM214.423 82.7569C213.242 82.7569 212.11 82.6023 211.028 82.293C209.945 81.9697 209.074 81.555 208.413 81.0489L209.573 78.4764C210.206 78.9262 210.951 79.2988 211.808 79.594C212.68 79.8751 213.558 80.0157 214.444 80.0157C215.119 80.0157 215.66 79.9524 216.068 79.8259C216.489 79.6853 216.799 79.4956 216.995 79.2566C217.192 79.0176 217.291 78.7435 217.291 78.4342C217.291 78.0406 217.136 77.7313 216.827 77.5064C216.517 77.2674 216.11 77.0776 215.604 76.9371C215.098 76.7824 214.535 76.6418 213.917 76.5153C213.312 76.3747 212.701 76.2061 212.082 76.0092C211.478 75.8124 210.923 75.5594 210.416 75.2501C209.91 74.9409 209.496 74.5332 209.172 74.0271C208.863 73.521 208.708 72.8744 208.708 72.0872C208.708 71.2437 208.933 70.4775 209.383 69.7887C209.847 69.0858 210.536 68.5306 211.45 68.1229C212.377 67.7011 213.537 67.4903 214.929 67.4903C215.857 67.4903 216.771 67.6027 217.67 67.8277C218.57 68.0385 219.364 68.3619 220.053 68.7976L218.999 71.3913C218.31 70.9977 217.621 70.7095 216.932 70.5267C216.243 70.3299 215.569 70.2315 214.908 70.2315C214.247 70.2315 213.706 70.3089 213.284 70.4635C212.862 70.6181 212.56 70.822 212.377 71.075C212.195 71.314 212.103 71.5951 212.103 71.9185C212.103 72.298 212.258 72.6073 212.567 72.8463C212.877 73.0712 213.284 73.2539 213.79 73.3945C214.296 73.5351 214.852 73.6757 215.456 73.8162C216.075 73.9568 216.686 74.1185 217.291 74.3012C217.909 74.484 218.471 74.73 218.978 75.0393C219.484 75.3485 219.891 75.7562 220.201 76.2623C220.524 76.7684 220.686 77.408 220.686 78.1812C220.686 79.0106 220.454 79.7697 219.99 80.4585C219.526 81.1473 218.83 81.7026 217.902 82.1243C216.988 82.5461 215.829 82.7569 214.423 82.7569ZM229.746 82.5039V80.2898L229.536 79.8048V75.8406C229.536 75.1377 229.318 74.5894 228.882 74.1958C228.46 73.8022 227.806 73.6054 226.921 73.6054C226.316 73.6054 225.719 73.7038 225.128 73.9006C224.552 74.0833 224.06 74.3364 223.652 74.6597L222.472 72.3613C223.09 71.9255 223.835 71.5881 224.707 71.3491C225.578 71.1101 226.464 70.9907 227.364 70.9907C229.093 70.9907 230.435 71.3983 231.391 72.2137C232.347 73.029 232.825 74.3012 232.825 76.0303V82.5039H229.746ZM226.288 82.6726C225.403 82.6726 224.643 82.525 224.011 82.2298C223.378 81.9205 222.893 81.5058 222.556 80.9857C222.218 80.4655 222.05 79.8821 222.05 79.2355C222.05 78.5607 222.211 77.9703 222.535 77.4642C222.872 76.9581 223.399 76.5645 224.116 76.2834C224.833 75.9882 225.768 75.8406 226.921 75.8406H229.936V77.7594H227.279C226.506 77.7594 225.972 77.886 225.677 78.139C225.396 78.392 225.255 78.7083 225.255 79.0879C225.255 79.5096 225.417 79.847 225.74 80.1C226.077 80.339 226.534 80.4585 227.111 80.4585C227.659 80.4585 228.151 80.332 228.587 80.079C229.022 79.8119 229.339 79.4253 229.536 78.9192L230.042 80.4374C229.803 81.1684 229.367 81.7237 228.734 82.1033C228.102 82.4828 227.286 82.6726 226.288 82.6726ZM238.675 82.5039L233.909 71.1593H237.304L241.269 80.9224H239.582L243.693 71.1593H246.856L242.07 82.5039H238.675ZM248.199 82.5039V71.1593H251.488V82.5039H248.199ZM249.843 69.5779C249.239 69.5779 248.747 69.4021 248.367 69.0507C247.988 68.6992 247.798 68.2635 247.798 67.7433C247.798 67.2232 247.988 66.7874 248.367 66.436C248.747 66.0845 249.239 65.9088 249.843 65.9088C250.448 65.9088 250.94 66.0775 251.32 66.4149C251.699 66.7382 251.889 67.1599 251.889 67.6801C251.889 68.2283 251.699 68.6852 251.32 69.0507C250.954 69.4021 250.462 69.5779 249.843 69.5779ZM261.436 70.9907C262.336 70.9907 263.137 71.1734 263.84 71.5389C264.557 71.8903 265.12 72.4386 265.527 73.1837C265.935 73.9147 266.139 74.8565 266.139 76.0092V82.5039H262.849V76.5153C262.849 75.6016 262.645 74.9268 262.238 74.491C261.844 74.0552 261.282 73.8373 260.551 73.8373C260.031 73.8373 259.56 73.9498 259.138 74.1747C258.73 74.3856 258.407 74.7159 258.168 75.1658C257.943 75.6156 257.831 76.192 257.831 76.8949V82.5039H254.541V71.1593H257.683V74.3012L257.093 73.3523C257.5 72.5932 258.084 72.0098 258.843 71.6022C259.602 71.1945 260.467 70.9907 261.436 70.9907ZM274.538 86.7634C273.469 86.7634 272.436 86.6298 271.438 86.3627C270.454 86.1097 269.632 85.7231 268.971 85.203L270.278 82.8413C270.756 83.2349 271.361 83.5442 272.092 83.7691C272.837 84.0081 273.568 84.1276 274.285 84.1276C275.452 84.1276 276.295 83.8675 276.815 83.3474C277.349 82.8272 277.616 82.0541 277.616 81.0278V79.3198L277.827 76.4732L277.785 73.6054V71.1593H280.906V80.6061C280.906 82.7148 280.358 84.2681 279.261 85.2662C278.165 86.2643 276.59 86.7634 274.538 86.7634ZM274.032 81.9557C272.977 81.9557 272.021 81.7307 271.164 81.2809C270.321 80.817 269.639 80.1774 269.119 79.362C268.613 78.5326 268.359 77.5697 268.359 76.4732C268.359 75.3626 268.613 74.3996 269.119 73.5843C269.639 72.7549 270.321 72.1153 271.164 71.6654C272.021 71.2156 272.977 70.9907 274.032 70.9907C274.988 70.9907 275.831 71.1875 276.562 71.5811C277.293 71.9606 277.862 72.5581 278.27 73.3734C278.678 74.1747 278.882 75.208 278.882 76.4732C278.882 77.7243 278.678 78.7575 278.27 79.5729C277.862 80.3742 277.293 80.9716 276.562 81.3652C275.831 81.7588 274.988 81.9557 274.032 81.9557ZM274.685 79.2566C275.262 79.2566 275.775 79.1441 276.225 78.9192C276.675 78.6802 277.026 78.3499 277.279 77.9281C277.532 77.5064 277.659 77.0214 277.659 76.4732C277.659 75.9108 277.532 75.4259 277.279 75.0182C277.026 74.5964 276.675 74.2731 276.225 74.0482C275.775 73.8092 275.262 73.6897 274.685 73.6897C274.109 73.6897 273.596 73.8092 273.146 74.0482C272.696 74.2731 272.338 74.5964 272.071 75.0182C271.818 75.4259 271.691 75.9108 271.691 76.4732C271.691 77.0214 271.818 77.5064 272.071 77.9281C272.338 78.3499 272.696 78.6802 273.146 78.9192C273.596 79.1441 274.109 79.2566 274.685 79.2566ZM287.784 82.6726C286.814 82.6726 285.879 82.5601 284.98 82.3352C284.094 82.0962 283.391 81.801 282.871 81.4496L283.968 79.0879C284.488 79.4112 285.099 79.6783 285.802 79.8892C286.519 80.086 287.222 80.1844 287.911 80.1844C288.67 80.1844 289.204 80.093 289.513 79.9103C289.837 79.7275 289.998 79.4745 289.998 79.1511C289.998 78.884 289.872 78.6872 289.619 78.5607C289.38 78.4201 289.057 78.3147 288.649 78.2444C288.241 78.1741 287.791 78.1038 287.299 78.0336C286.821 77.9633 286.336 77.8719 285.844 77.7594C285.352 77.6329 284.902 77.4502 284.495 77.2112C284.087 76.9722 283.757 76.6489 283.504 76.2412C283.265 75.8335 283.145 75.3064 283.145 74.6597C283.145 73.9428 283.349 73.3102 283.757 72.7619C284.178 72.2137 284.783 71.7849 285.57 71.4756C286.357 71.1523 287.299 70.9907 288.396 70.9907C289.169 70.9907 289.956 71.075 290.758 71.2437C291.559 71.4124 292.227 71.6584 292.761 71.9817L291.664 74.3223C291.116 73.999 290.561 73.7811 289.998 73.6686C289.45 73.5421 288.916 73.4789 288.396 73.4789C287.665 73.4789 287.131 73.5773 286.793 73.7741C286.456 73.9709 286.287 74.2239 286.287 74.5332C286.287 74.8143 286.407 75.0252 286.646 75.1658C286.899 75.3064 287.229 75.4188 287.637 75.5032C288.044 75.5875 288.487 75.6648 288.965 75.7351C289.457 75.7914 289.949 75.8827 290.441 76.0092C290.933 76.1358 291.376 76.3185 291.77 76.5575C292.177 76.7824 292.508 77.0987 292.761 77.5064C293.014 77.9 293.14 78.4201 293.14 79.0668C293.14 79.7697 292.929 80.3953 292.508 80.9435C292.086 81.4777 291.474 81.8994 290.673 82.2087C289.886 82.518 288.923 82.6726 287.784 82.6726Z" fill="black"/>
<path d="M302.723 82.5039V69.0085L304.199 70.4846H299.771V67.7433H306.139V82.5039H302.723ZM313.722 82.7569C312.696 82.7569 311.677 82.6234 310.664 82.3563C309.666 82.0751 308.809 81.6815 308.092 81.1755L309.441 78.5607C310.004 78.9684 310.65 79.2917 311.381 79.5307C312.126 79.7697 312.878 79.8892 313.638 79.8892C314.495 79.8892 315.17 79.7205 315.662 79.3831C316.154 79.0457 316.4 78.5748 316.4 77.9703C316.4 77.5907 316.301 77.2534 316.105 76.9581C315.908 76.6629 315.556 76.438 315.05 76.2834C314.558 76.1287 313.862 76.0514 312.963 76.0514H309.188L309.947 67.7433H318.951V70.4846H311.17L312.942 68.9242L312.415 74.8495L310.643 73.2891H313.764C315.226 73.2891 316.4 73.4929 317.286 73.9006C318.185 74.2942 318.839 74.8354 319.247 75.5243C319.654 76.2131 319.858 76.9933 319.858 77.8649C319.858 78.7364 319.64 79.5448 319.204 80.2898C318.769 81.0208 318.094 81.6183 317.18 82.0822C316.28 82.532 315.128 82.7569 313.722 82.7569ZM327.57 82.7569C326.361 82.7569 325.279 82.4617 324.323 81.8713C323.367 81.2668 322.615 80.3953 322.066 79.2566C321.518 78.1179 321.244 76.7402 321.244 75.1236C321.244 73.507 321.518 72.1293 322.066 70.9907C322.615 69.852 323.367 68.9874 324.323 68.397C325.279 67.7925 326.361 67.4903 327.57 67.4903C328.793 67.4903 329.875 67.7925 330.817 68.397C331.773 68.9874 332.525 69.852 333.074 70.9907C333.622 72.1293 333.896 73.507 333.896 75.1236C333.896 76.7402 333.622 78.1179 333.074 79.2566C332.525 80.3953 331.773 81.2668 330.817 81.8713C329.875 82.4617 328.793 82.7569 327.57 82.7569ZM327.57 79.8681C328.146 79.8681 328.645 79.7064 329.067 79.3831C329.503 79.0598 329.84 78.5467 330.079 77.8438C330.332 77.1409 330.459 76.2342 330.459 75.1236C330.459 74.0131 330.332 73.1063 330.079 72.4034C329.84 71.7006 329.503 71.1875 329.067 70.8641C328.645 70.5408 328.146 70.3791 327.57 70.3791C327.008 70.3791 326.509 70.5408 326.073 70.8641C325.651 71.1875 325.314 71.7006 325.061 72.4034C324.822 73.1063 324.702 74.0131 324.702 75.1236C324.702 76.2342 324.822 77.1409 325.061 77.8438C325.314 78.5467 325.651 79.0598 326.073 79.3831C326.509 79.7064 327.008 79.8681 327.57 79.8681ZM337.685 82.5039L347.765 67.7433H350.274L340.195 82.5039H337.685ZM338.972 75.714C338.255 75.714 337.622 75.5524 337.074 75.229C336.526 74.8917 336.09 74.4207 335.767 73.8162C335.457 73.1977 335.303 72.4737 335.303 71.6443C335.303 70.8149 335.457 70.098 335.767 69.4935C336.09 68.889 336.526 68.4181 337.074 68.0807C337.622 67.7433 338.255 67.5746 338.972 67.5746C339.689 67.5746 340.321 67.7433 340.87 68.0807C341.418 68.4181 341.847 68.889 342.156 69.4935C342.465 70.098 342.62 70.8149 342.62 71.6443C342.62 72.4737 342.465 73.1977 342.156 73.8162C341.847 74.4207 341.418 74.8917 340.87 75.229C340.321 75.5524 339.689 75.714 338.972 75.714ZM338.972 73.9849C339.436 73.9849 339.808 73.7952 340.089 73.4156C340.37 73.022 340.511 72.4316 340.511 71.6443C340.511 70.8571 340.37 70.2737 340.089 69.8941C339.808 69.5005 339.436 69.3037 338.972 69.3037C338.522 69.3037 338.149 69.5005 337.854 69.8941C337.573 70.2737 337.432 70.8571 337.432 71.6443C337.432 72.4175 337.573 73.0009 337.854 73.3945C338.149 73.7881 338.522 73.9849 338.972 73.9849ZM348.988 82.6726C348.285 82.6726 347.652 82.5109 347.09 82.1876C346.542 81.8502 346.113 81.3793 345.804 80.7748C345.495 80.1563 345.34 79.4323 345.34 78.6029C345.34 77.7735 345.495 77.0565 345.804 76.4521C346.113 75.8476 346.542 75.3767 347.09 75.0393C347.652 74.7019 348.285 74.5332 348.988 74.5332C349.719 74.5332 350.358 74.7019 350.907 75.0393C351.455 75.3767 351.884 75.8476 352.193 76.4521C352.502 77.0565 352.657 77.7735 352.657 78.6029C352.657 79.4323 352.502 80.1563 352.193 80.7748C351.884 81.3793 351.455 81.8502 350.907 82.1876C350.358 82.5109 349.719 82.6726 348.988 82.6726ZM348.988 80.9435C349.452 80.9435 349.824 80.7537 350.105 80.3742C350.387 79.9805 350.527 79.3901 350.527 78.6029C350.527 77.8297 350.387 77.2463 350.105 76.8527C349.824 76.4591 349.452 76.2623 348.988 76.2623C348.538 76.2623 348.165 76.4591 347.87 76.8527C347.589 77.2323 347.449 77.8157 347.449 78.6029C347.449 79.3901 347.589 79.9805 347.87 80.3742C348.165 80.7537 348.538 80.9435 348.988 80.9435ZM367.421 82.6726C366.465 82.6726 365.628 82.4617 364.911 82.04C364.195 81.6183 363.632 80.9786 363.225 80.1211C362.831 79.2495 362.634 78.153 362.634 76.8316C362.634 75.4961 362.824 74.3996 363.203 73.5421C363.583 72.6846 364.131 72.045 364.848 71.6232C365.565 71.2015 366.423 70.9907 367.421 70.9907C368.489 70.9907 369.445 71.2367 370.289 71.7287C371.146 72.2066 371.821 72.8814 372.313 73.753C372.819 74.6246 373.072 75.6508 373.072 76.8316C373.072 78.0265 372.819 79.0598 372.313 79.9313C371.821 80.8029 371.146 81.4777 370.289 81.9557C369.445 82.4336 368.489 82.6726 367.421 82.6726ZM360.715 86.5947V71.1593H363.857V73.4789L363.794 76.8527L364.005 80.2055V86.5947H360.715ZM366.851 79.9735C367.4 79.9735 367.885 79.847 368.306 79.594C368.742 79.3409 369.087 78.9825 369.34 78.5185C369.607 78.0406 369.74 77.4783 369.74 76.8316C369.74 76.1709 369.607 75.6086 369.34 75.1447C369.087 74.6808 368.742 74.3223 368.306 74.0693C367.885 73.8162 367.4 73.6897 366.851 73.6897C366.303 73.6897 365.811 73.8162 365.375 74.0693C364.94 74.3223 364.595 74.6808 364.342 75.1447C364.089 75.6086 363.963 76.1709 363.963 76.8316C363.963 77.4783 364.089 78.0406 364.342 78.5185C364.595 78.9825 364.94 79.3409 365.375 79.594C365.811 79.847 366.303 79.9735 366.851 79.9735ZM376.395 82.6726C375.832 82.6726 375.347 82.4828 374.94 82.1033C374.546 81.7096 374.349 81.2106 374.349 80.6061C374.349 80.0016 374.546 79.5166 374.94 79.1511C375.347 78.7716 375.832 78.5818 376.395 78.5818C376.971 78.5818 377.456 78.7716 377.85 79.1511C378.243 79.5166 378.44 80.0016 378.44 80.6061C378.44 81.2106 378.243 81.7096 377.85 82.1033C377.456 82.4828 376.971 82.6726 376.395 82.6726ZM387.834 82.5039V80.2898L387.623 79.8048V75.8406C387.623 75.1377 387.405 74.5894 386.969 74.1958C386.547 73.8022 385.894 73.6054 385.008 73.6054C384.404 73.6054 383.806 73.7038 383.216 73.9006C382.639 74.0833 382.147 74.3364 381.74 74.6597L380.559 72.3613C381.177 71.9255 381.922 71.5881 382.794 71.3491C383.666 71.1101 384.551 70.9907 385.451 70.9907C387.18 70.9907 388.523 71.3983 389.478 72.2137C390.434 73.029 390.912 74.3012 390.912 76.0303V82.5039H387.834ZM384.376 82.6726C383.49 82.6726 382.731 82.525 382.098 82.2298C381.466 81.9205 380.981 81.5058 380.643 80.9857C380.306 80.4655 380.137 79.8821 380.137 79.2355C380.137 78.5607 380.299 77.9703 380.622 77.4642C380.96 76.9581 381.487 76.5645 382.204 76.2834C382.921 75.9882 383.855 75.8406 385.008 75.8406H388.024V77.7594H385.367C384.593 77.7594 384.059 77.886 383.764 78.139C383.483 78.392 383.342 78.7083 383.342 79.0879C383.342 79.5096 383.504 79.847 383.827 80.1C384.165 80.339 384.622 80.4585 385.198 80.4585C385.746 80.4585 386.238 80.332 386.674 80.079C387.11 79.8119 387.426 79.4253 387.623 78.9192L388.129 80.4374C387.89 81.1684 387.454 81.7237 386.822 82.1033C386.189 82.4828 385.374 82.6726 384.376 82.6726ZM395.134 82.6726C394.571 82.6726 394.086 82.4828 393.679 82.1033C393.285 81.7096 393.088 81.2106 393.088 80.6061C393.088 80.0016 393.285 79.5166 393.679 79.1511C394.086 78.7716 394.571 78.5818 395.134 78.5818C395.71 78.5818 396.195 78.7716 396.589 79.1511C396.982 79.5166 397.179 80.0016 397.179 80.6061C397.179 81.2106 396.982 81.7096 396.589 82.1033C396.195 82.4828 395.71 82.6726 395.134 82.6726Z" fill="#006A0B"/>
<g clip-path="url(#clip0_423_5975)">
<path d="M76.6498 70.478L65.8031 78.5863L60.0944 74.3188L51.5312 80.7201" stroke="black" stroke-width="1.70701" stroke-linecap="round" stroke-linejoin="round"/>
<path d="M69.7969 70.478H76.6474V75.599" stroke="black" stroke-width="1.70701" stroke-linecap="round" stroke-linejoin="round"/>
</g>
</g>
<defs>
<filter id="filter0_d_423_5975" x="0.942301" y="0.942301" width="453.115" height="128.628" filterUnits="userSpaceOnUse" color-interpolation-filters="sRGB">
<feFlood flood-opacity="0" result="BackgroundImageFix"/>
<feColorMatrix in="SourceAlpha" type="matrix" values="0 0 0 0 0 0 0 0 0 0 0 0 0 0 0 0 0 0 127 0" result="hardAlpha"/>
<feOffset/>
<feGaussianBlur stdDeviation="7.02885"/>
<feComposite in2="hardAlpha" operator="out"/>
<feColorMatrix type="matrix" values="0 0 0 0 0 0 0 0 0 0 0 0 0 0 0 0 0 0 0.25 0"/>
<feBlend mode="normal" in2="BackgroundImageFix" result="effect1_dropShadow_423_5975"/>
<feBlend mode="normal" in="SourceGraphic" in2="effect1_dropShadow_423_5975" result="shape"/>
</filter>
<clipPath id="clip0_423_5975">
<rect width="27.402" height="20.4841" fill="white" transform="translate(50.3906 65.3574)"/>
</clipPath>
</defs>
</svg>
