<svg width="263" height="205" viewBox="0 0 263 205" fill="none" xmlns="http://www.w3.org/2000/svg">
<g filter="url(#filter0_d_423_5811)">
<rect x="11" y="11" width="240.5" height="183.238" rx="10.6449" fill="white"/>
<path opacity="0.3" d="M30.0859 162.927C31.5804 163.157 32.9991 163.545 34.5263 163.682C41.2386 164.285 48.2103 163.548 54.9058 163.143C62.5826 162.68 70.2925 162.136 77.3525 159.447C80.9486 158.078 84.6749 156.181 86.4551 153.187C87.7256 151.051 87.4829 148.12 90.2447 146.798C92.8075 145.571 95.6861 144.665 98.5282 143.968C100.558 143.471 102.732 143.365 104.729 142.804C106.735 142.241 108.459 140.717 109.606 139.343C110.863 137.837 112.196 136.542 114.085 135.511C117.398 133.701 121.274 132.673 125.178 132.087C129.684 131.41 134.365 131.813 138.92 131.622C141.568 131.512 144.203 131.285 146.828 130.991C149.135 130.732 151.535 130.488 153.726 129.814C156.446 128.978 158.741 127.237 161.091 125.901C164.673 123.866 168.476 122.092 171.977 119.964C173.119 119.27 174.19 118.58 175.438 118.02C175.762 117.874 176.181 117.693 176.326 117.407C176.78 116.512 177.98 115.725 178.692 114.955C179.363 114.228 179.876 113.261 180.736 112.664C181.515 112.122 182.353 112.027 183.3 112.342C184.58 112.768 185.795 113.338 187.044 113.816C190.643 115.193 194.352 116.356 198.007 117.63C201.599 118.881 205.58 119.936 207.178 123.035C207.729 124.102 208.226 125.185 208.863 126.223C209.934 127.97 212.401 163.926 213.648 165.589C215.393 167.917 215.716 136.082 216.503 138.736C217.282 141.361 217.423 144.097 217.835 146.767C218.188 149.047 218.806 151.29 219.29 153.553C219.53 154.675 219.795 155.751 220.499 156.748C221.124 157.632 221.02 158.709 221.349 159.676C222.015 161.63 223.636 163.245 225.736 164.326C227.283 165.122 229.087 165.491 230.904 165.589C231.435 165.618 231.612 165.663 231.417 165.267" stroke="#6898BB" stroke-width="5" stroke-linecap="round" stroke-dasharray="10 10"/>
<path d="M30.9375 153.271C31.296 153.477 32.4411 153.329 32.897 153.384C34.1603 153.534 35.3881 153.599 36.6629 153.61C38.143 153.623 39.6526 153.873 41.1329 153.66C43.5855 153.308 45.9976 153.045 48.4963 153.045C50.4619 153.045 52.2585 152.796 54.1911 152.618C55.9124 152.459 57.5724 153.373 59.151 153.786C60.6181 154.17 62.122 154.401 63.6593 154.401C65.1348 154.401 66.6618 154.455 68.1294 154.571C70.2528 154.738 73.1728 154.909 75.1637 154.238C76.7857 153.692 78.339 152.476 79.6797 151.575C81.2945 150.489 82.8624 149.336 84.3334 148.12C85.7742 146.93 87.0862 145.607 87.9768 144.088C88.903 142.509 89.4667 140.79 90.12 139.126C90.5474 138.037 91.2167 137.017 91.6203 135.929C91.6962 135.724 91.768 135.517 91.9188 135.338C92.8556 134.228 94.1624 133.399 95.3096 132.443C96.7864 131.212 97.9106 129.69 99.2133 128.335C100.399 127.102 102.744 126.25 104.602 126.25C106.048 126.25 107.541 126.115 108.98 126.206C110.569 126.306 112.142 126.476 113.741 126.476C117.28 126.476 119.989 125.676 122.62 123.769C124.316 122.539 125.901 121.133 127.503 119.818C127.776 119.594 128.087 119.281 128.506 119.246C130.622 119.073 132.85 119.246 134.974 119.24C139.338 119.229 143.687 118.994 148.017 118.537C150.282 118.297 152.531 117.977 154.768 117.595C155.682 117.438 156.751 117.332 157.6 116.979C158.194 116.732 158.687 116.301 159.268 116.024C161.351 115.032 163.723 114.41 165.966 113.713C167.229 113.32 168.126 113.029 168.943 112.13C169.856 111.126 170.616 110.07 170.987 108.851C171.273 107.912 171.778 107.026 172.02 106.075C172.342 104.812 172.65 103.531 173.153 102.306C173.476 101.52 173.959 100.343 174.745 99.7564C174.759 99.7459 174.804 100.033 174.806 100.045C174.867 100.33 174.901 100.613 174.944 100.9C175.105 101.956 175.591 102.71 176.299 103.594C177.757 105.414 179.11 107.248 180.379 109.165C181.464 110.806 182.515 112.456 183.326 114.203C183.83 115.29 184.16 116.442 184.772 117.494C185.484 118.717 187.014 119.277 188.033 120.308C189.761 122.057 192.442 122.439 194.906 123.109C196.875 123.645 199.139 124.046 200.785 125.144C202.114 126.032 202.752 127.464 203.502 128.681C204.839 130.847 205.329 133.281 206.357 135.558C207.179 137.379 208.352 138.981 209.48 140.671C209.973 141.409 210.325 142.202 210.774 142.957C211.612 144.37 212.685 145.642 213.843 146.889C215.438 148.607 217.02 150.311 218.558 152.065C219.237 152.838 219.9 153.625 220.594 154.389C220.79 154.604 221.056 154.915 221.413 154.96C222.144 155.053 222.998 155.376 222.998 154.627" stroke="#504FF2" stroke-width="3.81746" stroke-linecap="round"/>
<path d="M33.3553 40.1022C32.5094 40.1022 31.848 39.8666 31.3711 39.3954C30.8942 38.9242 30.6557 38.2514 30.6557 37.3771V34.0388H32.0353V37.326C32.0353 37.8937 32.1517 38.3025 32.3845 38.5523C32.6172 38.8021 32.9437 38.927 33.3638 38.927C33.7839 38.927 34.1104 38.8021 34.3431 38.5523C34.5759 38.3025 34.6923 37.8937 34.6923 37.326V34.0388H36.0548V37.3771C36.0548 38.2514 35.8164 38.9242 35.3395 39.3954C34.8626 39.8666 34.2012 40.1022 33.3553 40.1022ZM38.8658 40.0681C38.4741 40.0681 38.0966 40.0227 37.7332 39.9319C37.3755 39.8354 37.0917 39.7161 36.8816 39.5742L37.3245 38.6204C37.5345 38.751 37.7815 38.8589 38.0653 38.944C38.3549 39.0235 38.6387 39.0632 38.9169 39.0632C39.2235 39.0632 39.4392 39.0263 39.5641 38.9525C39.6947 38.8787 39.76 38.7765 39.76 38.646C39.76 38.5381 39.7089 38.4586 39.6067 38.4075C39.5102 38.3507 39.3796 38.3082 39.215 38.2798C39.0504 38.2514 38.8687 38.223 38.67 38.1946C38.4769 38.1662 38.2811 38.1293 38.0824 38.0839C37.8837 38.0328 37.702 37.959 37.5373 37.8625C37.3727 37.766 37.2393 37.6354 37.1371 37.4708C37.0406 37.3061 36.9923 37.0932 36.9923 36.8321C36.9923 36.5425 37.0746 36.287 37.2393 36.0656C37.4096 35.8442 37.6537 35.6711 37.9717 35.5462C38.2896 35.4156 38.67 35.3503 39.1128 35.3503C39.4251 35.3503 39.743 35.3844 40.0666 35.4525C40.3902 35.5206 40.6599 35.62 40.8756 35.7505L40.4328 36.6958C40.2114 36.5652 39.9871 36.4772 39.76 36.4318C39.5386 36.3807 39.3229 36.3552 39.1128 36.3552C38.8176 36.3552 38.6018 36.3949 38.4656 36.4744C38.3293 36.5539 38.2612 36.6561 38.2612 36.781C38.2612 36.8945 38.3095 36.9797 38.406 37.0364C38.5082 37.0932 38.6416 37.1386 38.8062 37.1727C38.9709 37.2068 39.1497 37.238 39.3427 37.2664C39.5414 37.2891 39.7401 37.326 39.9388 37.3771C40.1376 37.4282 40.3164 37.502 40.4754 37.5985C40.64 37.6893 40.7734 37.8171 40.8756 37.9817C40.9778 38.1407 41.0289 38.3507 41.0289 38.6119C41.0289 38.8958 40.9437 39.1484 40.7734 39.3698C40.6031 39.5856 40.3561 39.7559 40.0325 39.8808C39.7146 40.0057 39.3257 40.0681 38.8658 40.0681ZM44.6588 40V39.1058L44.5737 38.91V37.309C44.5737 37.0251 44.4857 36.8037 44.3097 36.6447C44.1393 36.4858 43.8753 36.4063 43.5177 36.4063C43.2736 36.4063 43.0323 36.446 42.7938 36.5255C42.5611 36.5993 42.3623 36.7015 42.1977 36.8321L41.7208 35.9038C41.9706 35.7278 42.2715 35.5916 42.6235 35.4951C42.9755 35.3985 43.3332 35.3503 43.6965 35.3503C44.3948 35.3503 44.937 35.5149 45.3231 35.8442C45.7091 36.1735 45.9021 36.6873 45.9021 37.3856V40H44.6588ZM43.2622 40.0681C42.9045 40.0681 42.598 40.0085 42.3425 39.8893C42.087 39.7644 41.8911 39.5969 41.7549 39.3869C41.6186 39.1768 41.5505 38.9412 41.5505 38.68C41.5505 38.4075 41.6158 38.1691 41.7464 37.9647C41.8826 37.7603 42.0955 37.6013 42.3851 37.4878C42.6746 37.3686 43.0521 37.309 43.5177 37.309H44.7355V38.0839H43.6624C43.3502 38.0839 43.1345 38.135 43.0152 38.2372C42.9017 38.3394 42.8449 38.4671 42.8449 38.6204C42.8449 38.7907 42.9102 38.927 43.0408 39.0292C43.177 39.1257 43.3616 39.174 43.5943 39.174C43.8157 39.174 44.0144 39.1229 44.1904 39.0207C44.3664 38.9128 44.4942 38.7567 44.5737 38.5523L44.778 39.1654C44.6815 39.4607 44.5055 39.6849 44.25 39.8382C43.9946 39.9915 43.6653 40.0681 43.2622 40.0681ZM49.2923 41.7202C48.8608 41.7202 48.4435 41.6663 48.0404 41.5584C47.643 41.4562 47.3109 41.3001 47.0441 41.09L47.5721 40.1363C47.7651 40.2952 48.0092 40.4201 48.3044 40.511C48.6053 40.6075 48.9006 40.6557 49.1901 40.6557C49.6613 40.6557 50.002 40.5507 50.212 40.3406C50.4278 40.1306 50.5356 39.8183 50.5356 39.4039V38.7141L50.6208 37.5644L50.6037 36.4063V35.4184H51.8641V39.2336C51.8641 40.0852 51.6427 40.7125 51.1999 41.1156C50.757 41.5187 50.1212 41.7202 49.2923 41.7202ZM49.0879 39.7786C48.6621 39.7786 48.2761 39.6877 47.9297 39.5061C47.5891 39.3187 47.3138 39.0604 47.1037 38.7311C46.8993 38.3962 46.7971 38.0073 46.7971 37.5644C46.7971 37.1159 46.8993 36.727 47.1037 36.3978C47.3138 36.0628 47.5891 35.8045 47.9297 35.6228C48.2761 35.4411 48.6621 35.3503 49.0879 35.3503C49.474 35.3503 49.8146 35.4298 50.1098 35.5887C50.405 35.742 50.635 35.9833 50.7996 36.3126C50.9643 36.6362 51.0466 37.0535 51.0466 37.5644C51.0466 38.0697 50.9643 38.487 50.7996 38.8163C50.635 39.1399 50.405 39.3812 50.1098 39.5401C49.8146 39.6991 49.474 39.7786 49.0879 39.7786ZM49.3519 38.6885C49.5847 38.6885 49.7919 38.6431 49.9736 38.5523C50.1552 38.4558 50.2972 38.3224 50.3994 38.152C50.5016 37.9817 50.5527 37.7859 50.5527 37.5644C50.5527 37.3373 50.5016 37.1415 50.3994 36.9768C50.2972 36.8065 50.1552 36.6759 49.9736 36.5851C49.7919 36.4886 49.5847 36.4403 49.3519 36.4403C49.1191 36.4403 48.9119 36.4886 48.7302 36.5851C48.5486 36.6759 48.4038 36.8065 48.2959 36.9768C48.1937 37.1415 48.1426 37.3373 48.1426 37.5644C48.1426 37.7859 48.1937 37.9817 48.2959 38.152C48.4038 38.3224 48.5486 38.4558 48.7302 38.5523C48.9119 38.6431 49.1191 38.6885 49.3519 38.6885ZM55.3743 40.0681C54.852 40.0681 54.3922 39.9659 53.9948 39.7616C53.603 39.5572 53.2993 39.279 53.0836 38.927C52.8678 38.5693 52.7599 38.1634 52.7599 37.7092C52.7599 37.2493 52.865 36.8434 53.075 36.4914C53.2908 36.1338 53.5832 35.8556 53.9522 35.6569C54.3212 35.4525 54.7385 35.3503 55.204 35.3503C55.6525 35.3503 56.0556 35.4468 56.4133 35.6398C56.7766 35.8272 57.0633 36.0997 57.2734 36.4574C57.4835 36.8094 57.5885 37.2323 57.5885 37.7262C57.5885 37.7773 57.5857 37.8369 57.58 37.9051C57.5743 37.9675 57.5686 38.0271 57.5629 38.0839H53.8415V37.309H56.8646L56.3537 37.5389C56.3537 37.3004 56.3054 37.0932 56.2089 36.9172C56.1124 36.7412 55.979 36.605 55.8087 36.5085C55.6383 36.4063 55.4396 36.3552 55.2125 36.3552C54.9854 36.3552 54.7839 36.4063 54.6079 36.5085C54.4376 36.605 54.3042 36.7441 54.2077 36.9257C54.1111 37.1017 54.0629 37.3118 54.0629 37.5559V37.7603C54.0629 38.0101 54.1168 38.2315 54.2247 38.4245C54.3382 38.6119 54.4944 38.7567 54.6931 38.8589C54.8975 38.9554 55.1359 39.0036 55.4084 39.0036C55.6525 39.0036 55.8654 38.9667 56.0471 38.8929C56.2345 38.8191 56.4048 38.7084 56.5581 38.5608L57.2649 39.3272C57.0548 39.5657 56.7908 39.7502 56.4729 39.8808C56.155 40.0057 55.7888 40.0681 55.3743 40.0681ZM63.8312 40.1022C63.3714 40.1022 62.9427 40.0284 62.5453 39.8808C62.1536 39.7275 61.8129 39.5118 61.5234 39.2336C61.2339 38.9554 61.0068 38.6289 60.8421 38.2542C60.6832 37.8795 60.6037 37.4679 60.6037 37.0194C60.6037 36.5709 60.6832 36.1593 60.8421 35.7846C61.0068 35.4099 61.2339 35.0835 61.5234 34.8053C61.8186 34.5271 62.1621 34.3142 62.5538 34.1666C62.9456 34.0133 63.3742 33.9366 63.8397 33.9366C64.3564 33.9366 64.8219 34.0275 65.2363 34.2092C65.6565 34.3851 66.0085 34.6463 66.2923 34.9926L65.4067 35.8102C65.2023 35.5774 64.9752 35.4042 64.7254 35.2907C64.4756 35.1715 64.2031 35.1118 63.9079 35.1118C63.6297 35.1118 63.3742 35.1573 63.1414 35.2481C62.9087 35.3389 62.7071 35.4695 62.5368 35.6398C62.3665 35.8102 62.2331 36.0117 62.1365 36.2445C62.0457 36.4772 62.0003 36.7356 62.0003 37.0194C62.0003 37.3033 62.0457 37.5616 62.1365 37.7944C62.2331 38.0271 62.3665 38.2287 62.5368 38.399C62.7071 38.5693 62.9087 38.6999 63.1414 38.7907C63.3742 38.8816 63.6297 38.927 63.9079 38.927C64.2031 38.927 64.4756 38.8702 64.7254 38.7567C64.9752 38.6374 65.2023 38.4586 65.4067 38.2202L66.2923 39.0377C66.0085 39.384 65.6565 39.648 65.2363 39.8297C64.8219 40.0114 64.3535 40.1022 63.8312 40.1022ZM69.1524 40.0681C68.6641 40.0681 68.2298 39.9659 67.8494 39.7616C67.4747 39.5572 67.1767 39.279 66.9552 38.927C66.7395 38.5693 66.6316 38.1634 66.6316 37.7092C66.6316 37.2493 66.7395 36.8434 66.9552 36.4914C67.1767 36.1338 67.4747 35.8556 67.8494 35.6569C68.2298 35.4525 68.6641 35.3503 69.1524 35.3503C69.6349 35.3503 70.0664 35.4525 70.4468 35.6569C70.8272 35.8556 71.1252 36.1309 71.341 36.4829C71.5567 36.8349 71.6646 37.2437 71.6646 37.7092C71.6646 38.1634 71.5567 38.5693 71.341 38.927C71.1252 39.279 70.8272 39.5572 70.4468 39.7616C70.0664 39.9659 69.6349 40.0681 69.1524 40.0681ZM69.1524 38.9781C69.3738 38.9781 69.5725 38.927 69.7485 38.8248C69.9245 38.7226 70.0636 38.5778 70.1658 38.3905C70.2679 38.1975 70.319 37.9704 70.319 37.7092C70.319 37.4424 70.2679 37.2153 70.1658 37.0279C70.0636 36.8406 69.9245 36.6958 69.7485 36.5936C69.5725 36.4914 69.3738 36.4403 69.1524 36.4403C68.9309 36.4403 68.7322 36.4914 68.5562 36.5936C68.3802 36.6958 68.2383 36.8406 68.1304 37.0279C68.0282 37.2153 67.9772 37.4424 67.9772 37.7092C67.9772 37.9704 68.0282 38.1975 68.1304 38.3905C68.2383 38.5778 68.3802 38.7226 68.5562 38.8248C68.7322 38.927 68.9309 38.9781 69.1524 38.9781ZM78.42 35.3503C78.7834 35.3503 79.1042 35.4241 79.3823 35.5717C79.6662 35.7136 79.8876 35.9351 80.0466 36.2359C80.2112 36.5312 80.2935 36.9115 80.2935 37.3771V40H78.9651V37.5815C78.9651 37.2124 78.8884 36.9399 78.7351 36.7639C78.5818 36.5879 78.3661 36.4999 78.0879 36.4999C77.8949 36.4999 77.7217 36.5454 77.5684 36.6362C77.4152 36.7214 77.2959 36.8519 77.2108 37.0279C77.1256 37.2039 77.083 37.4282 77.083 37.7007V40H75.7545V37.5815C75.7545 37.2124 75.6779 36.9399 75.5246 36.7639C75.377 36.5879 75.1641 36.4999 74.8859 36.4999C74.6929 36.4999 74.5197 36.5454 74.3664 36.6362C74.2132 36.7214 74.0939 36.8519 74.0088 37.0279C73.9236 37.2039 73.881 37.4282 73.881 37.7007V40H72.5525V35.4184H73.8214V36.6703L73.583 36.3041C73.7419 35.9918 73.9662 35.7562 74.2557 35.5973C74.551 35.4326 74.8859 35.3503 75.2606 35.3503C75.6807 35.3503 76.0469 35.4582 76.3592 35.6739C76.6771 35.884 76.8872 36.2076 76.9894 36.6447L76.521 36.517C76.6743 36.1593 76.9184 35.8754 77.2534 35.6654C77.594 35.4553 77.9829 35.3503 78.42 35.3503ZM84.1924 40.0681C83.8063 40.0681 83.4685 39.983 83.179 39.8126C82.8895 39.6423 82.6624 39.384 82.4977 39.0377C82.3388 38.6857 82.2593 38.2429 82.2593 37.7092C82.2593 37.1699 82.3359 36.727 82.4892 36.3807C82.6425 36.0344 82.8639 35.7761 83.1534 35.6058C83.443 35.4354 83.7893 35.3503 84.1924 35.3503C84.6239 35.3503 85.0099 35.4496 85.3506 35.6483C85.6969 35.8414 85.9694 36.1139 86.1681 36.4659C86.3725 36.8179 86.4747 37.2323 86.4747 37.7092C86.4747 38.1918 86.3725 38.6091 86.1681 38.9611C85.9694 39.313 85.6969 39.5856 85.3506 39.7786C85.0099 39.9716 84.6239 40.0681 84.1924 40.0681ZM81.4843 41.6521V35.4184H82.7532V36.3552L82.7276 37.7177L82.8128 39.0718V41.6521H81.4843ZM83.9625 38.9781C84.1839 38.9781 84.3797 38.927 84.5501 38.8248C84.7261 38.7226 84.8652 38.5778 84.9673 38.3905C85.0752 38.1975 85.1291 37.9704 85.1291 37.7092C85.1291 37.4424 85.0752 37.2153 84.9673 37.0279C84.8652 36.8406 84.7261 36.6958 84.5501 36.5936C84.3797 36.4914 84.1839 36.4403 83.9625 36.4403C83.741 36.4403 83.5423 36.4914 83.3663 36.5936C83.1903 36.6958 83.0513 36.8406 82.9491 37.0279C82.8469 37.2153 82.7958 37.4424 82.7958 37.7092C82.7958 37.9704 82.8469 38.1975 82.9491 38.3905C83.0513 38.5778 83.1903 38.7226 83.3663 38.8248C83.5423 38.927 83.741 38.9781 83.9625 38.9781ZM90.0994 40V39.1058L90.0142 38.91V37.309C90.0142 37.0251 89.9262 36.8037 89.7503 36.6447C89.5799 36.4858 89.3159 36.4063 88.9583 36.4063C88.7141 36.4063 88.4729 36.446 88.2344 36.5255C88.0016 36.5993 87.8029 36.7015 87.6383 36.8321L87.1614 35.9038C87.4112 35.7278 87.7121 35.5916 88.0641 35.4951C88.4161 35.3985 88.7738 35.3503 89.1371 35.3503C89.8354 35.3503 90.3776 35.5149 90.7636 35.8442C91.1497 36.1735 91.3427 36.6873 91.3427 37.3856V40H90.0994ZM88.7028 40.0681C88.3451 40.0681 88.0385 40.0085 87.7831 39.8893C87.5276 39.7644 87.3317 39.5969 87.1955 39.3869C87.0592 39.1768 86.9911 38.9412 86.9911 38.68C86.9911 38.4075 87.0564 38.1691 87.1869 37.9647C87.3232 37.7603 87.5361 37.6013 87.8256 37.4878C88.1152 37.3686 88.4927 37.309 88.9583 37.309H90.176V38.0839H89.103C88.7908 38.0839 88.575 38.135 88.4558 38.2372C88.3423 38.3394 88.2855 38.4671 88.2855 38.6204C88.2855 38.7907 88.3508 38.927 88.4814 39.0292C88.6176 39.1257 88.8021 39.174 89.0349 39.174C89.2563 39.174 89.455 39.1229 89.631 39.0207C89.807 38.9128 89.9348 38.7567 90.0142 38.5523L90.2186 39.1654C90.1221 39.4607 89.9461 39.6849 89.6906 39.8382C89.4352 39.9915 89.1059 40.0681 88.7028 40.0681ZM92.5451 40V35.4184H93.814V36.7128L93.6351 36.3381C93.7714 36.0145 93.99 35.7704 94.2908 35.6058C94.5917 35.4354 94.9579 35.3503 95.3894 35.3503V36.5766C95.3326 36.5709 95.2815 36.5681 95.2361 36.5681C95.1907 36.5624 95.1424 36.5596 95.0913 36.5596C94.728 36.5596 94.4328 36.6646 94.2057 36.8746C93.9843 37.079 93.8736 37.3998 93.8736 37.8369V40H92.5451ZM96.1876 40V35.4184H97.5161V40H96.1876ZM96.8519 34.7797C96.6078 34.7797 96.4091 34.7088 96.2558 34.5668C96.1025 34.4249 96.0258 34.2489 96.0258 34.0388C96.0258 33.8288 96.1025 33.6528 96.2558 33.5108C96.4091 33.3689 96.6078 33.2979 96.8519 33.2979C97.096 33.2979 97.2947 33.3661 97.448 33.5023C97.6013 33.6329 97.6779 33.8032 97.6779 34.0133C97.6779 34.2347 97.6013 34.4192 97.448 34.5668C97.3004 34.7088 97.1017 34.7797 96.8519 34.7797ZM100.29 40.0681C99.8987 40.0681 99.5212 40.0227 99.1578 39.9319C98.8002 39.8354 98.5163 39.7161 98.3063 39.5742L98.7491 38.6204C98.9591 38.751 99.2061 38.8589 99.49 38.944C99.7795 39.0235 100.063 39.0632 100.342 39.0632C100.648 39.0632 100.864 39.0263 100.989 38.9525C101.119 38.8787 101.185 38.7765 101.185 38.646C101.185 38.5381 101.134 38.4586 101.031 38.4075C100.935 38.3507 100.804 38.3082 100.64 38.2798C100.475 38.2514 100.293 38.223 100.095 38.1946C99.9016 38.1662 99.7057 38.1293 99.507 38.0839C99.3083 38.0328 99.1266 37.959 98.962 37.8625C98.7973 37.766 98.6639 37.6354 98.5617 37.4708C98.4652 37.3061 98.417 37.0932 98.417 36.8321C98.417 36.5425 98.4993 36.287 98.6639 36.0656C98.8342 35.8442 99.0784 35.6711 99.3963 35.5462C99.7142 35.4156 100.095 35.3503 100.537 35.3503C100.85 35.3503 101.168 35.3844 101.491 35.4525C101.815 35.5206 102.084 35.62 102.3 35.7505L101.857 36.6958C101.636 36.5652 101.412 36.4772 101.185 36.4318C100.963 36.3807 100.747 36.3552 100.537 36.3552C100.242 36.3552 100.026 36.3949 99.8902 36.4744C99.754 36.5539 99.6858 36.6561 99.6858 36.781C99.6858 36.8945 99.7341 36.9797 99.8306 37.0364C99.9328 37.0932 100.066 37.1386 100.231 37.1727C100.395 37.2068 100.574 37.238 100.767 37.2664C100.966 37.2891 101.165 37.326 101.363 37.3771C101.562 37.4282 101.741 37.502 101.9 37.5985C102.065 37.6893 102.198 37.8171 102.3 37.9817C102.402 38.1407 102.454 38.3507 102.454 38.6119C102.454 38.8958 102.368 39.1484 102.198 39.3698C102.028 39.5856 101.781 39.7559 101.457 39.8808C101.139 40.0057 100.75 40.0681 100.29 40.0681ZM105.453 40.0681C104.965 40.0681 104.531 39.9659 104.15 39.7616C103.776 39.5572 103.478 39.279 103.256 38.927C103.04 38.5693 102.933 38.1634 102.933 37.7092C102.933 37.2493 103.04 36.8434 103.256 36.4914C103.478 36.1338 103.776 35.8556 104.15 35.6569C104.531 35.4525 104.965 35.3503 105.453 35.3503C105.936 35.3503 106.367 35.4525 106.748 35.6569C107.128 35.8556 107.426 36.1309 107.642 36.4829C107.858 36.8349 107.965 37.2437 107.965 37.7092C107.965 38.1634 107.858 38.5693 107.642 38.927C107.426 39.279 107.128 39.5572 106.748 39.7616C106.367 39.9659 105.936 40.0681 105.453 40.0681ZM105.453 38.9781C105.675 38.9781 105.873 38.927 106.049 38.8248C106.225 38.7226 106.364 38.5778 106.467 38.3905C106.569 38.1975 106.62 37.9704 106.62 37.7092C106.62 37.4424 106.569 37.2153 106.467 37.0279C106.364 36.8406 106.225 36.6958 106.049 36.5936C105.873 36.4914 105.675 36.4403 105.453 36.4403C105.232 36.4403 105.033 36.4914 104.857 36.5936C104.681 36.6958 104.539 36.8406 104.431 37.0279C104.329 37.2153 104.278 37.4424 104.278 37.7092C104.278 37.9704 104.329 38.1975 104.431 38.3905C104.539 38.5778 104.681 38.7226 104.857 38.8248C105.033 38.927 105.232 38.9781 105.453 38.9781ZM111.638 35.3503C112.002 35.3503 112.325 35.4241 112.609 35.5717C112.899 35.7136 113.126 35.9351 113.29 36.2359C113.455 36.5312 113.537 36.9115 113.537 37.3771V40H112.209V37.5815C112.209 37.2124 112.126 36.9399 111.962 36.7639C111.803 36.5879 111.576 36.4999 111.281 36.4999C111.07 36.4999 110.88 36.5454 110.71 36.6362C110.545 36.7214 110.415 36.8548 110.318 37.0364C110.227 37.2181 110.182 37.4509 110.182 37.7348V40H108.853V35.4184H110.122V36.6873L109.884 36.3041C110.049 35.9975 110.284 35.7619 110.591 35.5973C110.897 35.4326 111.246 35.3503 111.638 35.3503Z" fill="black"/>
<path d="M57.7044 56.3256H63.0855V58.3375H57.7044V56.3256ZM57.896 60.9242H63.9796V63H55.3253V51.8228H63.7721V53.8986H57.896V60.9242ZM68.7055 63.1277C67.971 63.1277 67.2631 63.0426 66.5818 62.8723C65.9112 62.6913 65.3789 62.4678 64.9851 62.2016L65.8154 60.4133C66.2092 60.6581 66.6723 60.8604 67.2045 61.02C67.7474 61.1691 68.2797 61.2436 68.8013 61.2436C69.3761 61.2436 69.7806 61.1744 70.0148 61.036C70.2596 60.8976 70.3821 60.706 70.3821 60.4612C70.3821 60.2589 70.2863 60.1099 70.0946 60.0141C69.9137 59.9076 69.6689 59.8278 69.3601 59.7746C69.0514 59.7214 68.7108 59.6681 68.3382 59.6149C67.9763 59.5617 67.6091 59.4925 67.2365 59.4073C66.8639 59.3115 66.5233 59.1731 66.2146 58.9922C65.9059 58.8112 65.6557 58.5664 65.4641 58.2577C65.2831 57.949 65.1927 57.5498 65.1927 57.0601C65.1927 56.5172 65.347 56.0382 65.6557 55.6231C65.9751 55.2079 66.4328 54.8832 67.0289 54.649C67.625 54.4042 68.3382 54.2818 69.1685 54.2818C69.754 54.2818 70.3501 54.3457 70.9569 54.4734C71.5637 54.6011 72.0693 54.7874 72.4738 55.0323L71.6435 56.8046C71.2283 56.5598 70.8079 56.3948 70.3821 56.3097C69.9669 56.2139 69.5624 56.1659 69.1685 56.1659C68.615 56.1659 68.2105 56.2405 67.955 56.3895C67.6995 56.5385 67.5718 56.7301 67.5718 56.9643C67.5718 57.1772 67.6623 57.3369 67.8432 57.4433C68.0349 57.5498 68.285 57.635 68.5937 57.6988C68.9024 57.7627 69.2377 57.8212 69.5997 57.8745C69.9722 57.917 70.3448 57.9862 70.7174 58.082C71.09 58.1778 71.4253 58.3162 71.7233 58.4972C72.032 58.6675 72.2822 58.907 72.4738 59.2157C72.6654 59.5138 72.7612 59.9076 72.7612 60.3973C72.7612 60.9296 72.6015 61.4033 72.2822 61.8184C71.9628 62.2229 71.4998 62.5423 70.893 62.7765C70.2969 63.0106 69.5677 63.1277 68.7055 63.1277ZM77.8109 63.1277C76.7996 63.1277 76.0119 62.8723 75.4477 62.3613C74.8835 61.8397 74.6014 61.0679 74.6014 60.046V52.5094H77.0924V60.0141C77.0924 60.376 77.1882 60.6581 77.3798 60.8604C77.5714 61.052 77.8322 61.1478 78.1622 61.1478C78.556 61.1478 78.8914 61.0413 79.1681 60.8284L79.8388 62.5848C79.5833 62.7658 79.2746 62.9042 78.9126 63C78.5614 63.0852 78.1941 63.1277 77.8109 63.1277ZM73.2762 56.5172V54.6011H79.232V56.5172H73.2762ZM84.6604 63.1277C83.8514 63.1277 83.1222 62.9468 82.4729 62.5848C81.8235 62.2123 81.3073 61.696 80.924 61.036C80.5515 60.376 80.3652 59.5989 80.3652 58.7048C80.3652 57.7999 80.5515 57.0175 80.924 56.3576C81.3073 55.6976 81.8235 55.1866 82.4729 54.8247C83.1222 54.4628 83.8514 54.2818 84.6604 54.2818C85.3843 54.2818 86.0176 54.4415 86.5605 54.7608C87.1034 55.0802 87.5239 55.5645 87.822 56.2139C88.12 56.8632 88.2691 57.6935 88.2691 58.7048C88.2691 59.7054 88.1253 60.5357 87.8379 61.1957C87.5505 61.845 87.1354 62.3294 86.5925 62.6487C86.0602 62.9681 85.4162 63.1277 84.6604 63.1277ZM85.0915 61.0839C85.496 61.0839 85.8633 60.9881 86.1933 60.7965C86.5233 60.6049 86.7841 60.3334 86.9757 59.9822C87.1779 59.6202 87.2791 59.1944 87.2791 58.7048C87.2791 58.2045 87.1779 57.7787 86.9757 57.4274C86.7841 57.0761 86.5233 56.8046 86.1933 56.613C85.8633 56.4214 85.496 56.3256 85.0915 56.3256C84.6764 56.3256 84.3038 56.4214 83.9738 56.613C83.6438 56.8046 83.3777 57.0761 83.1754 57.4274C82.9838 57.7787 82.888 58.2045 82.888 58.7048C82.888 59.1944 82.9838 59.6202 83.1754 59.9822C83.3777 60.3334 83.6438 60.6049 83.9738 60.7965C84.3038 60.9881 84.6764 61.0839 85.0915 61.0839ZM87.3429 63V61.2436L87.3908 58.6888L87.2312 56.15V51.1522H89.7221V63H87.3429ZM100.398 63.1916C99.5035 63.1916 98.6466 63.0745 97.8269 62.8403C97.0073 62.5955 96.3473 62.2815 95.847 61.8982L96.7252 59.9502C97.2042 60.2909 97.7684 60.573 98.4177 60.7965C99.0777 61.0094 99.743 61.1158 100.414 61.1158C100.925 61.1158 101.334 61.0679 101.643 60.9721C101.962 60.8657 102.197 60.722 102.346 60.541C102.495 60.3601 102.569 60.1525 102.569 59.9183C102.569 59.6202 102.452 59.386 102.218 59.2157C101.984 59.0348 101.675 58.8911 101.292 58.7846C100.909 58.6675 100.483 58.5611 100.014 58.4653C99.5567 58.3588 99.0937 58.2311 98.6253 58.082C98.1676 57.933 97.7471 57.7414 97.3639 57.5072C96.9806 57.273 96.6666 56.9643 96.4218 56.5811C96.1876 56.1979 96.0705 55.7082 96.0705 55.1121C96.0705 54.4734 96.2408 53.8933 96.5815 53.3717C96.9327 52.8394 97.4543 52.4189 98.1463 52.1102C98.8488 51.7909 99.727 51.6312 100.781 51.6312C101.483 51.6312 102.175 51.7164 102.857 51.8867C103.538 52.0464 104.139 52.2912 104.661 52.6212L103.863 54.5852C103.341 54.2871 102.819 54.0689 102.298 53.9305C101.776 53.7815 101.265 53.707 100.765 53.707C100.265 53.707 99.8548 53.7655 99.5354 53.8826C99.2161 53.9997 98.9872 54.1541 98.8488 54.3457C98.7104 54.5266 98.6413 54.7395 98.6413 54.9844C98.6413 55.2718 98.7584 55.506 98.9925 55.6869C99.2267 55.8572 99.5354 55.9956 99.9186 56.1021C100.302 56.2085 100.722 56.315 101.18 56.4214C101.648 56.5279 102.112 56.6503 102.569 56.7887C103.038 56.9271 103.463 57.1133 103.847 57.3475C104.23 57.5817 104.539 57.8904 104.773 58.2736C105.018 58.6569 105.14 59.1412 105.14 59.7267C105.14 60.3547 104.964 60.9296 104.613 61.4512C104.262 61.9728 103.735 62.3932 103.032 62.7126C102.34 63.0319 101.462 63.1916 100.398 63.1916ZM112.001 63V61.3234L111.841 60.9562V57.9543C111.841 57.4221 111.676 57.0069 111.346 56.7088C111.027 56.4108 110.532 56.2618 109.861 56.2618C109.404 56.2618 108.951 56.3363 108.504 56.4853C108.068 56.6237 107.695 56.8153 107.387 57.0601L106.492 55.3197C106.961 54.9897 107.525 54.7342 108.185 54.5532C108.845 54.3723 109.516 54.2818 110.197 54.2818C111.506 54.2818 112.523 54.5905 113.247 55.2079C113.97 55.8253 114.332 56.7887 114.332 58.098V63H112.001ZM109.382 63.1277C108.712 63.1277 108.137 63.016 107.658 62.7924C107.179 62.5582 106.812 62.2442 106.556 61.8503C106.301 61.4565 106.173 61.0147 106.173 60.5251C106.173 60.0141 106.295 59.567 106.54 59.1838C106.796 58.8006 107.195 58.5025 107.738 58.2896C108.281 58.0661 108.989 57.9543 109.861 57.9543H112.145V59.4073H110.133C109.547 59.4073 109.143 59.5031 108.919 59.6947C108.707 59.8864 108.6 60.1259 108.6 60.4133C108.6 60.7326 108.722 60.9881 108.967 61.1797C109.223 61.3607 109.569 61.4512 110.005 61.4512C110.42 61.4512 110.793 61.3554 111.123 61.1637C111.453 60.9615 111.692 60.6688 111.841 60.2855L112.225 61.4352C112.044 61.9887 111.714 62.4092 111.235 62.6966C110.756 62.984 110.138 63.1277 109.382 63.1277ZM118.762 63L115.153 54.4095H117.724L120.726 61.8024H119.449L122.562 54.4095H124.957L121.333 63H118.762ZM125.974 63V54.4095H128.465V63H125.974ZM127.219 53.212C126.762 53.212 126.389 53.0789 126.102 52.8128C125.814 52.5467 125.67 52.2167 125.67 51.8228C125.67 51.429 125.814 51.099 126.102 50.8328C126.389 50.5667 126.762 50.4336 127.219 50.4336C127.677 50.4336 128.05 50.5614 128.337 50.8169C128.624 51.0617 128.768 51.381 128.768 51.7749C128.768 52.1901 128.624 52.536 128.337 52.8128C128.06 53.0789 127.688 53.212 127.219 53.212ZM135.998 54.2818C136.679 54.2818 137.286 54.4202 137.818 54.6969C138.361 54.9631 138.787 55.3782 139.096 55.9424C139.404 56.4959 139.559 57.2092 139.559 58.082V63H137.068V58.4653C137.068 57.7733 136.913 57.2624 136.605 56.9324C136.307 56.6024 135.881 56.4374 135.327 56.4374C134.933 56.4374 134.577 56.5226 134.257 56.6929C133.949 56.8525 133.704 57.1027 133.523 57.4433C133.353 57.784 133.267 58.2204 133.267 58.7527V63H130.777V54.4095H133.156V56.7887L132.709 56.0701C133.017 55.4953 133.459 55.0536 134.034 54.7448C134.609 54.4361 135.263 54.2818 135.998 54.2818ZM145.919 66.2254C145.11 66.2254 144.327 66.1243 143.571 65.922C142.826 65.7304 142.204 65.4377 141.703 65.0438L142.693 63.2555C143.055 63.5535 143.513 63.7877 144.066 63.958C144.631 64.139 145.184 64.2295 145.727 64.2295C146.611 64.2295 147.249 64.0326 147.643 63.6387C148.048 63.2448 148.25 62.6594 148.25 61.8823V60.5889L148.41 58.4333L148.378 56.2618V54.4095H150.741V61.5629C150.741 63.1597 150.326 64.3359 149.495 65.0917C148.665 65.8475 147.473 66.2254 145.919 66.2254ZM145.535 62.5848C144.737 62.5848 144.013 62.4145 143.364 62.0739C142.725 61.7226 142.209 61.2383 141.815 60.6209C141.432 59.9928 141.24 59.2636 141.24 58.4333C141.24 57.5924 141.432 56.8632 141.815 56.2458C142.209 55.6177 142.725 55.1334 143.364 54.7928C144.013 54.4521 144.737 54.2818 145.535 54.2818C146.259 54.2818 146.898 54.4308 147.452 54.7289C148.005 55.0163 148.436 55.4687 148.745 56.0861C149.054 56.6929 149.208 57.4753 149.208 58.4333C149.208 59.3807 149.054 60.1631 148.745 60.7805C148.436 61.3873 148.005 61.8397 147.452 62.1378C146.898 62.4358 146.259 62.5848 145.535 62.5848ZM146.03 60.541C146.467 60.541 146.855 60.4559 147.196 60.2855C147.537 60.1046 147.803 59.8544 147.994 59.5351C148.186 59.2157 148.282 58.8485 148.282 58.4333C148.282 58.0075 148.186 57.6403 147.994 57.3316C147.803 57.0122 147.537 56.7674 147.196 56.5971C146.855 56.4161 146.467 56.3256 146.03 56.3256C145.594 56.3256 145.205 56.4161 144.865 56.5971C144.524 56.7674 144.253 57.0122 144.05 57.3316C143.859 57.6403 143.763 58.0075 143.763 58.4333C143.763 58.8485 143.859 59.2157 144.05 59.5351C144.253 59.8544 144.524 60.1046 144.865 60.2855C145.205 60.4559 145.594 60.541 146.03 60.541Z" fill="black"/>
<path d="M158.779 63V52.7809L159.896 53.8986H156.543V51.8228H161.365V63H158.779ZM167.107 63.1916C166.33 63.1916 165.559 63.0905 164.792 62.8882C164.036 62.6753 163.387 62.3773 162.844 61.9941L163.866 60.0141C164.292 60.3228 164.781 60.5676 165.335 60.7486C165.899 60.9296 166.469 61.02 167.044 61.02C167.693 61.02 168.204 60.8923 168.576 60.6368C168.949 60.3813 169.135 60.0247 169.135 59.567C169.135 59.2796 169.061 59.0241 168.912 58.8006C168.763 58.577 168.497 58.4067 168.113 58.2896C167.741 58.1725 167.214 58.114 166.533 58.114H163.674L164.249 51.8228H171.067V53.8986H165.175L166.517 52.717L166.117 57.2038L164.776 56.0222H167.139C168.246 56.0222 169.135 56.1766 169.806 56.4853C170.487 56.7834 170.982 57.1932 171.291 57.7148C171.6 58.2364 171.754 58.8272 171.754 59.4872C171.754 60.1472 171.589 60.7592 171.259 61.3234C170.929 61.877 170.418 62.3294 169.726 62.6807C169.045 63.0213 168.172 63.1916 167.107 63.1916ZM177.594 63.1916C176.678 63.1916 175.858 62.9681 175.135 62.521C174.411 62.0632 173.841 61.4033 173.426 60.541C173.011 59.6788 172.803 58.6356 172.803 57.4114C172.803 56.1872 173.011 55.144 173.426 54.2818C173.841 53.4196 174.411 52.7649 175.135 52.3178C175.858 51.8601 176.678 51.6312 177.594 51.6312C178.52 51.6312 179.339 51.8601 180.053 52.3178C180.776 52.7649 181.346 53.4196 181.761 54.2818C182.176 55.144 182.384 56.1872 182.384 57.4114C182.384 58.6356 182.176 59.6788 181.761 60.541C181.346 61.4033 180.776 62.0632 180.053 62.521C179.339 62.9681 178.52 63.1916 177.594 63.1916ZM177.594 61.0041C178.03 61.0041 178.408 60.8817 178.727 60.6368C179.057 60.392 179.313 60.0034 179.494 59.4712C179.685 58.939 179.781 58.2524 179.781 57.4114C179.781 56.5705 179.685 55.8839 179.494 55.3516C179.313 54.8194 179.057 54.4308 178.727 54.186C178.408 53.9412 178.03 53.8187 177.594 53.8187C177.168 53.8187 176.79 53.9412 176.46 54.186C176.141 54.4308 175.885 54.8194 175.693 55.3516C175.513 55.8839 175.422 56.5705 175.422 57.4114C175.422 58.2524 175.513 58.939 175.693 59.4712C175.885 60.0034 176.141 60.392 176.46 60.6368C176.79 60.8817 177.168 61.0041 177.594 61.0041ZM185.253 63L192.886 51.8228H194.786L187.153 63H185.253ZM186.227 57.8585C185.684 57.8585 185.205 57.7361 184.79 57.4912C184.375 57.2358 184.045 56.8792 183.8 56.4214C183.566 55.9531 183.449 55.4048 183.449 54.7768C183.449 54.1487 183.566 53.6058 183.8 53.1481C184.045 52.6904 184.375 52.3338 184.79 52.0783C185.205 51.8228 185.684 51.6951 186.227 51.6951C186.77 51.6951 187.249 51.8228 187.664 52.0783C188.08 52.3338 188.404 52.6904 188.638 53.1481C188.873 53.6058 188.99 54.1487 188.99 54.7768C188.99 55.4048 188.873 55.9531 188.638 56.4214C188.404 56.8792 188.08 57.2358 187.664 57.4912C187.249 57.7361 186.77 57.8585 186.227 57.8585ZM186.227 56.5492C186.579 56.5492 186.861 56.4055 187.074 56.118C187.287 55.82 187.393 55.3729 187.393 54.7768C187.393 54.1807 187.287 53.7389 187.074 53.4515C186.861 53.1534 186.579 53.0044 186.227 53.0044C185.887 53.0044 185.605 53.1534 185.381 53.4515C185.168 53.7389 185.062 54.1807 185.062 54.7768C185.062 55.3623 185.168 55.804 185.381 56.1021C185.605 56.4001 185.887 56.5492 186.227 56.5492ZM193.812 63.1277C193.28 63.1277 192.801 63.0053 192.375 62.7605C191.96 62.505 191.635 62.1484 191.401 61.6907C191.167 61.2223 191.05 60.6741 191.05 60.046C191.05 59.418 191.167 58.8751 191.401 58.4174C191.635 57.9596 191.96 57.603 192.375 57.3475C192.801 57.0921 193.28 56.9643 193.812 56.9643C194.365 56.9643 194.85 57.0921 195.265 57.3475C195.68 57.603 196.005 57.9596 196.239 58.4174C196.473 58.8751 196.59 59.418 196.59 60.046C196.59 60.6741 196.473 61.2223 196.239 61.6907C196.005 62.1484 195.68 62.505 195.265 62.7605C194.85 63.0053 194.365 63.1277 193.812 63.1277ZM193.812 61.8184C194.163 61.8184 194.445 61.6747 194.658 61.3873C194.871 61.0892 194.978 60.6421 194.978 60.046C194.978 59.4606 194.871 59.0188 194.658 58.7207C194.445 58.4227 194.163 58.2736 193.812 58.2736C193.471 58.2736 193.189 58.4227 192.966 58.7207C192.753 59.0081 192.646 59.4499 192.646 60.046C192.646 60.6421 192.753 61.0892 192.966 61.3873C193.189 61.6747 193.471 61.8184 193.812 61.8184ZM207.77 63.1277C207.046 63.1277 206.413 62.9681 205.87 62.6487C205.327 62.3294 204.901 61.845 204.592 61.1957C204.294 60.5357 204.145 59.7054 204.145 58.7048C204.145 57.6935 204.289 56.8632 204.576 56.2139C204.864 55.5645 205.279 55.0802 205.822 54.7608C206.365 54.4415 207.014 54.2818 207.77 54.2818C208.579 54.2818 209.303 54.4681 209.941 54.8407C210.591 55.2026 211.102 55.7135 211.474 56.3735C211.858 57.0335 212.049 57.8106 212.049 58.7048C212.049 59.6096 211.858 60.392 211.474 61.052C211.102 61.712 210.591 62.2229 209.941 62.5848C209.303 62.9468 208.579 63.1277 207.77 63.1277ZM202.692 66.0977V54.4095H205.071V56.1659L205.023 58.7207L205.183 61.2596V66.0977H202.692ZM207.339 61.0839C207.754 61.0839 208.121 60.9881 208.441 60.7965C208.771 60.6049 209.031 60.3334 209.223 59.9822C209.425 59.6202 209.526 59.1944 209.526 58.7048C209.526 58.2045 209.425 57.7787 209.223 57.4274C209.031 57.0761 208.771 56.8046 208.441 56.613C208.121 56.4214 207.754 56.3256 207.339 56.3256C206.924 56.3256 206.551 56.4214 206.221 56.613C205.891 56.8046 205.63 57.0761 205.439 57.4274C205.247 57.7787 205.151 58.2045 205.151 58.7048C205.151 59.1944 205.247 59.6202 205.439 59.9822C205.63 60.3334 205.891 60.6049 206.221 60.7965C206.551 60.9881 206.924 61.0839 207.339 61.0839ZM214.565 63.1277C214.139 63.1277 213.772 62.984 213.463 62.6966C213.165 62.3986 213.016 62.0207 213.016 61.5629C213.016 61.1052 213.165 60.738 213.463 60.4612C213.772 60.1738 214.139 60.0301 214.565 60.0301C215.002 60.0301 215.369 60.1738 215.667 60.4612C215.965 60.738 216.114 61.1052 216.114 61.5629C216.114 62.0207 215.965 62.3986 215.667 62.6966C215.369 62.984 215.002 63.1277 214.565 63.1277ZM223.227 63V61.3234L223.068 60.9562V57.9543C223.068 57.4221 222.903 57.0069 222.573 56.7088C222.253 56.4108 221.758 56.2618 221.088 56.2618C220.63 56.2618 220.177 56.3363 219.73 56.4853C219.294 56.6237 218.921 56.8153 218.613 57.0601L217.718 55.3197C218.187 54.9897 218.751 54.7342 219.411 54.5532C220.071 54.3723 220.742 54.2818 221.423 54.2818C222.732 54.2818 223.749 54.5905 224.473 55.2079C225.197 55.8253 225.558 56.7887 225.558 58.098V63H223.227ZM220.609 63.1277C219.938 63.1277 219.363 63.016 218.884 62.7924C218.405 62.5582 218.038 62.2442 217.782 61.8503C217.527 61.4565 217.399 61.0147 217.399 60.5251C217.399 60.0141 217.522 59.567 217.766 59.1838C218.022 58.8006 218.421 58.5025 218.964 58.2896C219.507 58.0661 220.215 57.9543 221.088 57.9543H223.371V59.4073H221.359C220.774 59.4073 220.369 59.5031 220.145 59.6947C219.933 59.8864 219.826 60.1259 219.826 60.4133C219.826 60.7326 219.949 60.9881 220.193 61.1797C220.449 61.3607 220.795 61.4512 221.231 61.4512C221.646 61.4512 222.019 61.3554 222.349 61.1637C222.679 60.9615 222.918 60.6688 223.068 60.2855L223.451 61.4352C223.27 61.9887 222.94 62.4092 222.461 62.6966C221.982 62.984 221.364 63.1277 220.609 63.1277ZM228.755 63.1277C228.329 63.1277 227.962 62.984 227.653 62.6966C227.355 62.3986 227.206 62.0207 227.206 61.5629C227.206 61.1052 227.355 60.738 227.653 60.4612C227.962 60.1738 228.329 60.0301 228.755 60.0301C229.191 60.0301 229.559 60.1738 229.857 60.4612C230.155 60.738 230.304 61.1052 230.304 61.5629C230.304 62.0207 230.155 62.3986 229.857 62.6966C229.559 62.984 229.191 63.1277 228.755 63.1277Z" fill="#006A0B"/>
<path d="M45.5807 57.5H42.7474L40.6224 63.875L36.3724 51.125L34.2474 57.5H31.4141" stroke="black" stroke-width="2" stroke-linecap="round" stroke-linejoin="round"/>
</g>
<defs>
<filter id="filter0_d_423_5811" x="0.35506" y="0.35506" width="261.79" height="204.528" filterUnits="userSpaceOnUse" color-interpolation-filters="sRGB">
<feFlood flood-opacity="0" result="BackgroundImageFix"/>
<feColorMatrix in="SourceAlpha" type="matrix" values="0 0 0 0 0 0 0 0 0 0 0 0 0 0 0 0 0 0 127 0" result="hardAlpha"/>
<feOffset/>
<feGaussianBlur stdDeviation="5.32247"/>
<feComposite in2="hardAlpha" operator="out"/>
<feColorMatrix type="matrix" values="0 0 0 0 0 0 0 0 0 0 0 0 0 0 0 0 0 0 0.25 0"/>
<feBlend mode="normal" in2="BackgroundImageFix" result="effect1_dropShadow_423_5811"/>
<feBlend mode="normal" in="SourceGraphic" in2="effect1_dropShadow_423_5811" result="shape"/>
</filter>
</defs>
</svg>
