<svg width="413" height="154" viewBox="0 0 413 154" fill="none" xmlns="http://www.w3.org/2000/svg">
<g filter="url(#filter0_d_423_5983)">
<rect x="17" y="17" width="378.498" height="119.746" rx="16.7477" fill="white"/>
<path d="M47.32 44.82H50.69V46.08H47.32V44.82ZM47.44 47.7H51.25V49H45.83V42H51.12V43.3H47.44V47.7ZM55.699 43.54C56.1257 43.54 56.5057 43.6267 56.839 43.8C57.179 43.9667 57.4457 44.2267 57.639 44.58C57.8323 44.9267 57.929 45.3733 57.929 45.92V49H56.369V46.16C56.369 45.7267 56.2723 45.4067 56.079 45.2C55.8923 44.9933 55.6257 44.89 55.279 44.89C55.0323 44.89 54.809 44.9433 54.609 45.05C54.4157 45.15 54.2623 45.3067 54.149 45.52C54.0423 45.7333 53.989 46.0067 53.989 46.34V49H52.429V43.62H53.919V45.11L53.639 44.66C53.8323 44.3 54.109 44.0233 54.469 43.83C54.829 43.6367 55.239 43.54 55.699 43.54ZM62.0521 49.08C61.4388 49.08 60.8988 48.96 60.4321 48.72C59.9721 48.48 59.6154 48.1533 59.3621 47.74C59.1088 47.32 58.9821 46.8433 58.9821 46.31C58.9821 45.77 59.1054 45.2933 59.3521 44.88C59.6054 44.46 59.9488 44.1333 60.3821 43.9C60.8154 43.66 61.3054 43.54 61.8521 43.54C62.3788 43.54 62.8521 43.6533 63.2721 43.88C63.6988 44.1 64.0354 44.42 64.2821 44.84C64.5288 45.2533 64.6521 45.75 64.6521 46.33C64.6521 46.39 64.6488 46.46 64.6421 46.54C64.6354 46.6133 64.6288 46.6833 64.6221 46.75H60.2521V45.84H63.8021L63.2021 46.11C63.2021 45.83 63.1454 45.5867 63.0321 45.38C62.9188 45.1733 62.7621 45.0133 62.5621 44.9C62.3621 44.78 62.1288 44.72 61.8621 44.72C61.5954 44.72 61.3588 44.78 61.1521 44.9C60.9521 45.0133 60.7954 45.1767 60.6821 45.39C60.5688 45.5967 60.5121 45.8433 60.5121 46.13V46.37C60.5121 46.6633 60.5754 46.9233 60.7021 47.15C60.8354 47.37 61.0188 47.54 61.2521 47.66C61.4921 47.7733 61.7721 47.83 62.0921 47.83C62.3788 47.83 62.6288 47.7867 62.8421 47.7C63.0621 47.6133 63.2621 47.4833 63.4421 47.31L64.2721 48.21C64.0254 48.49 63.7154 48.7067 63.3421 48.86C62.9688 49.0067 62.5388 49.08 62.0521 49.08ZM65.6907 49V43.62H67.1807V45.14L66.9707 44.7C67.1307 44.32 67.3874 44.0333 67.7407 43.84C68.094 43.64 68.524 43.54 69.0307 43.54V44.98C68.964 44.9733 68.904 44.97 68.8507 44.97C68.7974 44.9633 68.7407 44.96 68.6807 44.96C68.254 44.96 67.9074 45.0833 67.6407 45.33C67.3807 45.57 67.2507 45.9467 67.2507 46.46V49H65.6907ZM72.4492 51.02C71.9426 51.02 71.4526 50.9567 70.9792 50.83C70.5126 50.71 70.1226 50.5267 69.8092 50.28L70.4292 49.16C70.6559 49.3467 70.9426 49.4933 71.2892 49.6C71.6426 49.7133 71.9892 49.77 72.3292 49.77C72.8826 49.77 73.2826 49.6467 73.5292 49.4C73.7826 49.1533 73.9092 48.7867 73.9092 48.3V47.49L74.0092 46.14L73.9892 44.78V43.62H75.4692V48.1C75.4692 49.1 75.2092 49.8367 74.6892 50.31C74.1692 50.7833 73.4226 51.02 72.4492 51.02ZM72.2092 48.74C71.7092 48.74 71.2559 48.6333 70.8492 48.42C70.4492 48.2 70.1259 47.8967 69.8792 47.51C69.6392 47.1167 69.5192 46.66 69.5192 46.14C69.5192 45.6133 69.6392 45.1567 69.8792 44.77C70.1259 44.3767 70.4492 44.0733 70.8492 43.86C71.2559 43.6467 71.7092 43.54 72.2092 43.54C72.6626 43.54 73.0626 43.6333 73.4092 43.82C73.7559 44 74.0259 44.2833 74.2192 44.67C74.4126 45.05 74.5092 45.54 74.5092 46.14C74.5092 46.7333 74.4126 47.2233 74.2192 47.61C74.0259 47.99 73.7559 48.2733 73.4092 48.46C73.0626 48.6467 72.6626 48.74 72.2092 48.74ZM72.5192 47.46C72.7926 47.46 73.0359 47.4067 73.2492 47.3C73.4626 47.1867 73.6292 47.03 73.7492 46.83C73.8692 46.63 73.9292 46.4 73.9292 46.14C73.9292 45.8733 73.8692 45.6433 73.7492 45.45C73.6292 45.25 73.4626 45.0967 73.2492 44.99C73.0359 44.8767 72.7926 44.82 72.5192 44.82C72.2459 44.82 72.0026 44.8767 71.7892 44.99C71.5759 45.0967 71.4059 45.25 71.2792 45.45C71.1592 45.6433 71.0992 45.8733 71.0992 46.14C71.0992 46.4 71.1592 46.63 71.2792 46.83C71.4059 47.03 71.5759 47.1867 71.7892 47.3C72.0026 47.4067 72.2459 47.46 72.5192 47.46ZM77.6012 51.02C77.3212 51.02 77.0445 50.9767 76.7712 50.89C76.4978 50.8033 76.2745 50.6833 76.1012 50.53L76.6712 49.42C76.7912 49.5267 76.9278 49.61 77.0812 49.67C77.2412 49.73 77.3978 49.76 77.5512 49.76C77.7712 49.76 77.9445 49.7067 78.0712 49.6C78.2045 49.5 78.3245 49.33 78.4312 49.09L78.7112 48.43L78.8312 48.26L80.7612 43.62H82.2612L79.8312 49.33C79.6578 49.7633 79.4578 50.1033 79.2312 50.35C79.0112 50.5967 78.7645 50.77 78.4912 50.87C78.2245 50.97 77.9278 51.02 77.6012 51.02ZM78.5212 49.21L76.1212 43.62H77.7312L79.5912 48.12L78.5212 49.21ZM84.9198 49L88.0398 42H89.6398L92.7698 49H91.0698L88.5098 42.82H89.1498L86.5798 49H84.9198ZM86.4798 47.5L86.9098 46.27H90.5098L90.9498 47.5H86.4798ZM93.386 49V41.58H94.946V49H93.386ZM99.0638 49.08C98.4505 49.08 97.9105 48.96 97.4438 48.72C96.9838 48.48 96.6272 48.1533 96.3738 47.74C96.1205 47.32 95.9938 46.8433 95.9938 46.31C95.9938 45.77 96.1172 45.2933 96.3638 44.88C96.6172 44.46 96.9605 44.1333 97.3938 43.9C97.8272 43.66 98.3172 43.54 98.8638 43.54C99.3905 43.54 99.8638 43.6533 100.284 43.88C100.71 44.1 101.047 44.42 101.294 44.84C101.54 45.2533 101.664 45.75 101.664 46.33C101.664 46.39 101.66 46.46 101.654 46.54C101.647 46.6133 101.64 46.6833 101.634 46.75H97.2638V45.84H100.814L100.214 46.11C100.214 45.83 100.157 45.5867 100.044 45.38C99.9305 45.1733 99.7738 45.0133 99.5738 44.9C99.3738 44.78 99.1405 44.72 98.8738 44.72C98.6072 44.72 98.3705 44.78 98.1638 44.9C97.9638 45.0133 97.8072 45.1767 97.6938 45.39C97.5805 45.5967 97.5238 45.8433 97.5238 46.13V46.37C97.5238 46.6633 97.5872 46.9233 97.7138 47.15C97.8472 47.37 98.0305 47.54 98.2638 47.66C98.5038 47.7733 98.7838 47.83 99.1038 47.83C99.3905 47.83 99.6405 47.7867 99.8538 47.7C100.074 47.6133 100.274 47.4833 100.454 47.31L101.284 48.21C101.037 48.49 100.727 48.7067 100.354 48.86C99.9805 49.0067 99.5505 49.08 99.0638 49.08ZM102.702 49V43.62H104.192V45.14L103.982 44.7C104.142 44.32 104.399 44.0333 104.752 43.84C105.106 43.64 105.536 43.54 106.042 43.54V44.98C105.976 44.9733 105.916 44.97 105.862 44.97C105.809 44.9633 105.752 44.96 105.692 44.96C105.266 44.96 104.919 45.0833 104.652 45.33C104.392 45.57 104.262 45.9467 104.262 46.46V49H102.702ZM109.356 49.08C108.722 49.08 108.229 48.92 107.876 48.6C107.522 48.2733 107.346 47.79 107.346 47.15V42.43H108.906V47.13C108.906 47.3567 108.966 47.5333 109.086 47.66C109.206 47.78 109.369 47.84 109.576 47.84C109.822 47.84 110.032 47.7733 110.206 47.64L110.626 48.74C110.466 48.8533 110.272 48.94 110.046 49C109.826 49.0533 109.596 49.08 109.356 49.08ZM106.516 44.94V43.74H110.246V44.94H106.516Z" fill="black"/>
<path d="M99.112 81V76.424L99.704 77.992L94.776 69.8H97.528L101.304 76.088H99.72L103.512 69.8H106.056L101.128 77.992L101.704 76.424V81H99.112ZM110.107 81.128C109.19 81.128 108.374 80.936 107.659 80.552C106.955 80.168 106.395 79.6453 105.979 78.984C105.574 78.312 105.371 77.5493 105.371 76.696C105.371 75.832 105.574 75.0693 105.979 74.408C106.395 73.736 106.955 73.2133 107.659 72.84C108.374 72.456 109.19 72.264 110.107 72.264C111.014 72.264 111.825 72.456 112.539 72.84C113.254 73.2133 113.814 73.7307 114.219 74.392C114.625 75.0533 114.827 75.8213 114.827 76.696C114.827 77.5493 114.625 78.312 114.219 78.984C113.814 79.6453 113.254 80.168 112.539 80.552C111.825 80.936 111.014 81.128 110.107 81.128ZM110.107 79.08C110.523 79.08 110.897 78.984 111.227 78.792C111.558 78.6 111.819 78.328 112.011 77.976C112.203 77.6133 112.299 77.1867 112.299 76.696C112.299 76.1947 112.203 75.768 112.011 75.416C111.819 75.064 111.558 74.792 111.227 74.6C110.897 74.408 110.523 74.312 110.107 74.312C109.691 74.312 109.318 74.408 108.987 74.6C108.657 74.792 108.39 75.064 108.187 75.416C107.995 75.768 107.899 76.1947 107.899 76.696C107.899 77.1867 107.995 77.6133 108.187 77.976C108.39 78.328 108.657 78.6 108.987 78.792C109.318 78.984 109.691 79.08 110.107 79.08ZM120.128 81.128C119.413 81.128 118.773 80.9893 118.208 80.712C117.653 80.4347 117.221 80.0133 116.912 79.448C116.602 78.872 116.448 78.1413 116.448 77.256V72.392H118.944V76.888C118.944 77.6027 119.093 78.1307 119.392 78.472C119.701 78.8027 120.133 78.968 120.688 78.968C121.072 78.968 121.413 78.888 121.712 78.728C122.01 78.5573 122.245 78.3013 122.416 77.96C122.586 77.608 122.672 77.1707 122.672 76.648V72.392H125.168V81H122.8V78.632L123.232 79.32C122.944 79.9173 122.517 80.3707 121.952 80.68C121.397 80.9787 120.789 81.128 120.128 81.128ZM127.48 81V72.392H129.864V74.824L129.528 74.12C129.784 73.512 130.195 73.0533 130.76 72.744C131.325 72.424 132.013 72.264 132.824 72.264V74.568C132.717 74.5573 132.621 74.552 132.536 74.552C132.451 74.5413 132.36 74.536 132.264 74.536C131.581 74.536 131.027 74.7333 130.6 75.128C130.184 75.512 129.976 76.1147 129.976 76.936V81H127.48ZM142.534 81.128C141.819 81.128 141.179 80.9893 140.614 80.712C140.059 80.4347 139.627 80.0133 139.318 79.448C139.009 78.872 138.854 78.1413 138.854 77.256V72.392H141.35V76.888C141.35 77.6027 141.499 78.1307 141.798 78.472C142.107 78.8027 142.539 78.968 143.094 78.968C143.478 78.968 143.819 78.888 144.118 78.728C144.417 78.5573 144.651 78.3013 144.822 77.96C144.993 77.608 145.078 77.1707 145.078 76.648V72.392H147.574V81H145.206V78.632L145.638 79.32C145.35 79.9173 144.923 80.3707 144.358 80.68C143.803 80.9787 143.195 81.128 142.534 81.128ZM152.782 81.128C152.046 81.128 151.337 81.0427 150.654 80.872C149.982 80.6907 149.449 80.4667 149.054 80.2L149.886 78.408C150.281 78.6533 150.745 78.856 151.278 79.016C151.822 79.1653 152.356 79.24 152.878 79.24C153.454 79.24 153.86 79.1707 154.094 79.032C154.34 78.8933 154.462 78.7013 154.462 78.456C154.462 78.2533 154.366 78.104 154.174 78.008C153.993 77.9013 153.748 77.8213 153.438 77.768C153.129 77.7147 152.788 77.6613 152.414 77.608C152.052 77.5547 151.684 77.4853 151.31 77.4C150.937 77.304 150.596 77.1653 150.286 76.984C149.977 76.8027 149.726 76.5573 149.534 76.248C149.353 75.9387 149.262 75.5387 149.262 75.048C149.262 74.504 149.417 74.024 149.726 73.608C150.046 73.192 150.505 72.8667 151.102 72.632C151.7 72.3867 152.414 72.264 153.246 72.264C153.833 72.264 154.43 72.328 155.038 72.456C155.646 72.584 156.153 72.7707 156.558 73.016L155.726 74.792C155.31 74.5467 154.889 74.3813 154.462 74.296C154.046 74.2 153.641 74.152 153.246 74.152C152.692 74.152 152.286 74.2267 152.03 74.376C151.774 74.5253 151.646 74.7173 151.646 74.952C151.646 75.1653 151.737 75.3253 151.918 75.432C152.11 75.5387 152.361 75.624 152.67 75.688C152.98 75.752 153.316 75.8107 153.678 75.864C154.052 75.9067 154.425 75.976 154.798 76.072C155.172 76.168 155.508 76.3067 155.806 76.488C156.116 76.6587 156.366 76.8987 156.558 77.208C156.75 77.5067 156.846 77.9013 156.846 78.392C156.846 78.9253 156.686 79.4 156.366 79.816C156.046 80.2213 155.582 80.5413 154.974 80.776C154.377 81.0107 153.646 81.128 152.782 81.128ZM163.666 81V79.32L163.506 78.952V75.944C163.506 75.4107 163.341 74.9947 163.01 74.696C162.69 74.3973 162.194 74.248 161.522 74.248C161.064 74.248 160.61 74.3227 160.162 74.472C159.725 74.6107 159.352 74.8027 159.042 75.048L158.146 73.304C158.616 72.9733 159.181 72.7173 159.842 72.536C160.504 72.3547 161.176 72.264 161.858 72.264C163.17 72.264 164.189 72.5733 164.914 73.192C165.64 73.8107 166.002 74.776 166.002 76.088V81H163.666ZM161.042 81.128C160.37 81.128 159.794 81.016 159.314 80.792C158.834 80.5573 158.466 80.2427 158.21 79.848C157.954 79.4533 157.826 79.0107 157.826 78.52C157.826 78.008 157.949 77.56 158.194 77.176C158.45 76.792 158.85 76.4933 159.394 76.28C159.938 76.056 160.648 75.944 161.522 75.944H163.81V77.4H161.794C161.208 77.4 160.802 77.496 160.578 77.688C160.365 77.88 160.258 78.12 160.258 78.408C160.258 78.728 160.381 78.984 160.626 79.176C160.882 79.3573 161.229 79.448 161.666 79.448C162.082 79.448 162.456 79.352 162.786 79.16C163.117 78.9573 163.357 78.664 163.506 78.28L163.89 79.432C163.709 79.9867 163.378 80.408 162.898 80.696C162.418 80.984 161.8 81.128 161.042 81.128ZM172.372 84.232C171.561 84.232 170.777 84.1307 170.02 83.928C169.273 83.736 168.649 83.4427 168.148 83.048L169.14 81.256C169.503 81.5547 169.961 81.7893 170.516 81.96C171.081 82.1413 171.636 82.232 172.18 82.232C173.065 82.232 173.705 82.0347 174.1 81.64C174.505 81.2453 174.708 80.6587 174.708 79.88V78.584L174.868 76.424L174.836 74.248V72.392H177.204V79.56C177.204 81.16 176.788 82.3387 175.956 83.096C175.124 83.8533 173.929 84.232 172.372 84.232ZM171.988 80.584C171.188 80.584 170.463 80.4133 169.812 80.072C169.172 79.72 168.655 79.2347 168.26 78.616C167.876 77.9867 167.684 77.256 167.684 76.424C167.684 75.5813 167.876 74.8507 168.26 74.232C168.655 73.6027 169.172 73.1173 169.812 72.776C170.463 72.4347 171.188 72.264 171.988 72.264C172.713 72.264 173.353 72.4133 173.908 72.712C174.463 73 174.895 73.4533 175.204 74.072C175.513 74.68 175.668 75.464 175.668 76.424C175.668 77.3733 175.513 78.1573 175.204 78.776C174.895 79.384 174.463 79.8373 173.908 80.136C173.353 80.4347 172.713 80.584 171.988 80.584ZM172.484 78.536C172.921 78.536 173.311 78.4507 173.652 78.28C173.993 78.0987 174.26 77.848 174.452 77.528C174.644 77.208 174.74 76.84 174.74 76.424C174.74 75.9973 174.644 75.6293 174.452 75.32C174.26 75 173.993 74.7547 173.652 74.584C173.311 74.4027 172.921 74.312 172.484 74.312C172.047 74.312 171.657 74.4027 171.316 74.584C170.975 74.7547 170.703 75 170.5 75.32C170.308 75.6293 170.212 75.9973 170.212 76.424C170.212 76.84 170.308 77.208 170.5 77.528C170.703 77.848 170.975 78.0987 171.316 78.28C171.657 78.4507 172.047 78.536 172.484 78.536ZM183.799 81.128C182.818 81.128 181.954 80.936 181.207 80.552C180.471 80.168 179.9 79.6453 179.495 78.984C179.09 78.312 178.887 77.5493 178.887 76.696C178.887 75.832 179.084 75.0693 179.479 74.408C179.884 73.736 180.434 73.2133 181.127 72.84C181.82 72.456 182.604 72.264 183.479 72.264C184.322 72.264 185.079 72.4453 185.751 72.808C186.434 73.16 186.972 73.672 187.367 74.344C187.762 75.0053 187.959 75.8 187.959 76.728C187.959 76.824 187.954 76.936 187.943 77.064C187.932 77.1813 187.922 77.2933 187.911 77.4H180.919V75.944H186.599L185.639 76.376C185.639 75.928 185.548 75.5387 185.367 75.208C185.186 74.8773 184.935 74.6213 184.615 74.44C184.295 74.248 183.922 74.152 183.495 74.152C183.068 74.152 182.69 74.248 182.359 74.44C182.039 74.6213 181.788 74.8827 181.607 75.224C181.426 75.5547 181.335 75.9493 181.335 76.408V76.792C181.335 77.2613 181.436 77.6773 181.639 78.04C181.852 78.392 182.146 78.664 182.519 78.856C182.903 79.0373 183.351 79.128 183.863 79.128C184.322 79.128 184.722 79.0587 185.063 78.92C185.415 78.7813 185.735 78.5733 186.023 78.296L187.351 79.736C186.956 80.184 186.46 80.5307 185.863 80.776C185.266 81.0107 184.578 81.128 183.799 81.128ZM194.152 81V72.392H196.648V81H194.152ZM195.4 71.192C194.941 71.192 194.568 71.0587 194.28 70.792C193.992 70.5253 193.848 70.1947 193.848 69.8C193.848 69.4053 193.992 69.0747 194.28 68.808C194.568 68.5413 194.941 68.408 195.4 68.408C195.859 68.408 196.232 68.536 196.52 68.792C196.808 69.0373 196.952 69.3573 196.952 69.752C196.952 70.168 196.808 70.5147 196.52 70.792C196.243 71.0587 195.869 71.192 195.4 71.192ZM204.197 72.264C204.879 72.264 205.487 72.4027 206.021 72.68C206.565 72.9467 206.991 73.3627 207.301 73.928C207.61 74.4827 207.765 75.1973 207.765 76.072V81H205.269V76.456C205.269 75.7627 205.114 75.2507 204.805 74.92C204.506 74.5893 204.079 74.424 203.525 74.424C203.13 74.424 202.773 74.5093 202.453 74.68C202.143 74.84 201.898 75.0907 201.717 75.432C201.546 75.7733 201.461 76.2107 201.461 76.744V81H198.965V72.392H201.349V74.776L200.901 74.056C201.21 73.48 201.653 73.0373 202.229 72.728C202.805 72.4187 203.461 72.264 204.197 72.264ZM214.25 81.128C213.322 81.128 212.495 80.9413 211.77 80.568C211.044 80.184 210.474 79.656 210.058 78.984C209.652 78.312 209.45 77.5493 209.45 76.696C209.45 75.832 209.652 75.0693 210.058 74.408C210.474 73.736 211.044 73.2133 211.77 72.84C212.495 72.456 213.322 72.264 214.25 72.264C215.156 72.264 215.946 72.456 216.618 72.84C217.29 73.2133 217.786 73.752 218.106 74.456L216.17 75.496C215.946 75.0907 215.663 74.792 215.322 74.6C214.991 74.408 214.628 74.312 214.234 74.312C213.807 74.312 213.423 74.408 213.082 74.6C212.74 74.792 212.468 75.064 212.266 75.416C212.074 75.768 211.978 76.1947 211.978 76.696C211.978 77.1973 212.074 77.624 212.266 77.976C212.468 78.328 212.74 78.6 213.082 78.792C213.423 78.984 213.807 79.08 214.234 79.08C214.628 79.08 214.991 78.9893 215.322 78.808C215.663 78.616 215.946 78.312 216.17 77.896L218.106 78.952C217.786 79.6453 217.29 80.184 216.618 80.568C215.946 80.9413 215.156 81.128 214.25 81.128ZM219.543 81V72.392H221.927V74.824L221.591 74.12C221.847 73.512 222.257 73.0533 222.823 72.744C223.388 72.424 224.076 72.264 224.887 72.264V74.568C224.78 74.5573 224.684 74.552 224.599 74.552C224.513 74.5413 224.423 74.536 224.327 74.536C223.644 74.536 223.089 74.7333 222.663 75.128C222.247 75.512 222.039 76.1147 222.039 76.936V81H219.543ZM230.58 81.128C229.599 81.128 228.735 80.936 227.988 80.552C227.252 80.168 226.682 79.6453 226.276 78.984C225.871 78.312 225.668 77.5493 225.668 76.696C225.668 75.832 225.866 75.0693 226.26 74.408C226.666 73.736 227.215 73.2133 227.908 72.84C228.602 72.456 229.386 72.264 230.26 72.264C231.103 72.264 231.86 72.4453 232.532 72.808C233.215 73.16 233.754 73.672 234.148 74.344C234.543 75.0053 234.74 75.8 234.74 76.728C234.74 76.824 234.735 76.936 234.724 77.064C234.714 77.1813 234.703 77.2933 234.692 77.4H227.7V75.944H233.38L232.42 76.376C232.42 75.928 232.33 75.5387 232.148 75.208C231.967 74.8773 231.716 74.6213 231.396 74.44C231.076 74.248 230.703 74.152 230.276 74.152C229.85 74.152 229.471 74.248 229.14 74.44C228.82 74.6213 228.57 74.8827 228.388 75.224C228.207 75.5547 228.116 75.9493 228.116 76.408V76.792C228.116 77.2613 228.218 77.6773 228.42 78.04C228.634 78.392 228.927 78.664 229.3 78.856C229.684 79.0373 230.132 79.128 230.644 79.128C231.103 79.128 231.503 79.0587 231.844 78.92C232.196 78.7813 232.516 78.5733 232.804 78.296L234.132 79.736C233.738 80.184 233.242 80.5307 232.644 80.776C232.047 81.0107 231.359 81.128 230.58 81.128ZM241.448 81V79.32L241.288 78.952V75.944C241.288 75.4107 241.122 74.9947 240.792 74.696C240.472 74.3973 239.976 74.248 239.304 74.248C238.845 74.248 238.392 74.3227 237.944 74.472C237.506 74.6107 237.133 74.8027 236.824 75.048L235.928 73.304C236.397 72.9733 236.962 72.7173 237.624 72.536C238.285 72.3547 238.957 72.264 239.64 72.264C240.952 72.264 241.97 72.5733 242.696 73.192C243.421 73.8107 243.784 74.776 243.784 76.088V81H241.448ZM238.824 81.128C238.152 81.128 237.576 81.016 237.096 80.792C236.616 80.5573 236.248 80.2427 235.992 79.848C235.736 79.4533 235.608 79.0107 235.608 78.52C235.608 78.008 235.73 77.56 235.976 77.176C236.232 76.792 236.632 76.4933 237.176 76.28C237.72 76.056 238.429 75.944 239.304 75.944H241.592V77.4H239.576C238.989 77.4 238.584 77.496 238.36 77.688C238.146 77.88 238.04 78.12 238.04 78.408C238.04 78.728 238.162 78.984 238.408 79.176C238.664 79.3573 239.01 79.448 239.448 79.448C239.864 79.448 240.237 79.352 240.568 79.16C240.898 78.9573 241.138 78.664 241.288 78.28L241.672 79.432C241.49 79.9867 241.16 80.408 240.68 80.696C240.2 80.984 239.581 81.128 238.824 81.128ZM248.939 81.128C248.203 81.128 247.493 81.0427 246.811 80.872C246.139 80.6907 245.605 80.4667 245.211 80.2L246.043 78.408C246.437 78.6533 246.901 78.856 247.435 79.016C247.979 79.1653 248.512 79.24 249.035 79.24C249.611 79.24 250.016 79.1707 250.251 79.032C250.496 78.8933 250.619 78.7013 250.619 78.456C250.619 78.2533 250.523 78.104 250.331 78.008C250.149 77.9013 249.904 77.8213 249.595 77.768C249.285 77.7147 248.944 77.6613 248.571 77.608C248.208 77.5547 247.84 77.4853 247.467 77.4C247.093 77.304 246.752 77.1653 246.443 76.984C246.133 76.8027 245.883 76.5573 245.691 76.248C245.509 75.9387 245.419 75.5387 245.419 75.048C245.419 74.504 245.573 74.024 245.883 73.608C246.203 73.192 246.661 72.8667 247.259 72.632C247.856 72.3867 248.571 72.264 249.403 72.264C249.989 72.264 250.587 72.328 251.195 72.456C251.803 72.584 252.309 72.7707 252.715 73.016L251.883 74.792C251.467 74.5467 251.045 74.3813 250.619 74.296C250.203 74.2 249.797 74.152 249.403 74.152C248.848 74.152 248.443 74.2267 248.187 74.376C247.931 74.5253 247.803 74.7173 247.803 74.952C247.803 75.1653 247.893 75.3253 248.075 75.432C248.267 75.5387 248.517 75.624 248.827 75.688C249.136 75.752 249.472 75.8107 249.835 75.864C250.208 75.9067 250.581 75.976 250.955 76.072C251.328 76.168 251.664 76.3067 251.963 76.488C252.272 76.6587 252.523 76.8987 252.715 77.208C252.907 77.5067 253.003 77.9013 253.003 78.392C253.003 78.9253 252.843 79.4 252.523 79.816C252.203 80.2213 251.739 80.5413 251.131 80.776C250.533 81.0107 249.803 81.128 248.939 81.128ZM258.815 81.128C257.833 81.128 256.969 80.936 256.223 80.552C255.487 80.168 254.916 79.6453 254.511 78.984C254.105 78.312 253.903 77.5493 253.903 76.696C253.903 75.832 254.1 75.0693 254.495 74.408C254.9 73.736 255.449 73.2133 256.143 72.84C256.836 72.456 257.62 72.264 258.495 72.264C259.337 72.264 260.095 72.4453 260.767 72.808C261.449 73.16 261.988 73.672 262.383 74.344C262.777 75.0053 262.975 75.8 262.975 76.728C262.975 76.824 262.969 76.936 262.959 77.064C262.948 77.1813 262.937 77.2933 262.927 77.4H255.935V75.944H261.615L260.655 76.376C260.655 75.928 260.564 75.5387 260.383 75.208C260.201 74.8773 259.951 74.6213 259.631 74.44C259.311 74.248 258.937 74.152 258.511 74.152C258.084 74.152 257.705 74.248 257.375 74.44C257.055 74.6213 256.804 74.8827 256.623 75.224C256.441 75.5547 256.351 75.9493 256.351 76.408V76.792C256.351 77.2613 256.452 77.6773 256.655 78.04C256.868 78.392 257.161 78.664 257.535 78.856C257.919 79.0373 258.367 79.128 258.879 79.128C259.337 79.128 259.737 79.0587 260.079 78.92C260.431 78.7813 260.751 78.5733 261.039 78.296L262.367 79.736C261.972 80.184 261.476 80.5307 260.879 80.776C260.281 81.0107 259.593 81.128 258.815 81.128ZM268.332 81.128C267.522 81.128 266.791 80.9467 266.14 80.584C265.49 80.2107 264.972 79.6933 264.588 79.032C264.215 78.3707 264.028 77.592 264.028 76.696C264.028 75.7893 264.215 75.0053 264.588 74.344C264.972 73.6827 265.49 73.1707 266.14 72.808C266.791 72.4453 267.522 72.264 268.332 72.264C269.058 72.264 269.692 72.424 270.236 72.744C270.78 73.064 271.202 73.5493 271.5 74.2C271.799 74.8507 271.948 75.6827 271.948 76.696C271.948 77.6987 271.804 78.5307 271.516 79.192C271.228 79.8427 270.812 80.328 270.268 80.648C269.735 80.968 269.09 81.128 268.332 81.128ZM268.764 79.08C269.17 79.08 269.538 78.984 269.868 78.792C270.199 78.6 270.46 78.328 270.652 77.976C270.855 77.6133 270.956 77.1867 270.956 76.696C270.956 76.1947 270.855 75.768 270.652 75.416C270.46 75.064 270.199 74.792 269.868 74.6C269.538 74.408 269.17 74.312 268.764 74.312C268.348 74.312 267.975 74.408 267.644 74.6C267.314 74.792 267.047 75.064 266.844 75.416C266.652 75.768 266.556 76.1947 266.556 76.696C266.556 77.1867 266.652 77.6133 266.844 77.976C267.047 78.328 267.314 78.6 267.644 78.792C267.975 78.984 268.348 79.08 268.764 79.08ZM271.02 81V79.24L271.068 76.68L270.908 74.136V69.128H273.404V81H271.02ZM281.446 81V70.76L282.566 71.88H279.206V69.8H284.038V81H281.446ZM287.711 81V70.76L288.831 71.88H285.471V69.8H290.303V81H287.711ZM297.049 81.192C296.132 81.192 295.31 80.968 294.585 80.52C293.86 80.0613 293.289 79.4 292.873 78.536C292.457 77.672 292.249 76.6267 292.249 75.4C292.249 74.1733 292.457 73.128 292.873 72.264C293.289 71.4 293.86 70.744 294.585 70.296C295.31 69.8373 296.132 69.608 297.049 69.608C297.977 69.608 298.798 69.8373 299.513 70.296C300.238 70.744 300.809 71.4 301.225 72.264C301.641 73.128 301.849 74.1733 301.849 75.4C301.849 76.6267 301.641 77.672 301.225 78.536C300.809 79.4 300.238 80.0613 299.513 80.52C298.798 80.968 297.977 81.192 297.049 81.192ZM297.049 79C297.486 79 297.865 78.8773 298.185 78.632C298.516 78.3867 298.772 77.9973 298.953 77.464C299.145 76.9307 299.241 76.2427 299.241 75.4C299.241 74.5573 299.145 73.8693 298.953 73.336C298.772 72.8027 298.516 72.4133 298.185 72.168C297.865 71.9227 297.486 71.8 297.049 71.8C296.622 71.8 296.244 71.9227 295.913 72.168C295.593 72.4133 295.337 72.8027 295.145 73.336C294.964 73.8693 294.873 74.5573 294.873 75.4C294.873 76.2427 294.964 76.9307 295.145 77.464C295.337 77.9973 295.593 78.3867 295.913 78.632C296.244 78.8773 296.622 79 297.049 79ZM304.724 81L312.372 69.8H314.276L306.628 81H304.724ZM305.7 75.848C305.156 75.848 304.676 75.7253 304.26 75.48C303.844 75.224 303.514 74.8667 303.268 74.408C303.034 73.9387 302.916 73.3893 302.916 72.76C302.916 72.1307 303.034 71.5867 303.268 71.128C303.514 70.6693 303.844 70.312 304.26 70.056C304.676 69.8 305.156 69.672 305.7 69.672C306.244 69.672 306.724 69.8 307.14 70.056C307.556 70.312 307.882 70.6693 308.116 71.128C308.351 71.5867 308.468 72.1307 308.468 72.76C308.468 73.3893 308.351 73.9387 308.116 74.408C307.882 74.8667 307.556 75.224 307.14 75.48C306.724 75.7253 306.244 75.848 305.7 75.848ZM305.7 74.536C306.052 74.536 306.335 74.392 306.548 74.104C306.762 73.8053 306.868 73.3573 306.868 72.76C306.868 72.1627 306.762 71.72 306.548 71.432C306.335 71.1333 306.052 70.984 305.7 70.984C305.359 70.984 305.076 71.1333 304.852 71.432C304.639 71.72 304.532 72.1627 304.532 72.76C304.532 73.3467 304.639 73.7893 304.852 74.088C305.076 74.3867 305.359 74.536 305.7 74.536ZM313.3 81.128C312.767 81.128 312.287 81.0053 311.86 80.76C311.444 80.504 311.119 80.1467 310.884 79.688C310.65 79.2187 310.532 78.6693 310.532 78.04C310.532 77.4107 310.65 76.8667 310.884 76.408C311.119 75.9493 311.444 75.592 311.86 75.336C312.287 75.08 312.767 74.952 313.3 74.952C313.855 74.952 314.34 75.08 314.756 75.336C315.172 75.592 315.498 75.9493 315.732 76.408C315.967 76.8667 316.084 77.4107 316.084 78.04C316.084 78.6693 315.967 79.2187 315.732 79.688C315.498 80.1467 315.172 80.504 314.756 80.76C314.34 81.0053 313.855 81.128 313.3 81.128ZM313.3 79.816C313.652 79.816 313.935 79.672 314.148 79.384C314.362 79.0853 314.468 78.6373 314.468 78.04C314.468 77.4533 314.362 77.0107 314.148 76.712C313.935 76.4133 313.652 76.264 313.3 76.264C312.959 76.264 312.676 76.4133 312.452 76.712C312.239 77 312.132 77.4427 312.132 78.04C312.132 78.6373 312.239 79.0853 312.452 79.384C312.676 79.672 312.959 79.816 313.3 79.816ZM100.248 101.128C99.3307 101.128 98.5147 100.936 97.8 100.552C97.096 100.168 96.536 99.6453 96.12 98.984C95.7147 98.312 95.512 97.5493 95.512 96.696C95.512 95.832 95.7147 95.0693 96.12 94.408C96.536 93.736 97.096 93.2133 97.8 92.84C98.5147 92.456 99.3307 92.264 100.248 92.264C101.155 92.264 101.965 92.456 102.68 92.84C103.395 93.2133 103.955 93.7307 104.36 94.392C104.765 95.0533 104.968 95.8213 104.968 96.696C104.968 97.5493 104.765 98.312 104.36 98.984C103.955 99.6453 103.395 100.168 102.68 100.552C101.965 100.936 101.155 101.128 100.248 101.128ZM100.248 99.08C100.664 99.08 101.037 98.984 101.368 98.792C101.699 98.6 101.96 98.328 102.152 97.976C102.344 97.6133 102.44 97.1867 102.44 96.696C102.44 96.1947 102.344 95.768 102.152 95.416C101.96 95.064 101.699 94.792 101.368 94.6C101.037 94.408 100.664 94.312 100.248 94.312C99.832 94.312 99.4587 94.408 99.128 94.6C98.7973 94.792 98.5307 95.064 98.328 95.416C98.136 95.768 98.04 96.1947 98.04 96.696C98.04 97.1867 98.136 97.6133 98.328 97.976C98.5307 98.328 98.7973 98.6 99.128 98.792C99.4587 98.984 99.832 99.08 100.248 99.08ZM108.738 101L105.122 92.392H107.698L110.706 99.8H109.426L112.546 92.392H114.946L111.314 101H108.738ZM120.002 101.128C119.021 101.128 118.157 100.936 117.41 100.552C116.674 100.168 116.103 99.6453 115.698 98.984C115.293 98.312 115.09 97.5493 115.09 96.696C115.09 95.832 115.287 95.0693 115.682 94.408C116.087 93.736 116.637 93.2133 117.33 92.84C118.023 92.456 118.807 92.264 119.682 92.264C120.525 92.264 121.282 92.4453 121.954 92.808C122.637 93.16 123.175 93.672 123.57 94.344C123.965 95.0053 124.162 95.8 124.162 96.728C124.162 96.824 124.157 96.936 124.146 97.064C124.135 97.1813 124.125 97.2933 124.114 97.4H117.122V95.944H122.802L121.842 96.376C121.842 95.928 121.751 95.5387 121.57 95.208C121.389 94.8773 121.138 94.6213 120.818 94.44C120.498 94.248 120.125 94.152 119.698 94.152C119.271 94.152 118.893 94.248 118.562 94.44C118.242 94.6213 117.991 94.8827 117.81 95.224C117.629 95.5547 117.538 95.9493 117.538 96.408V96.792C117.538 97.2613 117.639 97.6773 117.842 98.04C118.055 98.392 118.349 98.664 118.722 98.856C119.106 99.0373 119.554 99.128 120.066 99.128C120.525 99.128 120.925 99.0587 121.266 98.92C121.618 98.7813 121.938 98.5733 122.226 98.296L123.554 99.736C123.159 100.184 122.663 100.531 122.066 100.776C121.469 101.011 120.781 101.128 120.002 101.128ZM125.824 101V92.392H128.208V94.824L127.872 94.12C128.128 93.512 128.539 93.0533 129.104 92.744C129.669 92.424 130.357 92.264 131.168 92.264V94.568C131.061 94.5573 130.965 94.552 130.88 94.552C130.795 94.5413 130.704 94.536 130.608 94.536C129.925 94.536 129.371 94.7333 128.944 95.128C128.528 95.512 128.32 96.1147 128.32 96.936V101H125.824ZM137.9 92.264C138.582 92.264 139.19 92.4027 139.724 92.68C140.268 92.9467 140.694 93.3627 141.004 93.928C141.313 94.4827 141.468 95.1973 141.468 96.072V101H138.972V96.456C138.972 95.7627 138.817 95.2507 138.508 94.92C138.209 94.5893 137.782 94.424 137.228 94.424C136.833 94.424 136.476 94.5093 136.156 94.68C135.846 94.84 135.601 95.0907 135.42 95.432C135.249 95.7733 135.164 96.2107 135.164 96.744V101H132.668V92.392H135.052V94.776L134.604 94.056C134.913 93.48 135.356 93.0373 135.932 92.728C136.508 92.4187 137.164 92.264 137.9 92.264ZM143.73 101V92.392H146.226V101H143.73ZM144.978 91.192C144.519 91.192 144.146 91.0587 143.858 90.792C143.57 90.5253 143.426 90.1947 143.426 89.8C143.426 89.4053 143.57 89.0747 143.858 88.808C144.146 88.5413 144.519 88.408 144.978 88.408C145.437 88.408 145.81 88.536 146.098 88.792C146.386 89.0373 146.53 89.3573 146.53 89.752C146.53 90.168 146.386 90.5147 146.098 90.792C145.821 91.0587 145.447 91.192 144.978 91.192ZM152.591 104.232C151.78 104.232 150.996 104.131 150.239 103.928C149.492 103.736 148.868 103.443 148.367 103.048L149.359 101.256C149.721 101.555 150.18 101.789 150.735 101.96C151.3 102.141 151.855 102.232 152.399 102.232C153.284 102.232 153.924 102.035 154.319 101.64C154.724 101.245 154.927 100.659 154.927 99.88V98.584L155.087 96.424L155.055 94.248V92.392H157.423V99.56C157.423 101.16 157.007 102.339 156.175 103.096C155.343 103.853 154.148 104.232 152.591 104.232ZM152.207 100.584C151.407 100.584 150.681 100.413 150.031 100.072C149.391 99.72 148.873 99.2347 148.479 98.616C148.095 97.9867 147.903 97.256 147.903 96.424C147.903 95.5813 148.095 94.8507 148.479 94.232C148.873 93.6027 149.391 93.1173 150.031 92.776C150.681 92.4347 151.407 92.264 152.207 92.264C152.932 92.264 153.572 92.4133 154.127 92.712C154.681 93 155.113 93.4533 155.423 94.072C155.732 94.68 155.887 95.464 155.887 96.424C155.887 97.3733 155.732 98.1573 155.423 98.776C155.113 99.384 154.681 99.8373 154.127 100.136C153.572 100.435 152.932 100.584 152.207 100.584ZM152.703 98.536C153.14 98.536 153.529 98.4507 153.871 98.28C154.212 98.0987 154.479 97.848 154.671 97.528C154.863 97.208 154.959 96.84 154.959 96.424C154.959 95.9973 154.863 95.6293 154.671 95.32C154.479 95 154.212 94.7547 153.871 94.584C153.529 94.4027 153.14 94.312 152.703 94.312C152.265 94.312 151.876 94.4027 151.535 94.584C151.193 94.7547 150.921 95 150.719 95.32C150.527 95.6293 150.431 95.9973 150.431 96.424C150.431 96.84 150.527 97.208 150.719 97.528C150.921 97.848 151.193 98.0987 151.535 98.28C151.876 98.4507 152.265 98.536 152.703 98.536ZM164.978 92.264C165.66 92.264 166.268 92.4027 166.802 92.68C167.346 92.9467 167.772 93.3627 168.082 93.928C168.391 94.4827 168.546 95.1973 168.546 96.072V101H166.05V96.456C166.05 95.7627 165.895 95.2507 165.586 94.92C165.287 94.5893 164.86 94.424 164.306 94.424C163.911 94.424 163.554 94.5093 163.234 94.68C162.924 94.84 162.679 95.0907 162.498 95.432C162.327 95.7733 162.242 96.2107 162.242 96.744V101H159.746V89.128H162.242V94.776L161.682 94.056C161.991 93.48 162.434 93.0373 163.01 92.728C163.586 92.4187 164.242 92.264 164.978 92.264ZM174.328 101.128C173.315 101.128 172.526 100.872 171.96 100.36C171.395 99.8373 171.112 99.064 171.112 98.04V90.488H173.608V98.008C173.608 98.3707 173.704 98.6533 173.896 98.856C174.088 99.048 174.35 99.144 174.68 99.144C175.075 99.144 175.411 99.0373 175.688 98.824L176.36 100.584C176.104 100.765 175.795 100.904 175.432 101C175.08 101.085 174.712 101.128 174.328 101.128ZM169.784 94.504V92.584H175.752V94.504H169.784Z" fill="black"/>
<path d="M64.9974 97.3332C72.3612 97.3332 78.3307 91.3636 78.3307 83.9998C78.3307 76.636 72.3612 70.6665 64.9974 70.6665C57.6336 70.6665 51.6641 76.636 51.6641 83.9998C51.6641 91.3636 57.6336 97.3332 64.9974 97.3332Z" stroke="#C28236" stroke-width="2.66667" stroke-linecap="round" stroke-linejoin="round"/>
<path d="M65 78.6665V83.9998" stroke="#C28236" stroke-width="2.66667" stroke-linecap="round" stroke-linejoin="round"/>
<path d="M65 89.3335H65.0125" stroke="#C28236" stroke-width="2.66667" stroke-linecap="round" stroke-linejoin="round"/>
</g>
<defs>
<filter id="filter0_d_423_5983" x="0.252279" y="0.252279" width="411.995" height="153.242" filterUnits="userSpaceOnUse" color-interpolation-filters="sRGB">
<feFlood flood-opacity="0" result="BackgroundImageFix"/>
<feColorMatrix in="SourceAlpha" type="matrix" values="0 0 0 0 0 0 0 0 0 0 0 0 0 0 0 0 0 0 127 0" result="hardAlpha"/>
<feOffset/>
<feGaussianBlur stdDeviation="8.37386"/>
<feComposite in2="hardAlpha" operator="out"/>
<feColorMatrix type="matrix" values="0 0 0 0 0 0 0 0 0 0 0 0 0 0 0 0 0 0 0.25 0"/>
<feBlend mode="normal" in2="BackgroundImageFix" result="effect1_dropShadow_423_5983"/>
<feBlend mode="normal" in="SourceGraphic" in2="effect1_dropShadow_423_5983" result="shape"/>
</filter>
</defs>
</svg>
