<svg width="422" height="506" viewBox="0 0 422 506" fill="none" xmlns="http://www.w3.org/2000/svg">
<path d="M4.58398 40.1797V48H2.77393V42.2207L0.990723 42.7417V41.3667L4.41748 40.1797H4.58398ZM12.415 46.6035V48H6.95801V46.8184L9.47168 44.1758C9.69368 43.9215 9.87272 43.6942 10.0088 43.4937C10.1449 43.2896 10.2433 43.1051 10.3042 42.9404C10.3687 42.7757 10.4009 42.6271 10.4009 42.4946C10.4009 42.269 10.3669 42.0811 10.2988 41.9307C10.2344 41.7767 10.1377 41.6603 10.0088 41.5815C9.88346 41.5028 9.7277 41.4634 9.5415 41.4634C9.35531 41.4634 9.19238 41.5171 9.05273 41.6245C8.91309 41.7319 8.80387 41.8787 8.7251 42.0649C8.6499 42.2511 8.6123 42.4606 8.6123 42.6934H6.79688C6.79688 42.2135 6.91325 41.7749 7.146 41.3774C7.38232 40.98 7.70996 40.6631 8.12891 40.4268C8.54785 40.1868 9.03304 40.0669 9.58447 40.0669C10.161 40.0669 10.6444 40.1564 11.0347 40.3354C11.425 40.5145 11.7186 40.7741 11.9155 41.1143C12.116 41.4508 12.2163 41.8573 12.2163 42.3335C12.2163 42.6056 12.1733 42.867 12.0874 43.1177C12.0015 43.3683 11.8779 43.6172 11.7168 43.8643C11.5557 44.1077 11.3587 44.3584 11.126 44.6162C10.8968 44.874 10.6354 45.1479 10.3418 45.438L9.33203 46.6035H12.415ZM16.7656 41.8232L14.8589 48H12.834L15.7075 40.1797H16.9912L16.7656 41.8232ZM18.3447 48L16.4326 41.8232L16.1855 40.1797H17.4854L20.375 48H18.3447ZM18.2695 45.0835V46.5391H14.2573V45.0835H18.2695ZM21.8843 40.1797H23.4204L25.166 45.6206L26.9116 40.1797H28.4478L25.7891 48H24.543L21.8843 40.1797ZM20.9497 40.1797H22.5396L22.835 46.1738V48H20.9497V40.1797ZM27.7925 40.1797H29.3877V48H27.4971V46.1738L27.7925 40.1797Z" fill="white"/>
<path d="M8.10205 200.657H8.20947C8.56755 200.657 8.88981 200.618 9.17627 200.539C9.46273 200.46 9.70801 200.339 9.91211 200.174C10.1162 200.006 10.272 199.789 10.3794 199.524C10.4904 199.255 10.5459 198.931 10.5459 198.552V196.935C10.5459 196.684 10.5244 196.468 10.4814 196.285C10.4385 196.099 10.3758 195.945 10.2935 195.823C10.2111 195.701 10.1126 195.612 9.99805 195.555C9.88346 195.494 9.75456 195.463 9.61133 195.463C9.4681 195.463 9.34098 195.505 9.22998 195.587C9.12256 195.666 9.02946 195.773 8.95068 195.909C8.87549 196.042 8.8182 196.192 8.77881 196.36C8.73942 196.525 8.71973 196.692 8.71973 196.86C8.71973 197.05 8.73942 197.227 8.77881 197.392C8.82178 197.553 8.88265 197.694 8.96143 197.816C9.04378 197.934 9.14583 198.027 9.26758 198.095C9.3929 198.163 9.53792 198.197 9.70264 198.197C9.86735 198.197 10.0088 198.169 10.127 198.111C10.2487 198.05 10.349 197.972 10.4277 197.875C10.5065 197.775 10.5638 197.667 10.5996 197.553C10.639 197.438 10.6569 197.325 10.6533 197.214L11.1797 197.628C11.1797 197.857 11.1278 198.083 11.0239 198.305C10.9201 198.527 10.7769 198.729 10.5942 198.912C10.4116 199.091 10.2004 199.234 9.96045 199.341C9.72412 199.449 9.47347 199.502 9.2085 199.502C8.854 199.502 8.53353 199.44 8.24707 199.314C7.96419 199.189 7.72249 199.01 7.52197 198.777C7.32145 198.545 7.16748 198.267 7.06006 197.945C6.95622 197.619 6.9043 197.257 6.9043 196.86C6.9043 196.477 6.97054 196.117 7.10303 195.78C7.23551 195.444 7.4235 195.148 7.66699 194.894C7.91048 194.636 8.19873 194.434 8.53174 194.287C8.86475 194.14 9.22998 194.067 9.62744 194.067C10.0034 194.067 10.3561 194.139 10.6855 194.282C11.015 194.421 11.305 194.627 11.5557 194.899C11.8063 195.172 12.0033 195.506 12.1465 195.904C12.2897 196.301 12.3613 196.756 12.3613 197.268V197.891C12.3613 198.446 12.2933 198.947 12.1572 199.395C12.0212 199.843 11.8278 200.236 11.5771 200.577C11.3265 200.913 11.0293 201.196 10.6855 201.425C10.3454 201.651 9.96761 201.821 9.55225 201.936C9.14046 202.05 8.70361 202.107 8.2417 202.107H8.10205V200.657ZM16.7656 195.823L14.8589 202H12.834L15.7075 194.18H16.9912L16.7656 195.823ZM18.3447 202L16.4326 195.823L16.1855 194.18H17.4854L20.375 202H18.3447ZM18.2695 199.083V200.539H14.2573V199.083H18.2695ZM21.8843 194.18H23.4204L25.166 199.621L26.9116 194.18H28.4478L25.7891 202H24.543L21.8843 194.18ZM20.9497 194.18H22.5396L22.835 200.174V202H20.9497V194.18ZM27.7925 194.18H29.3877V202H27.4971V200.174L27.7925 194.18Z" fill="white"/>
<path d="M11.0347 148.067H11.3247V149.49H11.228C10.8807 149.49 10.5549 149.539 10.2505 149.635C9.94971 149.732 9.68473 149.879 9.45557 150.076C9.22998 150.269 9.05273 150.514 8.92383 150.812C8.7985 151.109 8.73584 151.458 8.73584 151.859V153.229C8.73584 153.479 8.75732 153.698 8.80029 153.884C8.84326 154.07 8.90771 154.224 8.99365 154.346C9.07959 154.467 9.18522 154.559 9.31055 154.62C9.43945 154.681 9.58805 154.711 9.75635 154.711C9.896 154.711 10.0249 154.679 10.1431 154.614C10.2612 154.55 10.3633 154.458 10.4492 154.34C10.5387 154.222 10.6068 154.084 10.6533 153.927C10.6999 153.769 10.7231 153.597 10.7231 153.411C10.7231 153.211 10.6981 153.03 10.6479 152.869C10.5978 152.708 10.5262 152.571 10.4331 152.46C10.3436 152.346 10.2344 152.26 10.1055 152.203C9.98014 152.142 9.84229 152.111 9.69189 152.111C9.46273 152.111 9.26758 152.163 9.10645 152.267C8.94889 152.367 8.82894 152.496 8.74658 152.654C8.66781 152.811 8.62842 152.971 8.62842 153.132L8.19336 152.691C8.1862 152.477 8.22738 152.255 8.31689 152.025C8.40641 151.796 8.54069 151.583 8.71973 151.386C8.89876 151.189 9.12256 151.03 9.39111 150.908C9.65967 150.786 9.97119 150.726 10.3257 150.726C10.6838 150.726 10.9989 150.794 11.271 150.93C11.5467 151.066 11.7777 151.256 11.9639 151.499C12.1536 151.743 12.2969 152.027 12.3936 152.353C12.4902 152.679 12.5386 153.032 12.5386 153.411C12.5386 153.794 12.4705 154.151 12.3345 154.48C12.202 154.806 12.014 155.09 11.7705 155.334C11.527 155.577 11.2388 155.767 10.9058 155.903C10.5728 156.039 10.2057 156.107 9.80469 156.107C9.3929 156.107 9.01156 156.038 8.66064 155.898C8.31331 155.755 8.00895 155.549 7.74756 155.28C7.48975 155.008 7.28743 154.677 7.14062 154.287C6.9974 153.896 6.92578 153.454 6.92578 152.96V152.299C6.92578 151.63 7.03499 151.034 7.25342 150.511C7.47542 149.988 7.7762 149.546 8.15576 149.184C8.5389 148.819 8.97754 148.541 9.47168 148.352C9.96582 148.162 10.4868 148.067 11.0347 148.067ZM16.7656 149.823L14.8589 156H12.834L15.7075 148.18H16.9912L16.7656 149.823ZM18.3447 156L16.4326 149.823L16.1855 148.18H17.4854L20.375 156H18.3447ZM18.2695 153.083V154.539H14.2573V153.083H18.2695ZM21.8843 148.18H23.4204L25.166 153.621L26.9116 148.18H28.4478L25.7891 156H24.543L21.8843 148.18ZM20.9497 148.18H22.5396L22.835 154.174V156H20.9497V148.18ZM27.7925 148.18H29.3877V156H27.4971V154.174L27.7925 148.18Z" fill="white"/>
<path d="M12.8608 336.944V338.34H7.23193L7.12451 337.234L10.2666 332.18H11.6953L10.1431 334.72L8.854 336.944H12.8608ZM12.0713 332.18V340H10.2612V332.18H12.0713ZM16.9053 337.347H14.9609V335.891H16.9053C17.1702 335.891 17.3851 335.846 17.5498 335.757C17.7145 335.667 17.8345 335.544 17.9097 335.386C17.9884 335.225 18.0278 335.044 18.0278 334.844C18.0278 334.629 17.9884 334.43 17.9097 334.248C17.8345 334.065 17.7145 333.918 17.5498 333.807C17.3851 333.693 17.1702 333.635 16.9053 333.635H15.6699V340H13.7847V332.18H16.9053C17.5319 332.18 18.0708 332.294 18.522 332.523C18.9767 332.753 19.3258 333.068 19.5693 333.469C19.8128 333.866 19.9346 334.321 19.9346 334.833C19.9346 335.338 19.8128 335.778 19.5693 336.154C19.3258 336.53 18.9767 336.824 18.522 337.035C18.0708 337.243 17.5319 337.347 16.9053 337.347ZM21.8843 332.18H23.4204L25.166 337.621L26.9116 332.18H28.4478L25.7891 340H24.543L21.8843 332.18ZM20.9497 332.18H22.5396L22.835 338.174V340H20.9497V332.18ZM27.7925 332.18H29.3877V340H27.4971V338.174L27.7925 332.18Z" fill="white"/>
<path d="M4.58398 224.18V232H2.77393V226.221L0.990723 226.742V225.367L4.41748 224.18H4.58398ZM12.3882 227.375V228.804C12.3882 229.366 12.3219 229.855 12.1895 230.271C12.0605 230.686 11.8743 231.03 11.6309 231.302C11.391 231.574 11.1045 231.776 10.7715 231.909C10.4385 232.041 10.0715 232.107 9.67041 232.107C9.34814 232.107 9.04736 232.066 8.76807 231.984C8.48877 231.898 8.23633 231.769 8.01074 231.597C7.78874 231.422 7.59717 231.203 7.43604 230.942C7.2749 230.681 7.15137 230.373 7.06543 230.018C6.97949 229.66 6.93652 229.255 6.93652 228.804V227.375C6.93652 226.81 7.00098 226.321 7.12988 225.909C7.26237 225.494 7.45036 225.15 7.69385 224.878C7.93734 224.606 8.22559 224.403 8.55859 224.271C8.8916 224.139 9.25863 224.072 9.65967 224.072C9.98193 224.072 10.2809 224.115 10.5566 224.201C10.8359 224.284 11.0884 224.412 11.314 224.588C11.5396 224.76 11.7311 224.976 11.8887 225.238C12.0498 225.499 12.1733 225.809 12.2593 226.167C12.3452 226.521 12.3882 226.924 12.3882 227.375ZM10.5781 229.024V227.145C10.5781 226.894 10.5638 226.675 10.5352 226.489C10.5101 226.303 10.4707 226.146 10.417 226.017C10.3669 225.888 10.3042 225.784 10.229 225.705C10.1538 225.623 10.0679 225.564 9.97119 225.528C9.87809 225.488 9.77425 225.469 9.65967 225.469C9.51644 225.469 9.38753 225.499 9.27295 225.56C9.16195 225.617 9.06706 225.71 8.98828 225.839C8.90951 225.968 8.84863 226.14 8.80566 226.355C8.76628 226.57 8.74658 226.833 8.74658 227.145V229.024C8.74658 229.279 8.75911 229.501 8.78418 229.69C8.81283 229.877 8.85221 230.036 8.90234 230.168C8.95605 230.297 9.02051 230.403 9.0957 230.485C9.1709 230.564 9.25684 230.621 9.35352 230.657C9.4502 230.693 9.55583 230.711 9.67041 230.711C9.81006 230.711 9.93538 230.682 10.0464 230.625C10.1574 230.568 10.2523 230.475 10.3311 230.346C10.4134 230.213 10.4743 230.04 10.5137 229.825C10.5566 229.606 10.5781 229.34 10.5781 229.024ZM16.7656 225.823L14.8589 232H12.834L15.7075 224.18H16.9912L16.7656 225.823ZM18.3447 232L16.4326 225.823L16.1855 224.18H17.4854L20.375 232H18.3447ZM18.2695 229.083V230.539H14.2573V229.083H18.2695ZM21.8843 224.18H23.4204L25.166 229.621L26.9116 224.18H28.4478L25.7891 232H24.543L21.8843 224.18ZM20.9497 224.18H22.5396L22.835 230.174V232H20.9497V224.18ZM27.7925 224.18H29.3877V232H27.4971V230.174L27.7925 224.18Z" fill="white"/>
<path d="M8.83789 366.514L7.39844 366.176L7.87109 362.18H12.4419V363.587H9.34814L9.1709 365.139C9.25684 365.089 9.40186 365.03 9.60596 364.962C9.81364 364.89 10.0428 364.854 10.2935 364.854C10.6802 364.854 11.0221 364.914 11.3193 365.032C11.6201 365.146 11.8743 365.316 12.082 365.542C12.2897 365.764 12.4455 366.038 12.5493 366.364C12.6567 366.69 12.7104 367.062 12.7104 367.481C12.7104 367.818 12.6549 368.143 12.5439 368.458C12.4365 368.77 12.27 369.051 12.0444 369.302C11.8224 369.549 11.5413 369.746 11.2012 369.893C10.861 370.036 10.4582 370.107 9.99268 370.107C9.64535 370.107 9.30697 370.054 8.97754 369.946C8.64811 369.839 8.35091 369.685 8.08594 369.484C7.82454 369.28 7.61686 369.035 7.46289 368.749C7.3125 368.458 7.2391 368.134 7.24268 367.776H9.06348C9.07422 367.966 9.11898 368.131 9.19775 368.271C9.27653 368.41 9.38216 368.519 9.51465 368.598C9.65072 368.673 9.80648 368.711 9.98193 368.711C10.161 368.711 10.3096 368.675 10.4277 368.604C10.5459 368.532 10.639 368.433 10.707 368.308C10.7751 368.183 10.8234 368.04 10.8521 367.878C10.8807 367.714 10.895 367.54 10.895 367.357C10.895 367.164 10.8735 366.99 10.8306 366.836C10.7912 366.682 10.7267 366.552 10.6372 366.444C10.5477 366.333 10.4313 366.249 10.2881 366.192C10.1484 366.135 9.98014 366.106 9.7832 366.106C9.52181 366.106 9.31592 366.151 9.16553 366.24C9.01514 366.33 8.90592 366.421 8.83789 366.514ZM16.9053 367.347H14.9609V365.891H16.9053C17.1702 365.891 17.3851 365.846 17.5498 365.757C17.7145 365.667 17.8345 365.544 17.9097 365.386C17.9884 365.225 18.0278 365.044 18.0278 364.844C18.0278 364.629 17.9884 364.43 17.9097 364.248C17.8345 364.065 17.7145 363.918 17.5498 363.807C17.3851 363.693 17.1702 363.635 16.9053 363.635H15.6699V370H13.7847V362.18H16.9053C17.5319 362.18 18.0708 362.294 18.522 362.523C18.9767 362.753 19.3258 363.068 19.5693 363.469C19.8128 363.866 19.9346 364.321 19.9346 364.833C19.9346 365.338 19.8128 365.778 19.5693 366.154C19.3258 366.53 18.9767 366.824 18.522 367.035C18.0708 367.243 17.5319 367.347 16.9053 367.347ZM21.8843 362.18H23.4204L25.166 367.621L26.9116 362.18H28.4478L25.7891 370H24.543L21.8843 362.18ZM20.9497 362.18H22.5396L22.835 368.174V370H20.9497V362.18ZM27.7925 362.18H29.3877V370H27.4971V368.174L27.7925 362.18Z" fill="white"/>
<path d="M8.43506 428.657H8.54248C8.90055 428.657 9.22282 428.618 9.50928 428.539C9.79574 428.46 10.041 428.339 10.2451 428.174C10.4492 428.006 10.605 427.789 10.7124 427.524C10.8234 427.255 10.8789 426.931 10.8789 426.552V424.935C10.8789 424.684 10.8574 424.468 10.8145 424.285C10.7715 424.099 10.7088 423.945 10.6265 423.823C10.5441 423.701 10.4456 423.612 10.3311 423.555C10.2165 423.494 10.0876 423.463 9.94434 423.463C9.80111 423.463 9.67399 423.505 9.56299 423.587C9.45557 423.666 9.36247 423.773 9.28369 423.909C9.2085 424.042 9.1512 424.192 9.11182 424.36C9.07243 424.525 9.05273 424.692 9.05273 424.86C9.05273 425.05 9.07243 425.227 9.11182 425.392C9.15479 425.553 9.21566 425.694 9.29443 425.816C9.37679 425.934 9.47884 426.027 9.60059 426.095C9.72591 426.163 9.87093 426.197 10.0356 426.197C10.2004 426.197 10.3418 426.169 10.46 426.111C10.5817 426.05 10.682 425.972 10.7607 425.875C10.8395 425.775 10.8968 425.667 10.9326 425.553C10.972 425.438 10.9899 425.325 10.9863 425.214L11.5127 425.628C11.5127 425.857 11.4608 426.083 11.3569 426.305C11.2531 426.527 11.1099 426.729 10.9272 426.912C10.7446 427.091 10.5334 427.234 10.2935 427.341C10.0571 427.449 9.80648 427.502 9.5415 427.502C9.18701 427.502 8.86654 427.44 8.58008 427.314C8.2972 427.189 8.0555 427.01 7.85498 426.777C7.65446 426.545 7.50049 426.267 7.39307 425.945C7.28923 425.619 7.2373 425.257 7.2373 424.86C7.2373 424.477 7.30355 424.117 7.43604 423.78C7.56852 423.444 7.75651 423.148 8 422.894C8.24349 422.636 8.53174 422.434 8.86475 422.287C9.19775 422.14 9.56299 422.067 9.96045 422.067C10.3364 422.067 10.6891 422.139 11.0186 422.282C11.348 422.421 11.638 422.627 11.8887 422.899C12.1393 423.172 12.3363 423.506 12.4795 423.904C12.6227 424.301 12.6943 424.756 12.6943 425.268V425.891C12.6943 426.446 12.6263 426.947 12.4902 427.395C12.3542 427.843 12.1608 428.236 11.9102 428.577C11.6595 428.913 11.3623 429.196 11.0186 429.425C10.6784 429.651 10.3006 429.821 9.88525 429.936C9.47347 430.05 9.03662 430.107 8.57471 430.107H8.43506V428.657ZM16.9053 427.347H14.9609V425.891H16.9053C17.1702 425.891 17.3851 425.846 17.5498 425.757C17.7145 425.667 17.8345 425.544 17.9097 425.386C17.9884 425.225 18.0278 425.044 18.0278 424.844C18.0278 424.629 17.9884 424.43 17.9097 424.248C17.8345 424.065 17.7145 423.918 17.5498 423.807C17.3851 423.693 17.1702 423.635 16.9053 423.635H15.6699V430H13.7847V422.18H16.9053C17.5319 422.18 18.0708 422.294 18.522 422.523C18.9767 422.753 19.3258 423.068 19.5693 423.469C19.8128 423.866 19.9346 424.321 19.9346 424.833C19.9346 425.338 19.8128 425.778 19.5693 426.154C19.3258 426.53 18.9767 426.824 18.522 427.035C18.0708 427.243 17.5319 427.347 16.9053 427.347ZM21.8843 422.18H23.4204L25.166 427.621L26.9116 422.18H28.4478L25.7891 430H24.543L21.8843 422.18ZM20.9497 422.18H22.5396L22.835 428.174V430H20.9497V422.18ZM27.7925 422.18H29.3877V430H27.4971V428.174L27.7925 422.18Z" fill="white"/>
<rect x="40" width="382" height="29" rx="5" fill="#9747FF"/>
<path d="M184.928 9.7417H186.51L188.561 15.8413L190.606 9.7417H192.188L189.2 18.2729H187.917L184.928 9.7417ZM184.014 9.7417H185.626L185.924 16.064V18.2729H184.014V9.7417ZM191.491 9.7417H193.108V18.2729H191.192V16.064L191.491 9.7417ZM194.169 15.1675V15.0444C194.169 14.5796 194.235 14.1519 194.368 13.7612C194.501 13.3667 194.696 13.0249 194.954 12.7358C195.212 12.4468 195.528 12.2222 195.903 12.062C196.278 11.8979 196.708 11.8159 197.192 11.8159C197.684 11.8159 198.118 11.8979 198.493 12.062C198.872 12.2222 199.19 12.4468 199.448 12.7358C199.706 13.0249 199.901 13.3667 200.034 13.7612C200.167 14.1519 200.233 14.5796 200.233 15.0444V15.1675C200.233 15.6284 200.167 16.0562 200.034 16.4507C199.901 16.8413 199.706 17.1831 199.448 17.4761C199.19 17.7651 198.874 17.9897 198.499 18.1499C198.124 18.3101 197.692 18.3901 197.204 18.3901C196.719 18.3901 196.288 18.3101 195.909 18.1499C195.53 17.9897 195.212 17.7651 194.954 17.4761C194.696 17.1831 194.501 16.8413 194.368 16.4507C194.235 16.0562 194.169 15.6284 194.169 15.1675ZM196.003 15.0444V15.1675C196.003 15.4175 196.022 15.6519 196.061 15.8706C196.104 16.0894 196.173 16.2808 196.266 16.4448C196.36 16.6089 196.483 16.7378 196.635 16.8315C196.792 16.9214 196.981 16.9663 197.204 16.9663C197.426 16.9663 197.614 16.9214 197.766 16.8315C197.919 16.7378 198.042 16.6089 198.135 16.4448C198.229 16.2808 198.296 16.0894 198.335 15.8706C198.378 15.6519 198.399 15.4175 198.399 15.1675V15.0444C198.399 14.7983 198.378 14.5679 198.335 14.353C198.296 14.1343 198.229 13.9409 198.135 13.7729C198.042 13.605 197.917 13.4741 197.76 13.3804C197.608 13.2866 197.419 13.2397 197.192 13.2397C196.973 13.2397 196.788 13.2866 196.635 13.3804C196.483 13.4741 196.36 13.605 196.266 13.7729C196.173 13.9409 196.104 14.1343 196.061 14.353C196.022 14.5679 196.003 14.7983 196.003 15.0444ZM202.987 13.2866V18.2729H201.153V11.9331H202.876L202.987 13.2866ZM202.747 14.8804L202.29 14.8921C202.29 14.4155 202.348 13.9878 202.466 13.6089C202.583 13.23 202.749 12.9077 202.964 12.6421C203.182 12.3726 203.442 12.1675 203.743 12.0269C204.048 11.8862 204.383 11.8159 204.751 11.8159C205.048 11.8159 205.319 11.8589 205.565 11.9448C205.811 12.0308 206.022 12.1694 206.198 12.3608C206.378 12.5483 206.514 12.7983 206.608 13.1108C206.702 13.4194 206.749 13.8003 206.749 14.2534V18.2729H204.909V14.2476C204.909 13.9819 204.872 13.7769 204.798 13.6323C204.723 13.4878 204.614 13.3862 204.469 13.3276C204.329 13.269 204.157 13.2397 203.954 13.2397C203.739 13.2397 203.555 13.2827 203.403 13.3687C203.251 13.4507 203.126 13.5659 203.028 13.7144C202.93 13.8628 202.858 14.0366 202.811 14.2358C202.768 14.4351 202.747 14.6499 202.747 14.8804ZM211.635 16.855V9.27295H213.475V18.2729H211.823L211.635 16.855ZM207.686 15.1792V15.0562C207.686 14.5757 207.739 14.1382 207.844 13.7437C207.954 13.3452 208.112 13.0034 208.319 12.7183C208.53 12.4292 208.79 12.2065 209.098 12.0503C209.407 11.894 209.76 11.8159 210.159 11.8159C210.526 11.8159 210.846 11.8979 211.12 12.062C211.393 12.2222 211.626 12.4487 211.817 12.7417C212.012 13.0308 212.171 13.3726 212.292 13.7671C212.413 14.1577 212.505 14.5815 212.567 15.0386V15.2495C212.508 15.687 212.417 16.0952 212.292 16.4741C212.171 16.853 212.012 17.187 211.817 17.4761C211.626 17.7612 211.391 17.9858 211.114 18.1499C210.841 18.3101 210.518 18.3901 210.147 18.3901C209.749 18.3901 209.395 18.3101 209.087 18.1499C208.782 17.9897 208.526 17.7651 208.319 17.4761C208.112 17.187 207.954 16.8472 207.844 16.4565C207.739 16.0659 207.686 15.6401 207.686 15.1792ZM209.514 15.0562V15.1792C209.514 15.4292 209.532 15.6616 209.567 15.8765C209.606 16.0913 209.669 16.2808 209.755 16.4448C209.841 16.6089 209.954 16.7378 210.094 16.8315C210.235 16.9214 210.407 16.9663 210.61 16.9663C210.883 16.9663 211.108 16.9038 211.284 16.7788C211.46 16.6499 211.592 16.4722 211.682 16.2456C211.772 16.019 211.819 15.7554 211.823 15.4546V14.8394C211.823 14.5894 211.798 14.3647 211.747 14.1655C211.696 13.9663 211.62 13.7983 211.518 13.6616C211.421 13.5249 211.298 13.4214 211.149 13.3511C211.001 13.2769 210.825 13.2397 210.622 13.2397C210.423 13.2397 210.253 13.2866 210.112 13.3804C209.971 13.4702 209.856 13.5972 209.766 13.7612C209.68 13.9253 209.616 14.1187 209.573 14.3413C209.534 14.5601 209.514 14.7983 209.514 15.0562ZM218.051 16.7612V14.0425C218.051 13.8511 218.022 13.687 217.964 13.5503C217.905 13.4136 217.813 13.3062 217.688 13.228C217.563 13.1499 217.401 13.1108 217.202 13.1108C217.034 13.1108 216.887 13.1401 216.762 13.1987C216.641 13.2573 216.548 13.3413 216.481 13.4507C216.419 13.5601 216.387 13.6948 216.387 13.855H214.559C214.559 13.5698 214.624 13.3042 214.753 13.0581C214.882 12.812 215.065 12.5952 215.303 12.4077C215.546 12.2202 215.835 12.0757 216.171 11.9741C216.507 11.8687 216.883 11.8159 217.301 11.8159C217.798 11.8159 218.239 11.8999 218.626 12.0679C219.016 12.2319 219.325 12.48 219.551 12.812C219.778 13.1401 219.891 13.5542 219.891 14.0542V16.7085C219.891 17.0913 219.913 17.3921 219.956 17.6108C220.003 17.8257 220.069 18.0132 220.155 18.1733V18.2729H218.309C218.223 18.0894 218.159 17.8628 218.116 17.5933C218.073 17.3198 218.051 17.0425 218.051 16.7612ZM218.28 14.4058L218.292 15.4136H217.383C217.18 15.4136 217.005 15.439 216.856 15.4897C216.712 15.5405 216.594 15.6108 216.505 15.7007C216.415 15.7866 216.348 15.8882 216.305 16.0054C216.266 16.1187 216.247 16.2437 216.247 16.3804C216.247 16.5093 216.278 16.6265 216.341 16.7319C216.403 16.8335 216.489 16.9136 216.598 16.9722C216.708 17.0308 216.835 17.0601 216.979 17.0601C217.217 17.0601 217.421 17.0132 217.589 16.9194C217.76 16.8257 217.893 16.7124 217.987 16.5796C218.081 16.4429 218.128 16.3159 218.128 16.1987L218.567 16.9604C218.497 17.1167 218.411 17.2788 218.309 17.4468C218.208 17.6108 218.079 17.7651 217.923 17.9097C217.766 18.0503 217.577 18.1655 217.354 18.2554C217.135 18.3452 216.872 18.3901 216.563 18.3901C216.165 18.3901 215.803 18.3101 215.479 18.1499C215.155 17.9858 214.895 17.7612 214.7 17.4761C214.508 17.1909 214.413 16.8628 214.413 16.4917C214.413 16.1597 214.473 15.8647 214.594 15.6069C214.716 15.3491 214.897 15.1304 215.139 14.9507C215.385 14.771 215.694 14.6362 216.065 14.5464C216.436 14.4526 216.87 14.4058 217.366 14.4058H218.28ZM222.909 17.5405L224.567 11.9331H226.536L223.987 19.2222C223.932 19.3823 223.858 19.5542 223.764 19.7378C223.674 19.9214 223.551 20.0972 223.395 20.2651C223.243 20.4331 223.048 20.5698 222.809 20.6753C222.571 20.7808 222.278 20.8335 221.93 20.8335C221.755 20.8335 221.618 20.8237 221.52 20.8042C221.426 20.7886 221.301 20.7612 221.145 20.7222L221.139 19.3921C221.19 19.3921 221.235 19.3921 221.274 19.3921C221.317 19.396 221.36 19.3979 221.403 19.3979C221.622 19.3979 221.798 19.3745 221.93 19.3276C222.067 19.2808 222.173 19.2104 222.247 19.1167C222.325 19.0269 222.387 18.9116 222.434 18.771L222.909 17.5405ZM222.352 11.9331L223.665 16.4448L223.887 18.3843L222.651 18.4487L220.383 11.9331H222.352ZM233.702 13.8901V15.3198H230.292V13.8901H233.702ZM242.684 16.0229C242.684 15.8784 242.663 15.7495 242.62 15.6362C242.577 15.519 242.499 15.4116 242.385 15.314C242.272 15.2163 242.112 15.1187 241.905 15.021C241.698 14.9194 241.426 14.8159 241.091 14.7104C240.708 14.5854 240.342 14.4448 239.995 14.2886C239.651 14.1284 239.344 13.9429 239.075 13.7319C238.805 13.521 238.592 13.2749 238.436 12.9937C238.284 12.7124 238.208 12.3843 238.208 12.0093C238.208 11.646 238.288 11.3179 238.448 11.0249C238.608 10.7319 238.833 10.4819 239.122 10.2749C239.411 10.064 239.751 9.90381 240.141 9.79443C240.532 9.68115 240.962 9.62451 241.43 9.62451C242.055 9.62451 242.604 9.73584 243.077 9.9585C243.553 10.1772 243.924 10.4858 244.19 10.8843C244.456 11.2788 244.589 11.7378 244.589 12.2612H242.69C242.69 12.0308 242.641 11.8276 242.544 11.6519C242.45 11.4722 242.305 11.3315 242.11 11.23C241.919 11.1284 241.678 11.0776 241.389 11.0776C241.108 11.0776 240.872 11.1206 240.68 11.2065C240.493 11.2886 240.35 11.4019 240.253 11.5464C240.159 11.6909 240.112 11.8491 240.112 12.021C240.112 12.1577 240.147 12.2827 240.217 12.396C240.292 12.5054 240.397 12.6089 240.534 12.7065C240.674 12.8003 240.846 12.8901 241.049 12.9761C241.253 13.062 241.485 13.144 241.747 13.2222C242.204 13.3667 242.608 13.5269 242.96 13.7026C243.315 13.8784 243.614 14.0776 243.856 14.3003C244.098 14.5229 244.28 14.7749 244.401 15.0562C244.526 15.3374 244.589 15.6558 244.589 16.0112C244.589 16.3901 244.514 16.7261 244.366 17.019C244.221 17.312 244.01 17.562 243.733 17.769C243.46 17.9722 243.132 18.1265 242.749 18.2319C242.366 18.3374 241.938 18.3901 241.466 18.3901C241.036 18.3901 240.612 18.3354 240.194 18.2261C239.776 18.1128 239.397 17.9409 239.057 17.7104C238.721 17.48 238.452 17.187 238.249 16.8315C238.049 16.4722 237.95 16.0464 237.95 15.5542H239.86C239.86 15.812 239.897 16.0308 239.971 16.2104C240.046 16.3862 240.151 16.5288 240.288 16.6382C240.428 16.7476 240.598 16.8257 240.798 16.8726C240.997 16.9194 241.219 16.9429 241.466 16.9429C241.751 16.9429 241.981 16.9038 242.157 16.8257C242.337 16.7437 242.469 16.6323 242.555 16.4917C242.641 16.3511 242.684 16.1948 242.684 16.0229ZM249.341 16.7437V11.9331H251.18V18.2729H249.458L249.341 16.7437ZM249.534 15.4487L250.038 15.437C250.038 15.8628 249.987 16.2554 249.885 16.6147C249.788 16.9741 249.639 17.2866 249.44 17.5522C249.245 17.8179 249.001 18.0249 248.708 18.1733C248.419 18.3179 248.081 18.3901 247.694 18.3901C247.382 18.3901 247.094 18.3472 246.833 18.2612C246.575 18.1714 246.352 18.0327 246.165 17.8452C245.977 17.6538 245.833 17.4097 245.731 17.1128C245.63 16.812 245.579 16.4526 245.579 16.0347V11.9331H247.407V16.0464C247.407 16.2104 247.426 16.3511 247.466 16.4683C247.508 16.5815 247.565 16.6753 247.635 16.7495C247.71 16.8237 247.799 16.8784 247.905 16.9136C248.014 16.9487 248.133 16.9663 248.262 16.9663C248.587 16.9663 248.841 16.8999 249.024 16.7671C249.212 16.6304 249.342 16.4487 249.417 16.2222C249.495 15.9917 249.534 15.7339 249.534 15.4487ZM254.163 13.2866V18.2729H252.329V11.9331H254.051L254.163 13.2866ZM253.923 14.8804L253.466 14.8921C253.466 14.4155 253.524 13.9878 253.641 13.6089C253.758 13.23 253.924 12.9077 254.139 12.6421C254.358 12.3726 254.618 12.1675 254.919 12.0269C255.223 11.8862 255.559 11.8159 255.926 11.8159C256.223 11.8159 256.495 11.8589 256.741 11.9448C256.987 12.0308 257.198 12.1694 257.374 12.3608C257.553 12.5483 257.69 12.7983 257.784 13.1108C257.878 13.4194 257.924 13.8003 257.924 14.2534V18.2729H256.085V14.2476C256.085 13.9819 256.048 13.7769 255.973 13.6323C255.899 13.4878 255.79 13.3862 255.645 13.3276C255.505 13.269 255.333 13.2397 255.13 13.2397C254.915 13.2397 254.731 13.2827 254.579 13.3687C254.426 13.4507 254.301 13.5659 254.204 13.7144C254.106 13.8628 254.034 14.0366 253.987 14.2358C253.944 14.4351 253.923 14.6499 253.923 14.8804ZM262.811 16.855V9.27295H264.651V18.2729H262.999L262.811 16.855ZM258.862 15.1792V15.0562C258.862 14.5757 258.915 14.1382 259.02 13.7437C259.13 13.3452 259.288 13.0034 259.495 12.7183C259.706 12.4292 259.966 12.2065 260.274 12.0503C260.583 11.894 260.936 11.8159 261.335 11.8159C261.702 11.8159 262.022 11.8979 262.296 12.062C262.569 12.2222 262.801 12.4487 262.993 12.7417C263.188 13.0308 263.346 13.3726 263.467 13.7671C263.589 14.1577 263.68 14.5815 263.743 15.0386V15.2495C263.684 15.687 263.592 16.0952 263.467 16.4741C263.346 16.853 263.188 17.187 262.993 17.4761C262.801 17.7612 262.567 17.9858 262.29 18.1499C262.016 18.3101 261.694 18.3901 261.323 18.3901C260.924 18.3901 260.571 18.3101 260.262 18.1499C259.958 17.9897 259.702 17.7651 259.495 17.4761C259.288 17.187 259.13 16.8472 259.02 16.4565C258.915 16.0659 258.862 15.6401 258.862 15.1792ZM260.69 15.0562V15.1792C260.69 15.4292 260.708 15.6616 260.743 15.8765C260.782 16.0913 260.844 16.2808 260.93 16.4448C261.016 16.6089 261.13 16.7378 261.27 16.8315C261.411 16.9214 261.583 16.9663 261.786 16.9663C262.059 16.9663 262.284 16.9038 262.46 16.7788C262.635 16.6499 262.768 16.4722 262.858 16.2456C262.948 16.019 262.995 15.7554 262.999 15.4546V14.8394C262.999 14.5894 262.973 14.3647 262.923 14.1655C262.872 13.9663 262.796 13.7983 262.694 13.6616C262.596 13.5249 262.473 13.4214 262.325 13.3511C262.176 13.2769 262.001 13.2397 261.798 13.2397C261.598 13.2397 261.428 13.2866 261.288 13.3804C261.147 13.4702 261.032 13.5972 260.942 13.7612C260.856 13.9253 260.792 14.1187 260.749 14.3413C260.71 14.5601 260.69 14.7983 260.69 15.0562ZM269.227 16.7612V14.0425C269.227 13.8511 269.198 13.687 269.139 13.5503C269.081 13.4136 268.989 13.3062 268.864 13.228C268.739 13.1499 268.577 13.1108 268.378 13.1108C268.21 13.1108 268.063 13.1401 267.938 13.1987C267.817 13.2573 267.723 13.3413 267.657 13.4507C267.594 13.5601 267.563 13.6948 267.563 13.855H265.735C265.735 13.5698 265.799 13.3042 265.928 13.0581C266.057 12.812 266.241 12.5952 266.479 12.4077C266.721 12.2202 267.01 12.0757 267.346 11.9741C267.682 11.8687 268.059 11.8159 268.477 11.8159C268.973 11.8159 269.415 11.8999 269.801 12.0679C270.192 12.2319 270.501 12.48 270.727 12.812C270.954 13.1401 271.067 13.5542 271.067 14.0542V16.7085C271.067 17.0913 271.089 17.3921 271.132 17.6108C271.178 17.8257 271.245 18.0132 271.331 18.1733V18.2729H269.485C269.399 18.0894 269.335 17.8628 269.292 17.5933C269.249 17.3198 269.227 17.0425 269.227 16.7612ZM269.456 14.4058L269.467 15.4136H268.559C268.356 15.4136 268.18 15.439 268.032 15.4897C267.887 15.5405 267.77 15.6108 267.68 15.7007C267.591 15.7866 267.524 15.8882 267.481 16.0054C267.442 16.1187 267.423 16.2437 267.423 16.3804C267.423 16.5093 267.454 16.6265 267.516 16.7319C267.579 16.8335 267.665 16.9136 267.774 16.9722C267.883 17.0308 268.01 17.0601 268.155 17.0601C268.393 17.0601 268.596 17.0132 268.764 16.9194C268.936 16.8257 269.069 16.7124 269.163 16.5796C269.257 16.4429 269.303 16.3159 269.303 16.1987L269.743 16.9604C269.673 17.1167 269.587 17.2788 269.485 17.4468C269.383 17.6108 269.255 17.7651 269.098 17.9097C268.942 18.0503 268.753 18.1655 268.53 18.2554C268.311 18.3452 268.048 18.3901 267.739 18.3901C267.341 18.3901 266.979 18.3101 266.655 18.1499C266.331 17.9858 266.071 17.7612 265.876 17.4761C265.684 17.1909 265.589 16.8628 265.589 16.4917C265.589 16.1597 265.649 15.8647 265.77 15.6069C265.891 15.3491 266.073 15.1304 266.315 14.9507C266.561 14.771 266.87 14.6362 267.241 14.5464C267.612 14.4526 268.046 14.4058 268.542 14.4058H269.456ZM274.085 17.5405L275.743 11.9331H277.712L275.163 19.2222C275.108 19.3823 275.034 19.5542 274.94 19.7378C274.85 19.9214 274.727 20.0972 274.571 20.2651C274.419 20.4331 274.223 20.5698 273.985 20.6753C273.747 20.7808 273.454 20.8335 273.106 20.8335C272.93 20.8335 272.794 20.8237 272.696 20.8042C272.602 20.7886 272.477 20.7612 272.321 20.7222L272.315 19.3921C272.366 19.3921 272.411 19.3921 272.45 19.3921C272.493 19.396 272.536 19.3979 272.579 19.3979C272.798 19.3979 272.973 19.3745 273.106 19.3276C273.243 19.2808 273.348 19.2104 273.423 19.1167C273.501 19.0269 273.563 18.9116 273.61 18.771L274.085 17.5405ZM273.528 11.9331L274.841 16.4448L275.063 18.3843L273.827 18.4487L271.559 11.9331H273.528Z" fill="white"/>
<path d="M40 44C40 41.2386 42.2386 39 45 39H417C419.761 39 422 41.2386 422 44V147.13H40V44Z" fill="#C3EA64"/>
<path d="M226.365 92.5251H227.326C227.572 92.5251 227.773 92.4822 227.93 92.3962C228.09 92.3064 228.209 92.1814 228.287 92.0212C228.365 91.8572 228.404 91.6638 228.404 91.4412C228.404 91.2693 228.367 91.1111 228.293 90.9666C228.223 90.822 228.113 90.7068 227.965 90.6208C227.816 90.531 227.627 90.4861 227.397 90.4861C227.24 90.4861 227.088 90.5193 226.939 90.5857C226.791 90.6482 226.668 90.738 226.57 90.8552C226.477 90.9724 226.43 91.115 226.43 91.283H224.449C224.449 90.7986 224.582 90.3845 224.848 90.0408C225.117 89.6931 225.471 89.4275 225.908 89.2439C226.35 89.0564 226.824 88.9626 227.332 88.9626C227.938 88.9626 228.469 89.0564 228.926 89.2439C229.383 89.4275 229.738 89.7009 229.992 90.0642C230.25 90.4236 230.379 90.8689 230.379 91.4001C230.379 91.6931 230.311 91.9685 230.174 92.2263C230.037 92.4841 229.846 92.7107 229.6 92.906C229.354 93.1013 229.064 93.2556 228.732 93.3689C228.404 93.4783 228.045 93.533 227.654 93.533H226.365V92.5251ZM226.365 93.9958V93.0115H227.654C228.08 93.0115 228.469 93.0603 228.82 93.158C229.172 93.2517 229.475 93.3923 229.729 93.5798C229.982 93.7673 230.178 93.9998 230.314 94.2771C230.451 94.5505 230.52 94.865 230.52 95.2205C230.52 95.6189 230.439 95.9744 230.279 96.2869C230.119 96.5994 229.895 96.863 229.606 97.0779C229.316 97.2927 228.979 97.4568 228.592 97.5701C228.205 97.6794 227.785 97.7341 227.332 97.7341C226.977 97.7341 226.621 97.6873 226.266 97.5935C225.91 97.4958 225.586 97.3474 225.293 97.1482C225 96.9451 224.764 96.6873 224.584 96.3748C224.408 96.0583 224.32 95.6814 224.32 95.2439H226.301C226.301 95.4236 226.35 95.5876 226.447 95.7361C226.549 95.8806 226.684 95.9958 226.852 96.0818C227.02 96.1677 227.201 96.2107 227.397 96.2107C227.639 96.2107 227.844 96.1658 228.012 96.0759C228.184 95.9822 228.314 95.8572 228.404 95.7009C228.494 95.5447 228.539 95.3708 228.539 95.1794C228.539 94.8904 228.49 94.6599 228.393 94.488C228.299 94.3162 228.16 94.1912 227.977 94.113C227.797 94.0349 227.58 93.9958 227.326 93.9958H226.365ZM233.326 92.5251H234.287C234.533 92.5251 234.734 92.4822 234.891 92.3962C235.051 92.3064 235.17 92.1814 235.248 92.0212C235.326 91.8572 235.365 91.6638 235.365 91.4412C235.365 91.2693 235.328 91.1111 235.254 90.9666C235.184 90.822 235.074 90.7068 234.926 90.6208C234.777 90.531 234.588 90.4861 234.357 90.4861C234.201 90.4861 234.049 90.5193 233.9 90.5857C233.752 90.6482 233.629 90.738 233.531 90.8552C233.438 90.9724 233.391 91.115 233.391 91.283H231.41C231.41 90.7986 231.543 90.3845 231.809 90.0408C232.078 89.6931 232.432 89.4275 232.869 89.2439C233.311 89.0564 233.785 88.9626 234.293 88.9626C234.898 88.9626 235.43 89.0564 235.887 89.2439C236.344 89.4275 236.699 89.7009 236.953 90.0642C237.211 90.4236 237.34 90.8689 237.34 91.4001C237.34 91.6931 237.272 91.9685 237.135 92.2263C236.998 92.4841 236.807 92.7107 236.561 92.906C236.314 93.1013 236.025 93.2556 235.693 93.3689C235.365 93.4783 235.006 93.533 234.615 93.533H233.326V92.5251ZM233.326 93.9958V93.0115H234.615C235.041 93.0115 235.43 93.0603 235.781 93.158C236.133 93.2517 236.436 93.3923 236.689 93.5798C236.943 93.7673 237.139 93.9998 237.275 94.2771C237.412 94.5505 237.481 94.865 237.481 95.2205C237.481 95.6189 237.4 95.9744 237.24 96.2869C237.08 96.5994 236.856 96.863 236.566 97.0779C236.277 97.2927 235.939 97.4568 235.553 97.5701C235.166 97.6794 234.746 97.7341 234.293 97.7341C233.938 97.7341 233.582 97.6873 233.227 97.5935C232.871 97.4958 232.547 97.3474 232.254 97.1482C231.961 96.9451 231.725 96.6873 231.545 96.3748C231.369 96.0583 231.281 95.6814 231.281 95.2439H233.262C233.262 95.4236 233.311 95.5876 233.408 95.7361C233.51 95.8806 233.645 95.9958 233.813 96.0818C233.981 96.1677 234.162 96.2107 234.357 96.2107C234.6 96.2107 234.805 96.1658 234.973 96.0759C235.145 95.9822 235.275 95.8572 235.365 95.7009C235.455 95.5447 235.5 95.3708 235.5 95.1794C235.5 94.8904 235.451 94.6599 235.354 94.488C235.26 94.3162 235.121 94.1912 234.938 94.113C234.758 94.0349 234.541 93.9958 234.287 93.9958H233.326Z" fill="black"/>
<rect x="40" y="222.523" width="382" height="108.13" fill="#A3DF06"/>
<path d="M234.468 278.791C234.468 279.334 234.339 279.789 234.081 280.156C233.828 280.523 233.476 280.799 233.027 280.982C232.581 281.166 232.074 281.258 231.503 281.258C230.937 281.258 230.427 281.166 229.974 280.982C229.525 280.799 229.169 280.523 228.908 280.156C228.646 279.789 228.515 279.334 228.515 278.791C228.515 278.42 228.589 278.088 228.738 277.795C228.89 277.498 229.101 277.246 229.37 277.039C229.64 276.832 229.954 276.674 230.314 276.564C230.677 276.455 231.07 276.4 231.492 276.4C232.062 276.4 232.572 276.498 233.021 276.693C233.47 276.885 233.824 277.158 234.081 277.513C234.339 277.869 234.468 278.295 234.468 278.791ZM232.482 278.633C232.482 278.398 232.441 278.201 232.359 278.041C232.277 277.877 232.161 277.752 232.013 277.666C231.865 277.58 231.691 277.537 231.492 277.537C231.296 277.537 231.122 277.58 230.97 277.666C230.822 277.752 230.704 277.877 230.619 278.041C230.536 278.201 230.495 278.398 230.495 278.633C230.495 278.859 230.538 279.056 230.624 279.224C230.71 279.388 230.828 279.515 230.976 279.605C231.128 279.691 231.304 279.734 231.503 279.734C231.703 279.734 231.874 279.691 232.019 279.605C232.167 279.515 232.281 279.388 232.359 279.224C232.441 279.056 232.482 278.859 232.482 278.633ZM234.292 274.888C234.292 275.334 234.173 275.724 233.935 276.06C233.701 276.392 233.372 276.652 232.951 276.84C232.533 277.023 232.05 277.115 231.503 277.115C230.96 277.115 230.476 277.023 230.05 276.84C229.628 276.652 229.296 276.392 229.054 276.06C228.816 275.724 228.697 275.334 228.697 274.888C228.697 274.365 228.816 273.926 229.054 273.57C229.296 273.215 229.628 272.945 230.05 272.761C230.472 272.578 230.953 272.486 231.492 272.486C232.038 272.486 232.523 272.578 232.945 272.761C233.367 272.945 233.697 273.215 233.935 273.57C234.173 273.926 234.292 274.365 234.292 274.888ZM232.318 274.994C232.318 274.791 232.286 274.617 232.224 274.472C232.161 274.324 232.07 274.211 231.949 274.133C231.828 274.051 231.675 274.01 231.492 274.01C231.316 274.01 231.167 274.049 231.046 274.127C230.925 274.205 230.833 274.318 230.771 274.467C230.708 274.611 230.677 274.787 230.677 274.994C230.677 275.197 230.708 275.375 230.771 275.527C230.833 275.679 230.925 275.799 231.046 275.885C231.171 275.97 231.324 276.013 231.503 276.013C231.687 276.013 231.837 275.97 231.954 275.885C232.076 275.799 232.165 275.679 232.224 275.527C232.286 275.375 232.318 275.197 232.318 274.994Z" fill="black"/>
<rect x="40" y="147.13" width="382" height="45.6328" fill="#FCFF52"/>
<path d="M226.254 171.91L224.684 171.541L225.199 167.182H230.186V168.717H226.811L226.617 170.41C226.711 170.356 226.869 170.291 227.092 170.217C227.318 170.139 227.568 170.1 227.842 170.1C228.264 170.1 228.637 170.164 228.961 170.293C229.289 170.418 229.566 170.604 229.793 170.85C230.02 171.092 230.189 171.391 230.303 171.746C230.42 172.102 230.479 172.508 230.479 172.965C230.479 173.332 230.418 173.688 230.297 174.031C230.18 174.371 229.998 174.678 229.752 174.951C229.51 175.221 229.203 175.436 228.832 175.596C228.461 175.752 228.022 175.83 227.514 175.83C227.135 175.83 226.766 175.772 226.406 175.655C226.047 175.537 225.723 175.369 225.434 175.151C225.148 174.928 224.922 174.66 224.754 174.348C224.59 174.031 224.51 173.678 224.514 173.287H226.5C226.512 173.494 226.561 173.674 226.647 173.826C226.732 173.979 226.848 174.098 226.992 174.184C227.141 174.266 227.311 174.307 227.502 174.307C227.697 174.307 227.859 174.268 227.988 174.19C228.117 174.112 228.219 174.004 228.293 173.867C228.367 173.731 228.42 173.574 228.451 173.399C228.482 173.219 228.498 173.03 228.498 172.83C228.498 172.619 228.475 172.43 228.428 172.262C228.385 172.094 228.314 171.951 228.217 171.834C228.119 171.713 227.992 171.621 227.836 171.559C227.684 171.496 227.5 171.465 227.285 171.465C227 171.465 226.775 171.514 226.611 171.612C226.447 171.709 226.328 171.809 226.254 171.91ZM235.898 167.182V175.713H233.924V169.408L231.979 169.977V168.477L235.717 167.182H235.898Z" fill="black"/>
<rect x="40" y="192" width="382" height="31" fill="#C3EA64"/>
<path d="M226.365 206.543H227.326C227.572 206.543 227.773 206.5 227.93 206.415C228.09 206.325 228.209 206.2 228.287 206.04C228.365 205.875 228.404 205.682 228.404 205.459C228.404 205.288 228.367 205.129 228.293 204.985C228.223 204.84 228.113 204.725 227.965 204.639C227.816 204.549 227.627 204.504 227.397 204.504C227.24 204.504 227.088 204.538 226.939 204.604C226.791 204.667 226.668 204.756 226.57 204.874C226.477 204.991 226.43 205.133 226.43 205.301H224.449C224.449 204.817 224.582 204.403 224.848 204.059C225.117 203.711 225.471 203.446 225.908 203.262C226.35 203.075 226.824 202.981 227.332 202.981C227.938 202.981 228.469 203.075 228.926 203.262C229.383 203.446 229.738 203.719 229.992 204.083C230.25 204.442 230.379 204.887 230.379 205.418C230.379 205.711 230.311 205.987 230.174 206.245C230.037 206.502 229.846 206.729 229.6 206.924C229.354 207.12 229.064 207.274 228.732 207.387C228.404 207.497 228.045 207.551 227.654 207.551H226.365V206.543ZM226.365 208.014V207.03H227.654C228.08 207.03 228.469 207.079 228.82 207.176C229.172 207.27 229.475 207.411 229.729 207.598C229.982 207.786 230.178 208.018 230.314 208.295C230.451 208.569 230.52 208.883 230.52 209.239C230.52 209.637 230.439 209.993 230.279 210.305C230.119 210.618 229.895 210.881 229.606 211.096C229.316 211.311 228.979 211.475 228.592 211.588C228.205 211.698 227.785 211.752 227.332 211.752C226.977 211.752 226.621 211.706 226.266 211.612C225.91 211.514 225.586 211.366 225.293 211.167C225 210.963 224.764 210.706 224.584 210.393C224.408 210.077 224.32 209.7 224.32 209.262H226.301C226.301 209.442 226.35 209.606 226.447 209.754C226.549 209.899 226.684 210.014 226.852 210.1C227.02 210.186 227.201 210.229 227.397 210.229C227.639 210.229 227.844 210.184 228.012 210.094C228.184 210 228.314 209.875 228.404 209.719C228.494 209.563 228.539 209.389 228.539 209.198C228.539 208.909 228.49 208.678 228.393 208.506C228.299 208.334 228.16 208.209 227.977 208.131C227.797 208.053 227.58 208.014 227.326 208.014H226.365ZM233.326 206.543H234.287C234.533 206.543 234.734 206.5 234.891 206.415C235.051 206.325 235.17 206.2 235.248 206.04C235.326 205.875 235.365 205.682 235.365 205.459C235.365 205.288 235.328 205.129 235.254 204.985C235.184 204.84 235.074 204.725 234.926 204.639C234.777 204.549 234.588 204.504 234.357 204.504C234.201 204.504 234.049 204.538 233.9 204.604C233.752 204.667 233.629 204.756 233.531 204.874C233.438 204.991 233.391 205.133 233.391 205.301H231.41C231.41 204.817 231.543 204.403 231.809 204.059C232.078 203.711 232.432 203.446 232.869 203.262C233.311 203.075 233.785 202.981 234.293 202.981C234.898 202.981 235.43 203.075 235.887 203.262C236.344 203.446 236.699 203.719 236.953 204.083C237.211 204.442 237.34 204.887 237.34 205.418C237.34 205.711 237.272 205.987 237.135 206.245C236.998 206.502 236.807 206.729 236.561 206.924C236.314 207.12 236.025 207.274 235.693 207.387C235.365 207.497 235.006 207.551 234.615 207.551H233.326V206.543ZM233.326 208.014V207.03H234.615C235.041 207.03 235.43 207.079 235.781 207.176C236.133 207.27 236.436 207.411 236.689 207.598C236.943 207.786 237.139 208.018 237.275 208.295C237.412 208.569 237.481 208.883 237.481 209.239C237.481 209.637 237.4 209.993 237.24 210.305C237.08 210.618 236.856 210.881 236.566 211.096C236.277 211.311 235.939 211.475 235.553 211.588C235.166 211.698 234.746 211.752 234.293 211.752C233.938 211.752 233.582 211.706 233.227 211.612C232.871 211.514 232.547 211.366 232.254 211.167C231.961 210.963 231.725 210.706 231.545 210.393C231.369 210.077 231.281 209.7 231.281 209.262H233.262C233.262 209.442 233.311 209.606 233.408 209.754C233.51 209.899 233.645 210.014 233.813 210.1C233.981 210.186 234.162 210.229 234.357 210.229C234.6 210.229 234.805 210.184 234.973 210.094C235.145 210 235.275 209.875 235.365 209.719C235.455 209.563 235.5 209.389 235.5 209.198C235.5 208.909 235.451 208.678 235.354 208.506C235.26 208.334 235.121 208.209 234.938 208.131C234.758 208.053 234.541 208.014 234.287 208.014H233.326Z" fill="black"/>
<path d="M40 420H422V468C422 470.761 419.761 473 417 473H45C42.2386 473 40 470.761 40 468V420Z" fill="#C3EA64"/>
<path d="M225.365 446.599H226.326C226.572 446.599 226.773 446.556 226.93 446.47C227.09 446.38 227.209 446.255 227.287 446.095C227.365 445.931 227.404 445.738 227.404 445.515C227.404 445.343 227.367 445.185 227.293 445.041C227.223 444.896 227.113 444.781 226.965 444.695C226.816 444.605 226.627 444.56 226.396 444.56C226.24 444.56 226.088 444.593 225.939 444.66C225.791 444.722 225.668 444.812 225.57 444.929C225.477 445.046 225.43 445.189 225.43 445.357H223.449C223.449 444.873 223.582 444.458 223.848 444.115C224.117 443.767 224.471 443.501 224.908 443.318C225.35 443.13 225.824 443.037 226.332 443.037C226.938 443.037 227.469 443.13 227.926 443.318C228.383 443.501 228.738 443.775 228.992 444.138C229.25 444.498 229.379 444.943 229.379 445.474C229.379 445.767 229.311 446.042 229.174 446.3C229.037 446.558 228.846 446.785 228.6 446.98C228.354 447.175 228.064 447.33 227.732 447.443C227.404 447.552 227.045 447.607 226.654 447.607H225.365V446.599ZM225.365 448.07V447.085H226.654C227.08 447.085 227.469 447.134 227.82 447.232C228.172 447.326 228.475 447.466 228.729 447.654C228.982 447.841 229.178 448.074 229.314 448.351C229.451 448.625 229.52 448.939 229.52 449.294C229.52 449.693 229.439 450.048 229.279 450.361C229.119 450.673 228.895 450.937 228.605 451.152C228.316 451.367 227.979 451.531 227.592 451.644C227.205 451.753 226.785 451.808 226.332 451.808C225.977 451.808 225.621 451.761 225.266 451.667C224.91 451.57 224.586 451.421 224.293 451.222C224 451.019 223.764 450.761 223.584 450.449C223.408 450.132 223.32 449.755 223.32 449.318H225.301C225.301 449.498 225.35 449.662 225.447 449.81C225.549 449.955 225.684 450.07 225.852 450.156C226.02 450.242 226.201 450.285 226.396 450.285C226.639 450.285 226.844 450.24 227.012 450.15C227.184 450.056 227.314 449.931 227.404 449.775C227.494 449.619 227.539 449.445 227.539 449.253C227.539 448.964 227.49 448.734 227.393 448.562C227.299 448.39 227.16 448.265 226.977 448.187C226.797 448.109 226.58 448.07 226.326 448.07H225.365ZM232.326 446.599H233.287C233.533 446.599 233.734 446.556 233.891 446.47C234.051 446.38 234.17 446.255 234.248 446.095C234.326 445.931 234.365 445.738 234.365 445.515C234.365 445.343 234.328 445.185 234.254 445.041C234.184 444.896 234.074 444.781 233.926 444.695C233.777 444.605 233.588 444.56 233.357 444.56C233.201 444.56 233.049 444.593 232.9 444.66C232.752 444.722 232.629 444.812 232.531 444.929C232.438 445.046 232.391 445.189 232.391 445.357H230.41C230.41 444.873 230.543 444.458 230.809 444.115C231.078 443.767 231.432 443.501 231.869 443.318C232.311 443.13 232.785 443.037 233.293 443.037C233.898 443.037 234.43 443.13 234.887 443.318C235.344 443.501 235.699 443.775 235.953 444.138C236.211 444.498 236.34 444.943 236.34 445.474C236.34 445.767 236.271 446.042 236.135 446.3C235.998 446.558 235.807 446.785 235.561 446.98C235.314 447.175 235.025 447.33 234.693 447.443C234.365 447.552 234.006 447.607 233.615 447.607H232.326V446.599ZM232.326 448.07V447.085H233.615C234.041 447.085 234.43 447.134 234.781 447.232C235.133 447.326 235.436 447.466 235.689 447.654C235.943 447.841 236.139 448.074 236.275 448.351C236.412 448.625 236.48 448.939 236.48 449.294C236.48 449.693 236.4 450.048 236.24 450.361C236.08 450.673 235.855 450.937 235.566 451.152C235.277 451.367 234.939 451.531 234.553 451.644C234.166 451.753 233.746 451.808 233.293 451.808C232.938 451.808 232.582 451.761 232.227 451.667C231.871 451.57 231.547 451.421 231.254 451.222C230.961 451.019 230.725 450.761 230.545 450.449C230.369 450.132 230.281 449.755 230.281 449.318H232.262C232.262 449.498 232.311 449.662 232.408 449.81C232.51 449.955 232.645 450.07 232.812 450.156C232.98 450.242 233.162 450.285 233.357 450.285C233.6 450.285 233.805 450.24 233.973 450.15C234.145 450.056 234.275 449.931 234.365 449.775C234.455 449.619 234.5 449.445 234.5 449.253C234.5 448.964 234.451 448.734 234.354 448.562C234.26 448.39 234.121 448.265 233.938 448.187C233.758 448.109 233.541 448.07 233.287 448.07H232.326Z" fill="black"/>
<rect x="40" y="330.653" width="382" height="30.3467" fill="#C3EA64"/>
<path d="M226.864 345.401H227.825C228.071 345.401 228.272 345.358 228.428 345.272C228.589 345.182 228.708 345.057 228.786 344.897C228.864 344.733 228.903 344.54 228.903 344.317C228.903 344.145 228.866 343.987 228.792 343.843C228.721 343.698 228.612 343.583 228.464 343.497C228.315 343.407 228.126 343.362 227.895 343.362C227.739 343.362 227.587 343.395 227.438 343.462C227.29 343.524 227.167 343.614 227.069 343.731C226.975 343.848 226.928 343.991 226.928 344.159H224.948C224.948 343.675 225.081 343.26 225.346 342.917C225.616 342.569 225.969 342.303 226.407 342.12C226.848 341.932 227.323 341.839 227.831 341.839C228.436 341.839 228.968 341.932 229.425 342.12C229.882 342.303 230.237 342.577 230.491 342.94C230.749 343.3 230.878 343.745 230.878 344.276C230.878 344.569 230.809 344.844 230.673 345.102C230.536 345.36 230.344 345.587 230.098 345.782C229.852 345.977 229.563 346.132 229.231 346.245C228.903 346.354 228.544 346.409 228.153 346.409H226.864V345.401ZM226.864 346.872V345.887H228.153C228.579 345.887 228.968 345.936 229.319 346.034C229.671 346.128 229.973 346.268 230.227 346.456C230.481 346.643 230.676 346.876 230.813 347.153C230.95 347.427 231.018 347.741 231.018 348.096C231.018 348.495 230.938 348.85 230.778 349.163C230.618 349.475 230.393 349.739 230.104 349.954C229.815 350.169 229.477 350.333 229.091 350.446C228.704 350.555 228.284 350.61 227.831 350.61C227.475 350.61 227.12 350.563 226.764 350.469C226.409 350.372 226.085 350.223 225.792 350.024C225.499 349.821 225.262 349.563 225.083 349.251C224.907 348.934 224.819 348.557 224.819 348.12H226.8C226.8 348.3 226.848 348.464 226.946 348.612C227.048 348.757 227.182 348.872 227.35 348.958C227.518 349.044 227.7 349.087 227.895 349.087C228.137 349.087 228.343 349.042 228.51 348.952C228.682 348.858 228.813 348.733 228.903 348.577C228.993 348.421 229.038 348.247 229.038 348.055C229.038 347.766 228.989 347.536 228.891 347.364C228.798 347.192 228.659 347.067 228.475 346.989C228.296 346.911 228.079 346.872 227.825 346.872H226.864ZM233.825 345.401H234.786C235.032 345.401 235.233 345.358 235.389 345.272C235.55 345.182 235.669 345.057 235.747 344.897C235.825 344.733 235.864 344.54 235.864 344.317C235.864 344.145 235.827 343.987 235.753 343.843C235.682 343.698 235.573 343.583 235.425 343.497C235.276 343.407 235.087 343.362 234.856 343.362C234.7 343.362 234.548 343.395 234.399 343.462C234.251 343.524 234.128 343.614 234.03 343.731C233.936 343.848 233.889 343.991 233.889 344.159H231.909C231.909 343.675 232.042 343.26 232.307 342.917C232.577 342.569 232.93 342.303 233.368 342.12C233.809 341.932 234.284 341.839 234.792 341.839C235.397 341.839 235.928 341.932 236.385 342.12C236.843 342.303 237.198 342.577 237.452 342.94C237.71 343.3 237.839 343.745 237.839 344.276C237.839 344.569 237.77 344.844 237.634 345.102C237.497 345.36 237.305 345.587 237.059 345.782C236.813 345.977 236.524 346.132 236.192 346.245C235.864 346.354 235.505 346.409 235.114 346.409H233.825V345.401ZM233.825 346.872V345.887H235.114C235.54 345.887 235.928 345.936 236.28 346.034C236.632 346.128 236.934 346.268 237.188 346.456C237.442 346.643 237.637 346.876 237.774 347.153C237.911 347.427 237.979 347.741 237.979 348.096C237.979 348.495 237.899 348.85 237.739 349.163C237.579 349.475 237.354 349.739 237.065 349.954C236.776 350.169 236.438 350.333 236.051 350.446C235.665 350.555 235.245 350.61 234.792 350.61C234.436 350.61 234.081 350.563 233.725 350.469C233.37 350.372 233.046 350.223 232.753 350.024C232.46 349.821 232.223 349.563 232.044 349.251C231.868 348.934 231.78 348.557 231.78 348.12H233.76C233.76 348.3 233.809 348.464 233.907 348.612C234.009 348.757 234.143 348.872 234.311 348.958C234.479 349.044 234.661 349.087 234.856 349.087C235.098 349.087 235.303 349.042 235.471 348.952C235.643 348.858 235.774 348.733 235.864 348.577C235.954 348.421 235.999 348.247 235.999 348.055C235.999 347.766 235.95 347.536 235.852 347.364C235.759 347.192 235.62 347.067 235.436 346.989C235.257 346.911 235.04 346.872 234.786 346.872H233.825Z" fill="black"/>
<rect x="40" y="360.414" width="382" height="60.0171" fill="#D94693"/>
<path d="M230.494 386.834V387.889L227.306 395.365H225.22L228.413 388.358H224.341V386.834H230.494ZM233.212 391.563L231.642 391.194L232.158 386.834H237.144V388.369H233.769L233.576 390.063C233.669 390.008 233.828 389.944 234.05 389.869C234.277 389.791 234.527 389.752 234.8 389.752C235.222 389.752 235.595 389.817 235.919 389.946C236.247 390.071 236.525 390.256 236.751 390.502C236.978 390.744 237.148 391.043 237.261 391.399C237.378 391.754 237.437 392.16 237.437 392.617C237.437 392.985 237.376 393.34 237.255 393.684C237.138 394.024 236.956 394.33 236.71 394.604C236.468 394.873 236.161 395.088 235.79 395.248C235.419 395.405 234.98 395.483 234.472 395.483C234.093 395.483 233.724 395.424 233.365 395.307C233.005 395.19 232.681 395.022 232.392 394.803C232.107 394.58 231.88 394.313 231.712 394C231.548 393.684 231.468 393.33 231.472 392.94H233.458C233.47 393.147 233.519 393.326 233.605 393.479C233.691 393.631 233.806 393.75 233.951 393.836C234.099 393.918 234.269 393.959 234.46 393.959C234.656 393.959 234.818 393.92 234.947 393.842C235.076 393.764 235.177 393.656 235.251 393.52C235.326 393.383 235.378 393.227 235.41 393.051C235.441 392.871 235.456 392.682 235.456 392.483C235.456 392.272 235.433 392.082 235.386 391.914C235.343 391.746 235.273 391.604 235.175 391.487C235.078 391.365 234.951 391.274 234.794 391.211C234.642 391.149 234.458 391.117 234.244 391.117C233.958 391.117 233.734 391.166 233.57 391.264C233.406 391.362 233.286 391.461 233.212 391.563Z" fill="white"/>
<path d="M134.148 495.225L131.324 503H130.17L133.422 494.469H134.166L134.148 495.225ZM136.516 503L133.686 495.225L133.668 494.469H134.412L137.676 503H136.516ZM136.369 499.842V500.768H131.576V499.842H136.369ZM139.832 494V503H138.742V494H139.832ZM142.75 494V503H141.66V494H142.75ZM148.551 497.879V505.438H147.461V496.66H148.457L148.551 497.879ZM152.822 499.777V499.9C152.822 500.361 152.768 500.789 152.658 501.184C152.549 501.574 152.389 501.914 152.178 502.203C151.971 502.492 151.715 502.717 151.41 502.877C151.105 503.037 150.756 503.117 150.361 503.117C149.959 503.117 149.604 503.051 149.295 502.918C148.986 502.785 148.725 502.592 148.51 502.338C148.295 502.084 148.123 501.779 147.994 501.424C147.869 501.068 147.783 500.668 147.736 500.223V499.566C147.783 499.098 147.871 498.678 148 498.307C148.129 497.936 148.299 497.619 148.51 497.357C148.725 497.092 148.984 496.891 149.289 496.754C149.594 496.613 149.945 496.543 150.344 496.543C150.742 496.543 151.096 496.621 151.404 496.777C151.713 496.93 151.973 497.148 152.184 497.434C152.395 497.719 152.553 498.061 152.658 498.459C152.768 498.854 152.822 499.293 152.822 499.777ZM151.732 499.9V499.777C151.732 499.461 151.699 499.164 151.633 498.887C151.566 498.605 151.463 498.359 151.322 498.148C151.186 497.934 151.01 497.766 150.795 497.645C150.58 497.52 150.324 497.457 150.027 497.457C149.754 497.457 149.516 497.504 149.312 497.598C149.113 497.691 148.943 497.818 148.803 497.979C148.662 498.135 148.547 498.314 148.457 498.518C148.371 498.717 148.307 498.924 148.264 499.139V500.656C148.342 500.93 148.451 501.188 148.592 501.43C148.732 501.668 148.92 501.861 149.154 502.01C149.389 502.154 149.684 502.227 150.039 502.227C150.332 502.227 150.584 502.166 150.795 502.045C151.01 501.92 151.186 501.75 151.322 501.535C151.463 501.32 151.566 501.074 151.633 500.797C151.699 500.516 151.732 500.217 151.732 499.9ZM155.289 497.656V503H154.205V496.66H155.26L155.289 497.656ZM157.27 496.625L157.264 497.633C157.174 497.613 157.088 497.602 157.006 497.598C156.928 497.59 156.838 497.586 156.736 497.586C156.486 497.586 156.266 497.625 156.074 497.703C155.883 497.781 155.721 497.891 155.588 498.031C155.455 498.172 155.35 498.34 155.271 498.535C155.197 498.727 155.148 498.938 155.125 499.168L154.82 499.344C154.82 498.961 154.857 498.602 154.932 498.266C155.01 497.93 155.129 497.633 155.289 497.375C155.449 497.113 155.652 496.91 155.898 496.766C156.148 496.617 156.445 496.543 156.789 496.543C156.867 496.543 156.957 496.553 157.059 496.572C157.16 496.588 157.23 496.605 157.27 496.625ZM159.449 496.66V503H158.359V496.66H159.449ZM158.277 494.979C158.277 494.803 158.33 494.654 158.436 494.533C158.545 494.412 158.705 494.352 158.916 494.352C159.123 494.352 159.281 494.412 159.391 494.533C159.504 494.654 159.561 494.803 159.561 494.979C159.561 495.146 159.504 495.291 159.391 495.412C159.281 495.529 159.123 495.588 158.916 495.588C158.705 495.588 158.545 495.529 158.436 495.412C158.33 495.291 158.277 495.146 158.277 494.979ZM163.727 502.227C163.984 502.227 164.223 502.174 164.441 502.068C164.66 501.963 164.84 501.818 164.98 501.635C165.121 501.447 165.201 501.234 165.221 500.996H166.252C166.232 501.371 166.105 501.721 165.871 502.045C165.641 502.365 165.338 502.625 164.963 502.824C164.588 503.02 164.176 503.117 163.727 503.117C163.25 503.117 162.834 503.033 162.479 502.865C162.127 502.697 161.834 502.467 161.6 502.174C161.369 501.881 161.195 501.545 161.078 501.166C160.965 500.783 160.908 500.379 160.908 499.953V499.707C160.908 499.281 160.965 498.879 161.078 498.5C161.195 498.117 161.369 497.779 161.6 497.486C161.834 497.193 162.127 496.963 162.479 496.795C162.834 496.627 163.25 496.543 163.727 496.543C164.223 496.543 164.656 496.645 165.027 496.848C165.398 497.047 165.689 497.32 165.9 497.668C166.115 498.012 166.232 498.402 166.252 498.84H165.221C165.201 498.578 165.127 498.342 164.998 498.131C164.873 497.92 164.701 497.752 164.482 497.627C164.268 497.498 164.016 497.434 163.727 497.434C163.395 497.434 163.115 497.5 162.889 497.633C162.666 497.762 162.488 497.938 162.355 498.16C162.227 498.379 162.133 498.623 162.074 498.893C162.02 499.158 161.992 499.43 161.992 499.707V499.953C161.992 500.23 162.02 500.504 162.074 500.773C162.129 501.043 162.221 501.287 162.35 501.506C162.482 501.725 162.66 501.9 162.883 502.033C163.109 502.162 163.391 502.227 163.727 502.227ZM170.102 503.117C169.66 503.117 169.26 503.043 168.9 502.895C168.545 502.742 168.238 502.529 167.98 502.256C167.727 501.982 167.531 501.658 167.395 501.283C167.258 500.908 167.189 500.498 167.189 500.053V499.807C167.189 499.291 167.266 498.832 167.418 498.43C167.57 498.023 167.777 497.68 168.039 497.398C168.301 497.117 168.598 496.904 168.93 496.76C169.262 496.615 169.605 496.543 169.961 496.543C170.414 496.543 170.805 496.621 171.133 496.777C171.465 496.934 171.736 497.152 171.947 497.434C172.158 497.711 172.314 498.039 172.416 498.418C172.518 498.793 172.568 499.203 172.568 499.648V500.135H167.834V499.25H171.484V499.168C171.469 498.887 171.41 498.613 171.309 498.348C171.211 498.082 171.055 497.863 170.84 497.691C170.625 497.52 170.332 497.434 169.961 497.434C169.715 497.434 169.488 497.486 169.281 497.592C169.074 497.693 168.896 497.846 168.748 498.049C168.6 498.252 168.484 498.5 168.402 498.793C168.32 499.086 168.279 499.424 168.279 499.807V500.053C168.279 500.354 168.32 500.637 168.402 500.902C168.488 501.164 168.611 501.395 168.771 501.594C168.936 501.793 169.133 501.949 169.363 502.062C169.598 502.176 169.863 502.232 170.16 502.232C170.543 502.232 170.867 502.154 171.133 501.998C171.398 501.842 171.631 501.633 171.83 501.371L172.486 501.893C172.35 502.1 172.176 502.297 171.965 502.484C171.754 502.672 171.494 502.824 171.186 502.941C170.881 503.059 170.52 503.117 170.102 503.117ZM177.525 501.318C177.525 501.162 177.49 501.018 177.42 500.885C177.354 500.748 177.215 500.625 177.004 500.516C176.797 500.402 176.484 500.305 176.066 500.223C175.715 500.148 175.396 500.061 175.111 499.959C174.83 499.857 174.59 499.734 174.391 499.59C174.195 499.445 174.045 499.275 173.939 499.08C173.834 498.885 173.781 498.656 173.781 498.395C173.781 498.145 173.836 497.908 173.945 497.686C174.059 497.463 174.217 497.266 174.42 497.094C174.627 496.922 174.875 496.787 175.164 496.689C175.453 496.592 175.775 496.543 176.131 496.543C176.639 496.543 177.072 496.633 177.432 496.812C177.791 496.992 178.066 497.232 178.258 497.533C178.449 497.83 178.545 498.16 178.545 498.523H177.461C177.461 498.348 177.408 498.178 177.303 498.014C177.201 497.846 177.051 497.707 176.852 497.598C176.656 497.488 176.416 497.434 176.131 497.434C175.83 497.434 175.586 497.48 175.398 497.574C175.215 497.664 175.08 497.779 174.994 497.92C174.912 498.061 174.871 498.209 174.871 498.365C174.871 498.482 174.891 498.588 174.93 498.682C174.973 498.771 175.047 498.855 175.152 498.934C175.258 499.008 175.406 499.078 175.598 499.145C175.789 499.211 176.033 499.277 176.33 499.344C176.85 499.461 177.277 499.602 177.613 499.766C177.949 499.93 178.199 500.131 178.363 500.369C178.527 500.607 178.609 500.896 178.609 501.236C178.609 501.514 178.551 501.768 178.434 501.998C178.32 502.229 178.154 502.428 177.936 502.596C177.721 502.76 177.463 502.889 177.162 502.982C176.865 503.072 176.531 503.117 176.16 503.117C175.602 503.117 175.129 503.018 174.742 502.818C174.355 502.619 174.062 502.361 173.863 502.045C173.664 501.729 173.564 501.395 173.564 501.043H174.654C174.67 501.34 174.756 501.576 174.912 501.752C175.068 501.924 175.26 502.047 175.486 502.121C175.713 502.191 175.938 502.227 176.16 502.227C176.457 502.227 176.705 502.188 176.904 502.109C177.107 502.031 177.262 501.924 177.367 501.787C177.473 501.65 177.525 501.494 177.525 501.318ZM184.188 496.66V503H183.098V496.66H184.188ZM183.016 494.979C183.016 494.803 183.068 494.654 183.174 494.533C183.283 494.412 183.443 494.352 183.654 494.352C183.861 494.352 184.02 494.412 184.129 494.533C184.242 494.654 184.299 494.803 184.299 494.979C184.299 495.146 184.242 495.291 184.129 495.412C184.02 495.529 183.861 495.588 183.654 495.588C183.443 495.588 183.283 495.529 183.174 495.412C183.068 495.291 183.016 495.146 183.016 494.979ZM187.012 498.014V503H185.928V496.66H186.953L187.012 498.014ZM186.754 499.59L186.303 499.572C186.307 499.139 186.371 498.738 186.496 498.371C186.621 498 186.797 497.678 187.023 497.404C187.25 497.131 187.52 496.92 187.832 496.771C188.148 496.619 188.498 496.543 188.881 496.543C189.193 496.543 189.475 496.586 189.725 496.672C189.975 496.754 190.188 496.887 190.363 497.07C190.543 497.254 190.68 497.492 190.773 497.785C190.867 498.074 190.914 498.428 190.914 498.846V503H189.824V498.834C189.824 498.502 189.775 498.236 189.678 498.037C189.58 497.834 189.438 497.688 189.25 497.598C189.062 497.504 188.832 497.457 188.559 497.457C188.289 497.457 188.043 497.514 187.82 497.627C187.602 497.74 187.412 497.896 187.252 498.096C187.096 498.295 186.973 498.523 186.883 498.781C186.797 499.035 186.754 499.305 186.754 499.59ZM198.074 502.227C198.332 502.227 198.57 502.174 198.789 502.068C199.008 501.963 199.188 501.818 199.328 501.635C199.469 501.447 199.549 501.234 199.568 500.996H200.6C200.58 501.371 200.453 501.721 200.219 502.045C199.988 502.365 199.686 502.625 199.311 502.824C198.936 503.02 198.523 503.117 198.074 503.117C197.598 503.117 197.182 503.033 196.826 502.865C196.475 502.697 196.182 502.467 195.947 502.174C195.717 501.881 195.543 501.545 195.426 501.166C195.312 500.783 195.256 500.379 195.256 499.953V499.707C195.256 499.281 195.312 498.879 195.426 498.5C195.543 498.117 195.717 497.779 195.947 497.486C196.182 497.193 196.475 496.963 196.826 496.795C197.182 496.627 197.598 496.543 198.074 496.543C198.57 496.543 199.004 496.645 199.375 496.848C199.746 497.047 200.037 497.32 200.248 497.668C200.463 498.012 200.58 498.402 200.6 498.84H199.568C199.549 498.578 199.475 498.342 199.346 498.131C199.221 497.92 199.049 497.752 198.83 497.627C198.615 497.498 198.363 497.434 198.074 497.434C197.742 497.434 197.463 497.5 197.236 497.633C197.014 497.762 196.836 497.938 196.703 498.16C196.574 498.379 196.48 498.623 196.422 498.893C196.367 499.158 196.34 499.43 196.34 499.707V499.953C196.34 500.23 196.367 500.504 196.422 500.773C196.477 501.043 196.568 501.287 196.697 501.506C196.83 501.725 197.008 501.9 197.23 502.033C197.457 502.162 197.738 502.227 198.074 502.227ZM204.449 503.117C204.008 503.117 203.607 503.043 203.248 502.895C202.893 502.742 202.586 502.529 202.328 502.256C202.074 501.982 201.879 501.658 201.742 501.283C201.605 500.908 201.537 500.498 201.537 500.053V499.807C201.537 499.291 201.613 498.832 201.766 498.43C201.918 498.023 202.125 497.68 202.387 497.398C202.648 497.117 202.945 496.904 203.277 496.76C203.609 496.615 203.953 496.543 204.309 496.543C204.762 496.543 205.152 496.621 205.48 496.777C205.812 496.934 206.084 497.152 206.295 497.434C206.506 497.711 206.662 498.039 206.764 498.418C206.865 498.793 206.916 499.203 206.916 499.648V500.135H202.182V499.25H205.832V499.168C205.816 498.887 205.758 498.613 205.656 498.348C205.559 498.082 205.402 497.863 205.188 497.691C204.973 497.52 204.68 497.434 204.309 497.434C204.062 497.434 203.836 497.486 203.629 497.592C203.422 497.693 203.244 497.846 203.096 498.049C202.947 498.252 202.832 498.5 202.75 498.793C202.668 499.086 202.627 499.424 202.627 499.807V500.053C202.627 500.354 202.668 500.637 202.75 500.902C202.836 501.164 202.959 501.395 203.119 501.594C203.283 501.793 203.48 501.949 203.711 502.062C203.945 502.176 204.211 502.232 204.508 502.232C204.891 502.232 205.215 502.154 205.48 501.998C205.746 501.842 205.979 501.633 206.178 501.371L206.834 501.893C206.697 502.1 206.523 502.297 206.312 502.484C206.102 502.672 205.842 502.824 205.533 502.941C205.229 503.059 204.867 503.117 204.449 503.117ZM209.266 498.014V503H208.182V496.66H209.207L209.266 498.014ZM209.008 499.59L208.557 499.572C208.561 499.139 208.625 498.738 208.75 498.371C208.875 498 209.051 497.678 209.277 497.404C209.504 497.131 209.773 496.92 210.086 496.771C210.402 496.619 210.752 496.543 211.135 496.543C211.447 496.543 211.729 496.586 211.979 496.672C212.229 496.754 212.441 496.887 212.617 497.07C212.797 497.254 212.934 497.492 213.027 497.785C213.121 498.074 213.168 498.428 213.168 498.846V503H212.078V498.834C212.078 498.502 212.029 498.236 211.932 498.037C211.834 497.834 211.691 497.688 211.504 497.598C211.316 497.504 211.086 497.457 210.812 497.457C210.543 497.457 210.297 497.514 210.074 497.627C209.855 497.74 209.666 497.896 209.506 498.096C209.35 498.295 209.227 498.523 209.137 498.781C209.051 499.035 209.008 499.305 209.008 499.59ZM217.469 496.66V497.492H214.041V496.66H217.469ZM215.201 495.119H216.285V501.43C216.285 501.645 216.318 501.807 216.385 501.916C216.451 502.025 216.537 502.098 216.643 502.133C216.748 502.168 216.861 502.186 216.982 502.186C217.072 502.186 217.166 502.178 217.264 502.162C217.365 502.143 217.441 502.127 217.492 502.115L217.498 503C217.412 503.027 217.299 503.053 217.158 503.076C217.021 503.104 216.855 503.117 216.66 503.117C216.395 503.117 216.15 503.064 215.928 502.959C215.705 502.854 215.527 502.678 215.395 502.432C215.266 502.182 215.201 501.846 215.201 501.424V495.119ZM222.432 501.318C222.432 501.162 222.396 501.018 222.326 500.885C222.26 500.748 222.121 500.625 221.91 500.516C221.703 500.402 221.391 500.305 220.973 500.223C220.621 500.148 220.303 500.061 220.018 499.959C219.736 499.857 219.496 499.734 219.297 499.59C219.102 499.445 218.951 499.275 218.846 499.08C218.74 498.885 218.688 498.656 218.688 498.395C218.688 498.145 218.742 497.908 218.852 497.686C218.965 497.463 219.123 497.266 219.326 497.094C219.533 496.922 219.781 496.787 220.07 496.689C220.359 496.592 220.682 496.543 221.037 496.543C221.545 496.543 221.979 496.633 222.338 496.812C222.697 496.992 222.973 497.232 223.164 497.533C223.355 497.83 223.451 498.16 223.451 498.523H222.367C222.367 498.348 222.314 498.178 222.209 498.014C222.107 497.846 221.957 497.707 221.758 497.598C221.562 497.488 221.322 497.434 221.037 497.434C220.736 497.434 220.492 497.48 220.305 497.574C220.121 497.664 219.986 497.779 219.9 497.92C219.818 498.061 219.777 498.209 219.777 498.365C219.777 498.482 219.797 498.588 219.836 498.682C219.879 498.771 219.953 498.855 220.059 498.934C220.164 499.008 220.312 499.078 220.504 499.145C220.695 499.211 220.939 499.277 221.236 499.344C221.756 499.461 222.184 499.602 222.52 499.766C222.855 499.93 223.105 500.131 223.27 500.369C223.434 500.607 223.516 500.896 223.516 501.236C223.516 501.514 223.457 501.768 223.34 501.998C223.227 502.229 223.061 502.428 222.842 502.596C222.627 502.76 222.369 502.889 222.068 502.982C221.771 503.072 221.438 503.117 221.066 503.117C220.508 503.117 220.035 503.018 219.648 502.818C219.262 502.619 218.969 502.361 218.77 502.045C218.57 501.729 218.471 501.395 218.471 501.043H219.561C219.576 501.34 219.662 501.576 219.818 501.752C219.975 501.924 220.166 502.047 220.393 502.121C220.619 502.191 220.844 502.227 221.066 502.227C221.363 502.227 221.611 502.188 221.811 502.109C222.014 502.031 222.168 501.924 222.273 501.787C222.379 501.65 222.432 501.494 222.432 501.318ZM229 497.879V505.438H227.91V496.66H228.906L229 497.879ZM233.271 499.777V499.9C233.271 500.361 233.217 500.789 233.107 501.184C232.998 501.574 232.838 501.914 232.627 502.203C232.42 502.492 232.164 502.717 231.859 502.877C231.555 503.037 231.205 503.117 230.811 503.117C230.408 503.117 230.053 503.051 229.744 502.918C229.436 502.785 229.174 502.592 228.959 502.338C228.744 502.084 228.572 501.779 228.443 501.424C228.318 501.068 228.232 500.668 228.186 500.223V499.566C228.232 499.098 228.32 498.678 228.449 498.307C228.578 497.936 228.748 497.619 228.959 497.357C229.174 497.092 229.434 496.891 229.738 496.754C230.043 496.613 230.395 496.543 230.793 496.543C231.191 496.543 231.545 496.621 231.854 496.777C232.162 496.93 232.422 497.148 232.633 497.434C232.844 497.719 233.002 498.061 233.107 498.459C233.217 498.854 233.271 499.293 233.271 499.777ZM232.182 499.9V499.777C232.182 499.461 232.148 499.164 232.082 498.887C232.016 498.605 231.912 498.359 231.771 498.148C231.635 497.934 231.459 497.766 231.244 497.645C231.029 497.52 230.773 497.457 230.477 497.457C230.203 497.457 229.965 497.504 229.762 497.598C229.562 497.691 229.393 497.818 229.252 497.979C229.111 498.135 228.996 498.314 228.906 498.518C228.82 498.717 228.756 498.924 228.713 499.139V500.656C228.791 500.93 228.9 501.188 229.041 501.43C229.182 501.668 229.369 501.861 229.604 502.01C229.838 502.154 230.133 502.227 230.488 502.227C230.781 502.227 231.033 502.166 231.244 502.045C231.459 501.92 231.635 501.75 231.771 501.535C231.912 501.32 232.016 501.074 232.082 500.797C232.148 500.516 232.182 500.217 232.182 499.9ZM237.285 503.117C236.844 503.117 236.443 503.043 236.084 502.895C235.729 502.742 235.422 502.529 235.164 502.256C234.91 501.982 234.715 501.658 234.578 501.283C234.441 500.908 234.373 500.498 234.373 500.053V499.807C234.373 499.291 234.449 498.832 234.602 498.43C234.754 498.023 234.961 497.68 235.223 497.398C235.484 497.117 235.781 496.904 236.113 496.76C236.445 496.615 236.789 496.543 237.145 496.543C237.598 496.543 237.988 496.621 238.316 496.777C238.648 496.934 238.92 497.152 239.131 497.434C239.342 497.711 239.498 498.039 239.6 498.418C239.701 498.793 239.752 499.203 239.752 499.648V500.135H235.018V499.25H238.668V499.168C238.652 498.887 238.594 498.613 238.492 498.348C238.395 498.082 238.238 497.863 238.023 497.691C237.809 497.52 237.516 497.434 237.145 497.434C236.898 497.434 236.672 497.486 236.465 497.592C236.258 497.693 236.08 497.846 235.932 498.049C235.783 498.252 235.668 498.5 235.586 498.793C235.504 499.086 235.463 499.424 235.463 499.807V500.053C235.463 500.354 235.504 500.637 235.586 500.902C235.672 501.164 235.795 501.395 235.955 501.594C236.119 501.793 236.316 501.949 236.547 502.062C236.781 502.176 237.047 502.232 237.344 502.232C237.727 502.232 238.051 502.154 238.316 501.998C238.582 501.842 238.814 501.633 239.014 501.371L239.67 501.893C239.533 502.1 239.359 502.297 239.148 502.484C238.938 502.672 238.678 502.824 238.369 502.941C238.064 503.059 237.703 503.117 237.285 503.117ZM242.102 497.656V503H241.018V496.66H242.072L242.102 497.656ZM244.082 496.625L244.076 497.633C243.986 497.613 243.9 497.602 243.818 497.598C243.74 497.59 243.65 497.586 243.549 497.586C243.299 497.586 243.078 497.625 242.887 497.703C242.695 497.781 242.533 497.891 242.4 498.031C242.268 498.172 242.162 498.34 242.084 498.535C242.01 498.727 241.961 498.938 241.938 499.168L241.633 499.344C241.633 498.961 241.67 498.602 241.744 498.266C241.822 497.93 241.941 497.633 242.102 497.375C242.262 497.113 242.465 496.91 242.711 496.766C242.961 496.617 243.258 496.543 243.602 496.543C243.68 496.543 243.77 496.553 243.871 496.572C243.973 496.588 244.043 496.605 244.082 496.625ZM249.15 494V503H248.061V494H249.15ZM253.023 496.66L250.258 499.619L248.711 501.225L248.623 500.07L249.73 498.746L251.699 496.66H253.023ZM252.033 503L249.771 499.977L250.334 499.01L253.311 503H252.033ZM256.551 500.422L258.244 494.469H259.064L258.59 496.783L256.768 503H255.953L256.551 500.422ZM254.799 494.469L256.146 500.305L256.551 503H255.742L253.674 494.469H254.799ZM261.256 500.299L262.574 494.469H263.705L261.643 503H260.834L261.256 500.299ZM259.188 494.469L260.834 500.422L261.432 503H260.617L258.859 496.783L258.379 494.469H259.188ZM265.879 494V503H264.795V494H265.879ZM265.621 499.59L265.17 499.572C265.174 499.139 265.238 498.738 265.363 498.371C265.488 498 265.664 497.678 265.891 497.404C266.117 497.131 266.387 496.92 266.699 496.771C267.016 496.619 267.365 496.543 267.748 496.543C268.061 496.543 268.342 496.586 268.592 496.672C268.842 496.754 269.055 496.887 269.23 497.07C269.41 497.254 269.547 497.492 269.641 497.785C269.734 498.074 269.781 498.428 269.781 498.846V503H268.691V498.834C268.691 498.502 268.643 498.236 268.545 498.037C268.447 497.834 268.305 497.688 268.117 497.598C267.93 497.504 267.699 497.457 267.426 497.457C267.156 497.457 266.91 497.514 266.688 497.627C266.469 497.74 266.279 497.896 266.119 498.096C265.963 498.295 265.84 498.523 265.75 498.781C265.664 499.035 265.621 499.305 265.621 499.59ZM274.34 499.59V499.531C274.34 498.68 274.436 497.91 274.627 497.223C274.818 496.531 275.062 495.926 275.359 495.406C275.656 494.887 275.969 494.457 276.297 494.117C276.625 493.773 276.928 493.525 277.205 493.373L277.434 494.088C277.203 494.264 276.969 494.506 276.73 494.814C276.496 495.123 276.279 495.502 276.08 495.951C275.885 496.4 275.727 496.922 275.605 497.516C275.484 498.109 275.424 498.777 275.424 499.52V499.602C275.424 500.344 275.484 501.014 275.605 501.611C275.727 502.205 275.885 502.729 276.08 503.182C276.279 503.635 276.496 504.02 276.73 504.336C276.969 504.656 277.203 504.91 277.434 505.098L277.205 505.754C276.928 505.602 276.625 505.354 276.297 505.01C275.969 504.67 275.656 504.24 275.359 503.721C275.062 503.205 274.818 502.602 274.627 501.91C274.436 501.219 274.34 500.445 274.34 499.59ZM279.672 496.66V503H278.582V496.66H279.672ZM278.5 494.979C278.5 494.803 278.553 494.654 278.658 494.533C278.768 494.412 278.928 494.352 279.139 494.352C279.346 494.352 279.504 494.412 279.613 494.533C279.727 494.654 279.783 494.803 279.783 494.979C279.783 495.146 279.727 495.291 279.613 495.412C279.504 495.529 279.346 495.588 279.139 495.588C278.928 495.588 278.768 495.529 278.658 495.412C278.553 495.291 278.5 495.146 278.5 494.979ZM282.496 498.014V503H281.412V496.66H282.438L282.496 498.014ZM282.238 499.59L281.787 499.572C281.791 499.139 281.855 498.738 281.98 498.371C282.105 498 282.281 497.678 282.508 497.404C282.734 497.131 283.004 496.92 283.316 496.771C283.633 496.619 283.982 496.543 284.365 496.543C284.678 496.543 284.959 496.586 285.209 496.672C285.459 496.754 285.672 496.887 285.848 497.07C286.027 497.254 286.164 497.492 286.258 497.785C286.352 498.074 286.398 498.428 286.398 498.846V503H285.309V498.834C285.309 498.502 285.26 498.236 285.162 498.037C285.064 497.834 284.922 497.688 284.734 497.598C284.547 497.504 284.316 497.457 284.043 497.457C283.773 497.457 283.527 497.514 283.305 497.627C283.086 497.74 282.896 497.896 282.736 498.096C282.58 498.295 282.457 498.523 282.367 498.781C282.281 499.035 282.238 499.305 282.238 499.59ZM290.582 502.227C290.84 502.227 291.078 502.174 291.297 502.068C291.516 501.963 291.695 501.818 291.836 501.635C291.977 501.447 292.057 501.234 292.076 500.996H293.107C293.088 501.371 292.961 501.721 292.727 502.045C292.496 502.365 292.193 502.625 291.818 502.824C291.443 503.02 291.031 503.117 290.582 503.117C290.105 503.117 289.689 503.033 289.334 502.865C288.982 502.697 288.689 502.467 288.455 502.174C288.225 501.881 288.051 501.545 287.934 501.166C287.82 500.783 287.764 500.379 287.764 499.953V499.707C287.764 499.281 287.82 498.879 287.934 498.5C288.051 498.117 288.225 497.779 288.455 497.486C288.689 497.193 288.982 496.963 289.334 496.795C289.689 496.627 290.105 496.543 290.582 496.543C291.078 496.543 291.512 496.645 291.883 496.848C292.254 497.047 292.545 497.32 292.756 497.668C292.971 498.012 293.088 498.402 293.107 498.84H292.076C292.057 498.578 291.982 498.342 291.854 498.131C291.729 497.92 291.557 497.752 291.338 497.627C291.123 497.498 290.871 497.434 290.582 497.434C290.25 497.434 289.971 497.5 289.744 497.633C289.521 497.762 289.344 497.938 289.211 498.16C289.082 498.379 288.988 498.623 288.93 498.893C288.875 499.158 288.848 499.43 288.848 499.707V499.953C288.848 500.23 288.875 500.504 288.93 500.773C288.984 501.043 289.076 501.287 289.205 501.506C289.338 501.725 289.516 501.9 289.738 502.033C289.965 502.162 290.246 502.227 290.582 502.227ZM295.504 494V503H294.414V494H295.504ZM297.262 502.426C297.262 502.242 297.318 502.088 297.432 501.963C297.549 501.834 297.717 501.77 297.936 501.77C298.154 501.77 298.32 501.834 298.434 501.963C298.551 502.088 298.609 502.242 298.609 502.426C298.609 502.605 298.551 502.758 298.434 502.883C298.32 503.008 298.154 503.07 297.936 503.07C297.717 503.07 297.549 503.008 297.432 502.883C297.318 502.758 297.262 502.605 297.262 502.426ZM309.854 498.752V501.875C309.748 502.031 309.58 502.207 309.35 502.402C309.119 502.594 308.801 502.762 308.395 502.906C307.992 503.047 307.473 503.117 306.836 503.117C306.316 503.117 305.838 503.027 305.4 502.848C304.967 502.664 304.59 502.398 304.27 502.051C303.953 501.699 303.707 501.273 303.531 500.773C303.359 500.27 303.273 499.699 303.273 499.062V498.4C303.273 497.764 303.348 497.195 303.496 496.695C303.648 496.195 303.871 495.771 304.164 495.424C304.457 495.072 304.816 494.807 305.242 494.627C305.668 494.443 306.156 494.352 306.707 494.352C307.359 494.352 307.904 494.465 308.342 494.691C308.783 494.914 309.127 495.223 309.373 495.617C309.623 496.012 309.783 496.461 309.854 496.965H308.723C308.672 496.656 308.57 496.375 308.418 496.121C308.27 495.867 308.057 495.664 307.779 495.512C307.502 495.355 307.145 495.277 306.707 495.277C306.312 495.277 305.971 495.35 305.682 495.494C305.393 495.639 305.154 495.846 304.967 496.115C304.779 496.385 304.639 496.711 304.545 497.094C304.455 497.477 304.41 497.908 304.41 498.389V499.062C304.41 499.555 304.467 499.994 304.58 500.381C304.697 500.768 304.863 501.098 305.078 501.371C305.293 501.641 305.549 501.846 305.846 501.986C306.146 502.127 306.479 502.197 306.842 502.197C307.244 502.197 307.57 502.164 307.82 502.098C308.07 502.027 308.266 501.945 308.406 501.852C308.547 501.754 308.654 501.662 308.729 501.576V499.666H306.754V498.752H309.854ZM316.275 500.844C316.275 500.645 316.244 500.469 316.182 500.316C316.123 500.16 316.018 500.02 315.865 499.895C315.717 499.77 315.51 499.65 315.244 499.537C314.982 499.424 314.65 499.309 314.248 499.191C313.826 499.066 313.445 498.928 313.105 498.775C312.766 498.619 312.475 498.441 312.232 498.242C311.99 498.043 311.805 497.814 311.676 497.557C311.547 497.299 311.482 497.004 311.482 496.672C311.482 496.34 311.551 496.033 311.688 495.752C311.824 495.471 312.02 495.227 312.273 495.02C312.531 494.809 312.838 494.645 313.193 494.527C313.549 494.41 313.945 494.352 314.383 494.352C315.023 494.352 315.566 494.475 316.012 494.721C316.461 494.963 316.803 495.281 317.037 495.676C317.271 496.066 317.389 496.484 317.389 496.93H316.264C316.264 496.609 316.195 496.326 316.059 496.08C315.922 495.83 315.715 495.635 315.438 495.494C315.16 495.35 314.809 495.277 314.383 495.277C313.98 495.277 313.648 495.338 313.387 495.459C313.125 495.58 312.93 495.744 312.801 495.951C312.676 496.158 312.613 496.395 312.613 496.66C312.613 496.84 312.65 497.004 312.725 497.152C312.803 497.297 312.922 497.432 313.082 497.557C313.246 497.682 313.453 497.797 313.703 497.902C313.957 498.008 314.26 498.109 314.611 498.207C315.096 498.344 315.514 498.496 315.865 498.664C316.217 498.832 316.506 499.021 316.732 499.232C316.963 499.439 317.133 499.676 317.242 499.941C317.355 500.203 317.412 500.5 317.412 500.832C317.412 501.18 317.342 501.494 317.201 501.775C317.061 502.057 316.859 502.297 316.598 502.496C316.336 502.695 316.021 502.85 315.654 502.959C315.291 503.064 314.885 503.117 314.436 503.117C314.041 503.117 313.652 503.062 313.27 502.953C312.891 502.844 312.545 502.68 312.232 502.461C311.924 502.242 311.676 501.973 311.488 501.652C311.305 501.328 311.213 500.953 311.213 500.527H312.338C312.338 500.82 312.395 501.072 312.508 501.283C312.621 501.49 312.775 501.662 312.971 501.799C313.17 501.936 313.395 502.037 313.645 502.104C313.898 502.166 314.162 502.197 314.436 502.197C314.83 502.197 315.164 502.143 315.438 502.033C315.711 501.924 315.918 501.768 316.059 501.564C316.203 501.361 316.275 501.121 316.275 500.844ZM322.006 494.469V503H320.893V494.469H322.006ZM324.748 494.469V495.395H318.156V494.469H324.748ZM328.346 499.531V499.59C328.346 500.445 328.25 501.219 328.059 501.91C327.867 502.602 327.623 503.205 327.326 503.721C327.029 504.24 326.717 504.67 326.389 505.01C326.061 505.354 325.758 505.602 325.48 505.754L325.252 505.098C325.482 504.922 325.715 504.676 325.949 504.359C326.184 504.047 326.4 503.66 326.6 503.199C326.799 502.742 326.959 502.215 327.08 501.617C327.201 501.016 327.262 500.344 327.262 499.602V499.52C327.262 498.777 327.197 498.107 327.068 497.51C326.939 496.908 326.771 496.379 326.564 495.922C326.361 495.465 326.143 495.08 325.908 494.768C325.678 494.451 325.459 494.207 325.252 494.035L325.48 493.373C325.758 493.525 326.061 493.773 326.389 494.117C326.717 494.457 327.029 494.887 327.326 495.406C327.623 495.926 327.867 496.531 328.059 497.223C328.25 497.91 328.346 498.68 328.346 499.531Z" fill="white"/>
</svg>
