<svg width="432" height="490" viewBox="0 0 432 490" fill="none" xmlns="http://www.w3.org/2000/svg">
<path d="M15.6484 41.2583V49.0947H14.1016V43.0415L12.2432 43.6323V42.4131L15.4819 41.2583H15.6484ZM23.5439 47.8862V49.0947H18.1943V48.0635L20.7241 45.3511C20.9784 45.0682 21.1789 44.8193 21.3257 44.6045C21.4725 44.3861 21.5781 44.1909 21.6426 44.019C21.7106 43.8436 21.7446 43.6771 21.7446 43.5195C21.7446 43.2832 21.7052 43.0809 21.6265 42.9126C21.5477 42.7407 21.4313 42.6082 21.2773 42.5151C21.127 42.422 20.9408 42.3755 20.7188 42.3755C20.4824 42.3755 20.2783 42.4328 20.1064 42.5474C19.9382 42.6619 19.8092 42.8213 19.7197 43.0254C19.6338 43.2295 19.5908 43.4604 19.5908 43.7183H18.0386C18.0386 43.2528 18.1496 42.8267 18.3716 42.4399C18.5936 42.0496 18.9069 41.7399 19.3115 41.5107C19.7161 41.278 20.196 41.1616 20.751 41.1616C21.2988 41.1616 21.7607 41.2511 22.1367 41.4302C22.5163 41.6056 22.8027 41.8599 22.9961 42.1929C23.193 42.5223 23.2915 42.9162 23.2915 43.3745C23.2915 43.6323 23.2503 43.8848 23.168 44.1318C23.0856 44.3753 22.9674 44.6188 22.8135 44.8623C22.6631 45.1022 22.4805 45.3457 22.2656 45.5928C22.0508 45.8398 21.8127 46.0959 21.5513 46.3608L20.1924 47.8862H23.5439ZM27.8516 42.6118L25.7246 49.0947H24.0112L26.917 41.2744H28.0073L27.8516 42.6118ZM29.6187 49.0947L27.4863 42.6118L27.3145 41.2744H28.4155L31.3374 49.0947H29.6187ZM29.522 46.1836V47.4458H25.3916V46.1836H29.522ZM32.7983 41.2744H34.1626L36.1714 47.0161L38.1802 41.2744H39.5444L36.7192 49.0947H35.6235L32.7983 41.2744ZM32.0625 41.2744H33.4214L33.6685 46.8711V49.0947H32.0625V41.2744ZM38.9214 41.2744H40.2856V49.0947H38.6743V46.8711L38.9214 41.2744Z" fill="white"/>
<path d="M22.1851 156.802H22.4106V158.037H22.3193C21.9111 158.037 21.5477 158.098 21.229 158.22C20.9103 158.341 20.64 158.515 20.418 158.741C20.1995 158.963 20.0312 159.231 19.9131 159.546C19.7985 159.861 19.7412 160.214 19.7412 160.604V161.904C19.7412 162.184 19.7681 162.431 19.8218 162.646C19.8791 162.857 19.9596 163.034 20.0635 163.177C20.1709 163.317 20.2962 163.423 20.4395 163.494C20.5827 163.562 20.7438 163.596 20.9229 163.596C21.0911 163.596 21.2433 163.56 21.3794 163.489C21.519 163.417 21.6372 163.317 21.7339 163.188C21.8341 163.056 21.9093 162.902 21.9595 162.726C22.0132 162.547 22.04 162.352 22.04 162.141C22.04 161.929 22.0132 161.734 21.9595 161.555C21.9093 161.376 21.8341 161.222 21.7339 161.093C21.6336 160.961 21.5119 160.859 21.3687 160.787C21.2254 160.715 21.0643 160.68 20.8853 160.68C20.6418 160.68 20.4269 160.737 20.2407 160.852C20.0581 160.963 19.9149 161.106 19.811 161.281C19.7072 161.457 19.6517 161.641 19.6445 161.834L19.1772 161.534C19.188 161.258 19.2453 160.997 19.3491 160.75C19.4565 160.502 19.6034 160.284 19.7896 160.094C19.9793 159.901 20.2067 159.75 20.4717 159.643C20.7367 159.532 21.0356 159.477 21.3687 159.477C21.7339 159.477 22.0544 159.546 22.3301 159.686C22.6094 159.826 22.8421 160.017 23.0283 160.261C23.2145 160.504 23.3542 160.785 23.4473 161.104C23.5404 161.423 23.5869 161.763 23.5869 162.125C23.5869 162.504 23.5243 162.857 23.3989 163.183C23.2772 163.508 23.0999 163.793 22.8672 164.037C22.638 164.28 22.3623 164.47 22.04 164.606C21.7178 164.742 21.3561 164.81 20.9551 164.81C20.5397 164.81 20.1619 164.735 19.8218 164.584C19.4852 164.431 19.1951 164.216 18.9517 163.94C18.7082 163.664 18.5202 163.337 18.3877 162.957C18.2588 162.577 18.1943 162.162 18.1943 161.711V161.109C18.1943 160.479 18.2856 159.903 18.4683 159.38C18.6545 158.854 18.9212 158.399 19.2686 158.016C19.6159 157.629 20.0348 157.33 20.5254 157.119C21.016 156.907 21.5692 156.802 22.1851 156.802ZM27.8516 158.22L25.7246 164.703H24.0112L26.917 156.882H28.0073L27.8516 158.22ZM29.6187 164.703L27.4863 158.22L27.3145 156.882H28.4155L31.3374 164.703H29.6187ZM29.522 161.792V163.054H25.3916V161.792H29.522ZM32.7983 156.882H34.1626L36.1714 162.624L38.1802 156.882H39.5444L36.7192 164.703H35.6235L32.7983 156.882ZM32.0625 156.882H33.4214L33.6685 162.479V164.703H32.0625V156.882ZM38.9214 156.882H40.2856V164.703H38.6743V162.479L38.9214 156.882Z" fill="white"/>
<path d="M19.29 206.635H19.3921C19.8218 206.635 20.1906 206.583 20.4985 206.479C20.8101 206.372 21.0661 206.218 21.2666 206.017C21.4671 205.817 21.6157 205.571 21.7124 205.281C21.8091 204.988 21.8574 204.655 21.8574 204.282V202.8C21.8574 202.517 21.8288 202.268 21.7715 202.053C21.7178 201.838 21.639 201.661 21.5352 201.521C21.4349 201.378 21.3167 201.271 21.1807 201.199C21.0482 201.128 20.9014 201.092 20.7402 201.092C20.5684 201.092 20.4162 201.135 20.2837 201.221C20.1512 201.303 20.0384 201.416 19.9453 201.559C19.8558 201.702 19.786 201.867 19.7358 202.053C19.6893 202.236 19.666 202.427 19.666 202.628C19.666 202.828 19.6893 203.02 19.7358 203.203C19.7824 203.382 19.8522 203.541 19.9453 203.681C20.0384 203.817 20.1548 203.926 20.2944 204.008C20.4341 204.087 20.5988 204.126 20.7886 204.126C20.9712 204.126 21.1341 204.092 21.2773 204.024C21.4242 203.953 21.5477 203.86 21.6479 203.745C21.7518 203.631 21.8306 203.503 21.8843 203.364C21.9416 203.224 21.9702 203.083 21.9702 202.939L22.4805 203.219C22.4805 203.469 22.4268 203.716 22.3193 203.96C22.2119 204.203 22.0615 204.425 21.8682 204.626C21.6784 204.823 21.4582 204.98 21.2075 205.099C20.9569 205.217 20.6883 205.276 20.4019 205.276C20.0366 205.276 19.7126 205.21 19.4297 205.077C19.1468 204.941 18.9069 204.755 18.71 204.519C18.5166 204.279 18.3698 203.999 18.2695 203.681C18.1693 203.362 18.1191 203.016 18.1191 202.644C18.1191 202.264 18.18 201.908 18.3018 201.575C18.4271 201.242 18.6043 200.949 18.8335 200.694C19.0662 200.44 19.3438 200.241 19.666 200.098C19.9919 199.951 20.3535 199.878 20.751 199.878C21.1484 199.878 21.5101 199.955 21.8359 200.109C22.1618 200.263 22.4411 200.481 22.6738 200.764C22.9066 201.043 23.0856 201.378 23.2109 201.769C23.3398 202.159 23.4043 202.592 23.4043 203.068V203.605C23.4043 204.114 23.3488 204.587 23.2378 205.023C23.1304 205.46 22.9674 205.856 22.749 206.21C22.5342 206.561 22.2656 206.862 21.9434 207.113C21.6247 207.363 21.2541 207.555 20.8315 207.688C20.409 207.82 19.9364 207.886 19.4136 207.886H19.29V206.635ZM27.8516 201.328L25.7246 207.811H24.0112L26.917 199.991H28.0073L27.8516 201.328ZM29.6187 207.811L27.4863 201.328L27.3145 199.991H28.4155L31.3374 207.811H29.6187ZM29.522 204.9V206.162H25.3916V204.9H29.522ZM32.7983 199.991H34.1626L36.1714 205.732L38.1802 199.991H39.5444L36.7192 207.811H35.6235L32.7983 199.991ZM32.0625 199.991H33.4214L33.6685 205.587V207.811H32.0625V199.991ZM38.9214 199.991H40.2856V207.811H38.6743V205.587L38.9214 199.991Z" fill="white"/>
<path d="M15.6484 225.447V233.284H14.1016V227.23L12.2432 227.821V226.602L15.4819 225.447H15.6484ZM23.458 228.686V230.04C23.458 230.627 23.3953 231.133 23.27 231.56C23.1447 231.982 22.9639 232.329 22.7275 232.602C22.4948 232.87 22.2173 233.069 21.895 233.198C21.5728 233.327 21.2147 233.391 20.8208 233.391C20.5057 233.391 20.2121 233.352 19.9399 233.273C19.6678 233.191 19.4225 233.063 19.2041 232.892C18.9893 232.72 18.8031 232.503 18.6455 232.242C18.4915 231.977 18.3734 231.662 18.291 231.296C18.2087 230.931 18.1675 230.512 18.1675 230.04V228.686C18.1675 228.099 18.2301 227.596 18.3555 227.177C18.4844 226.754 18.6652 226.409 18.8979 226.14C19.1343 225.872 19.4136 225.675 19.7358 225.549C20.0581 225.42 20.4162 225.356 20.8101 225.356C21.1252 225.356 21.417 225.397 21.6855 225.479C21.9577 225.558 22.203 225.682 22.4214 225.85C22.6398 226.018 22.826 226.235 22.98 226.5C23.134 226.761 23.2521 227.075 23.3345 227.44C23.4168 227.802 23.458 228.217 23.458 228.686ZM21.9058 230.244V228.477C21.9058 228.194 21.8896 227.947 21.8574 227.735C21.8288 227.524 21.784 227.345 21.7231 227.198C21.6623 227.048 21.5871 226.926 21.4976 226.833C21.408 226.74 21.306 226.672 21.1914 226.629C21.0768 226.586 20.9497 226.564 20.8101 226.564C20.6346 226.564 20.4788 226.598 20.3428 226.667C20.2103 226.735 20.0975 226.844 20.0044 226.994C19.9113 227.141 19.8397 227.338 19.7896 227.585C19.743 227.828 19.7197 228.126 19.7197 228.477V230.244C19.7197 230.527 19.734 230.775 19.7627 230.99C19.7949 231.205 19.8415 231.389 19.9023 231.543C19.9668 231.694 20.042 231.817 20.1279 231.914C20.2174 232.007 20.3195 232.075 20.4341 232.118C20.5522 232.161 20.6812 232.183 20.8208 232.183C20.9927 232.183 21.1449 232.149 21.2773 232.081C21.4134 232.009 21.528 231.898 21.6211 231.748C21.7178 231.594 21.7894 231.393 21.8359 231.146C21.8825 230.899 21.9058 230.598 21.9058 230.244ZM27.8516 226.801L25.7246 233.284H24.0112L26.917 225.463H28.0073L27.8516 226.801ZM29.6187 233.284L27.4863 226.801L27.3145 225.463H28.4155L31.3374 233.284H29.6187ZM29.522 230.373V231.635H25.3916V230.373H29.522ZM32.7983 225.463H34.1626L36.1714 231.205L38.1802 225.463H39.5444L36.7192 233.284H35.6235L32.7983 225.463ZM32.0625 225.463H33.4214L33.6685 231.06V233.284H32.0625V225.463ZM38.9214 225.463H40.2856V233.284H38.6743V231.06L38.9214 225.463Z" fill="white"/>
<path d="M19.9507 345.331L18.7153 345.036L19.1611 341.072H23.5547V342.323H20.4341L20.2407 344.058C20.3446 343.997 20.5021 343.933 20.7134 343.865C20.9246 343.793 21.161 343.757 21.4224 343.757C21.8019 343.757 22.1385 343.816 22.4321 343.935C22.7257 344.053 22.9746 344.225 23.1787 344.45C23.3864 344.676 23.5439 344.951 23.6514 345.277C23.7588 345.603 23.8125 345.972 23.8125 346.384C23.8125 346.731 23.7588 347.062 23.6514 347.377C23.5439 347.689 23.381 347.968 23.1626 348.215C22.9442 348.459 22.6702 348.65 22.3408 348.79C22.0114 348.93 21.6211 349 21.1699 349C20.8333 349 20.5075 348.949 20.1924 348.849C19.8809 348.749 19.5998 348.6 19.3491 348.403C19.1021 348.206 18.9033 347.968 18.7529 347.689C18.6061 347.406 18.5291 347.084 18.522 346.722H20.0581C20.0796 346.944 20.1369 347.136 20.23 347.297C20.3267 347.454 20.4538 347.576 20.6113 347.662C20.7689 347.748 20.9533 347.791 21.1646 347.791C21.3615 347.791 21.5298 347.753 21.6694 347.678C21.8091 347.603 21.9219 347.499 22.0078 347.367C22.0938 347.231 22.1564 347.073 22.1958 346.894C22.2388 346.711 22.2603 346.514 22.2603 346.303C22.2603 346.092 22.2352 345.9 22.1851 345.729C22.1349 345.557 22.0579 345.408 21.9541 345.283C21.8503 345.157 21.7178 345.061 21.5566 344.993C21.3991 344.925 21.2147 344.891 21.0034 344.891C20.717 344.891 20.495 344.935 20.3374 345.025C20.1834 345.114 20.0545 345.216 19.9507 345.331ZM28.0181 346.104H26.0254V344.848H28.0181C28.326 344.848 28.5767 344.798 28.77 344.697C28.9634 344.593 29.1048 344.45 29.1943 344.268C29.2839 344.085 29.3286 343.879 29.3286 343.65C29.3286 343.417 29.2839 343.201 29.1943 343C29.1048 342.799 28.9634 342.638 28.77 342.517C28.5767 342.395 28.326 342.334 28.0181 342.334H26.584V348.892H24.9727V341.072H28.0181C28.6304 341.072 29.1549 341.183 29.5918 341.405C30.0322 341.623 30.3688 341.926 30.6016 342.312C30.8343 342.699 30.9507 343.141 30.9507 343.639C30.9507 344.144 30.8343 344.581 30.6016 344.95C30.3688 345.319 30.0322 345.603 29.5918 345.804C29.1549 346.004 28.6304 346.104 28.0181 346.104ZM32.7983 341.072H34.1626L36.1714 346.813L38.1802 341.072H39.5444L36.7192 348.892H35.6235L32.7983 341.072ZM32.0625 341.072H33.4214L33.6685 346.668V348.892H32.0625V341.072ZM38.9214 341.072H40.2856V348.892H38.6743V346.668L38.9214 341.072Z" fill="white"/>
<path d="M23.9736 317.558V318.771H18.3394L18.2642 317.832L21.5244 312.659H22.7544L21.4224 314.888L19.8003 317.558H23.9736ZM23.0874 312.659V320.479H21.5405V312.659H23.0874ZM28.0181 317.692H26.0254V316.435H28.0181C28.326 316.435 28.5767 316.385 28.77 316.285C28.9634 316.181 29.1048 316.038 29.1943 315.855C29.2839 315.672 29.3286 315.466 29.3286 315.237C29.3286 315.005 29.2839 314.788 29.1943 314.587C29.1048 314.387 28.9634 314.226 28.77 314.104C28.5767 313.982 28.326 313.921 28.0181 313.921H26.584V320.479H24.9727V312.659H28.0181C28.6304 312.659 29.1549 312.77 29.5918 312.992C30.0322 313.211 30.3688 313.513 30.6016 313.9C30.8343 314.287 30.9507 314.729 30.9507 315.227C30.9507 315.731 30.8343 316.168 30.6016 316.537C30.3688 316.906 30.0322 317.191 29.5918 317.391C29.1549 317.592 28.6304 317.692 28.0181 317.692ZM32.7983 312.659H34.1626L36.1714 318.401L38.1802 312.659H39.5444L36.7192 320.479H35.6235L32.7983 312.659ZM32.0625 312.659H33.4214L33.6685 318.256V320.479H32.0625V312.659ZM38.9214 312.659H40.2856V320.479H38.6743V318.256L38.9214 312.659Z" fill="white"/>
<path d="M19.5908 421.195H19.6929C20.1226 421.195 20.4914 421.143 20.7993 421.04C21.1108 420.932 21.3669 420.778 21.5674 420.578C21.7679 420.377 21.9165 420.132 22.0132 419.842C22.1099 419.548 22.1582 419.215 22.1582 418.843V417.36C22.1582 417.077 22.1296 416.829 22.0723 416.614C22.0186 416.399 21.9398 416.222 21.8359 416.082C21.7357 415.939 21.6175 415.831 21.4814 415.76C21.349 415.688 21.2021 415.652 21.041 415.652C20.8691 415.652 20.717 415.695 20.5845 415.781C20.452 415.864 20.3392 415.976 20.2461 416.12C20.1566 416.263 20.0868 416.428 20.0366 416.614C19.9901 416.796 19.9668 416.988 19.9668 417.188C19.9668 417.389 19.9901 417.581 20.0366 417.763C20.0832 417.942 20.153 418.102 20.2461 418.241C20.3392 418.377 20.4556 418.486 20.5952 418.569C20.7349 418.648 20.8996 418.687 21.0894 418.687C21.272 418.687 21.4349 418.653 21.5781 418.585C21.7249 418.513 21.8485 418.42 21.9487 418.306C22.0526 418.191 22.1313 418.064 22.1851 417.924C22.2424 417.785 22.271 417.643 22.271 417.5L22.7812 417.779C22.7812 418.03 22.7275 418.277 22.6201 418.521C22.5127 418.764 22.3623 418.986 22.1689 419.187C21.9792 419.383 21.759 419.541 21.5083 419.659C21.2576 419.777 20.9891 419.836 20.7026 419.836C20.3374 419.836 20.0133 419.77 19.7305 419.638C19.4476 419.502 19.2077 419.315 19.0107 419.079C18.8174 418.839 18.6706 418.56 18.5703 418.241C18.4701 417.923 18.4199 417.577 18.4199 417.205C18.4199 416.825 18.4808 416.469 18.6025 416.136C18.7279 415.803 18.9051 415.509 19.1343 415.255C19.367 415.001 19.6445 414.802 19.9668 414.659C20.2926 414.512 20.6543 414.438 21.0518 414.438C21.4492 414.438 21.8109 414.515 22.1367 414.669C22.4626 414.823 22.7419 415.042 22.9746 415.325C23.2074 415.604 23.3864 415.939 23.5117 416.329C23.6406 416.719 23.7051 417.153 23.7051 417.629V418.166C23.7051 418.674 23.6496 419.147 23.5386 419.584C23.4312 420.021 23.2682 420.417 23.0498 420.771C22.835 421.122 22.5664 421.423 22.2441 421.673C21.9255 421.924 21.5549 422.116 21.1323 422.248C20.7098 422.381 20.2371 422.447 19.7144 422.447H19.5908V421.195ZM28.0181 419.584H26.0254V418.327H28.0181C28.326 418.327 28.5767 418.277 28.77 418.177C28.9634 418.073 29.1048 417.93 29.1943 417.747C29.2839 417.564 29.3286 417.359 29.3286 417.129C29.3286 416.897 29.2839 416.68 29.1943 416.479C29.1048 416.279 28.9634 416.118 28.77 415.996C28.5767 415.874 28.326 415.813 28.0181 415.813H26.584V422.372H24.9727V414.551H28.0181C28.6304 414.551 29.1549 414.662 29.5918 414.884C30.0322 415.103 30.3688 415.405 30.6016 415.792C30.8343 416.179 30.9507 416.621 30.9507 417.119C30.9507 417.624 30.8343 418.06 30.6016 418.429C30.3688 418.798 30.0322 419.083 29.5918 419.283C29.1549 419.484 28.6304 419.584 28.0181 419.584ZM32.7983 414.551H34.1626L36.1714 420.293L38.1802 414.551H39.5444L36.7192 422.372H35.6235L32.7983 414.551ZM32.0625 414.551H33.4214L33.6685 420.148V422.372H32.0625V414.551ZM38.9214 414.551H40.2856V422.372H38.6743V420.148L38.9214 414.551Z" fill="white"/>
<path d="M145.148 478.299L142.324 486.074H141.17L144.422 477.543H145.166L145.148 478.299ZM147.516 486.074L144.686 478.299L144.668 477.543H145.412L148.676 486.074H147.516ZM147.369 482.916V483.842H142.576V482.916H147.369ZM150.832 477.074V486.074H149.742V477.074H150.832ZM153.75 477.074V486.074H152.66V477.074H153.75ZM159.551 480.953V488.512H158.461V479.734H159.457L159.551 480.953ZM163.822 482.852V482.975C163.822 483.436 163.768 483.863 163.658 484.258C163.549 484.648 163.389 484.988 163.178 485.277C162.971 485.566 162.715 485.791 162.41 485.951C162.105 486.111 161.756 486.191 161.361 486.191C160.959 486.191 160.604 486.125 160.295 485.992C159.986 485.859 159.725 485.666 159.51 485.412C159.295 485.158 159.123 484.854 158.994 484.498C158.869 484.143 158.783 483.742 158.736 483.297V482.641C158.783 482.172 158.871 481.752 159 481.381C159.129 481.01 159.299 480.693 159.51 480.432C159.725 480.166 159.984 479.965 160.289 479.828C160.594 479.688 160.945 479.617 161.344 479.617C161.742 479.617 162.096 479.695 162.404 479.852C162.713 480.004 162.973 480.223 163.184 480.508C163.395 480.793 163.553 481.135 163.658 481.533C163.768 481.928 163.822 482.367 163.822 482.852ZM162.732 482.975V482.852C162.732 482.535 162.699 482.238 162.633 481.961C162.566 481.68 162.463 481.434 162.322 481.223C162.186 481.008 162.01 480.84 161.795 480.719C161.58 480.594 161.324 480.531 161.027 480.531C160.754 480.531 160.516 480.578 160.312 480.672C160.113 480.766 159.943 480.893 159.803 481.053C159.662 481.209 159.547 481.389 159.457 481.592C159.371 481.791 159.307 481.998 159.264 482.213V483.73C159.342 484.004 159.451 484.262 159.592 484.504C159.732 484.742 159.92 484.936 160.154 485.084C160.389 485.229 160.684 485.301 161.039 485.301C161.332 485.301 161.584 485.24 161.795 485.119C162.01 484.994 162.186 484.824 162.322 484.609C162.463 484.395 162.566 484.148 162.633 483.871C162.699 483.59 162.732 483.291 162.732 482.975ZM166.289 480.73V486.074H165.205V479.734H166.26L166.289 480.73ZM168.27 479.699L168.264 480.707C168.174 480.688 168.088 480.676 168.006 480.672C167.928 480.664 167.838 480.66 167.736 480.66C167.486 480.66 167.266 480.699 167.074 480.777C166.883 480.855 166.721 480.965 166.588 481.105C166.455 481.246 166.35 481.414 166.271 481.609C166.197 481.801 166.148 482.012 166.125 482.242L165.82 482.418C165.82 482.035 165.857 481.676 165.932 481.34C166.01 481.004 166.129 480.707 166.289 480.449C166.449 480.188 166.652 479.984 166.898 479.84C167.148 479.691 167.445 479.617 167.789 479.617C167.867 479.617 167.957 479.627 168.059 479.646C168.16 479.662 168.23 479.68 168.27 479.699ZM170.449 479.734V486.074H169.359V479.734H170.449ZM169.277 478.053C169.277 477.877 169.33 477.729 169.436 477.607C169.545 477.486 169.705 477.426 169.916 477.426C170.123 477.426 170.281 477.486 170.391 477.607C170.504 477.729 170.561 477.877 170.561 478.053C170.561 478.221 170.504 478.365 170.391 478.486C170.281 478.604 170.123 478.662 169.916 478.662C169.705 478.662 169.545 478.604 169.436 478.486C169.33 478.365 169.277 478.221 169.277 478.053ZM174.727 485.301C174.984 485.301 175.223 485.248 175.441 485.143C175.66 485.037 175.84 484.893 175.98 484.709C176.121 484.521 176.201 484.309 176.221 484.07H177.252C177.232 484.445 177.105 484.795 176.871 485.119C176.641 485.439 176.338 485.699 175.963 485.898C175.588 486.094 175.176 486.191 174.727 486.191C174.25 486.191 173.834 486.107 173.479 485.939C173.127 485.771 172.834 485.541 172.6 485.248C172.369 484.955 172.195 484.619 172.078 484.24C171.965 483.857 171.908 483.453 171.908 483.027V482.781C171.908 482.355 171.965 481.953 172.078 481.574C172.195 481.191 172.369 480.854 172.6 480.561C172.834 480.268 173.127 480.037 173.479 479.869C173.834 479.701 174.25 479.617 174.727 479.617C175.223 479.617 175.656 479.719 176.027 479.922C176.398 480.121 176.689 480.395 176.9 480.742C177.115 481.086 177.232 481.477 177.252 481.914H176.221C176.201 481.652 176.127 481.416 175.998 481.205C175.873 480.994 175.701 480.826 175.482 480.701C175.268 480.572 175.016 480.508 174.727 480.508C174.395 480.508 174.115 480.574 173.889 480.707C173.666 480.836 173.488 481.012 173.355 481.234C173.227 481.453 173.133 481.697 173.074 481.967C173.02 482.232 172.992 482.504 172.992 482.781V483.027C172.992 483.305 173.02 483.578 173.074 483.848C173.129 484.117 173.221 484.361 173.35 484.58C173.482 484.799 173.66 484.975 173.883 485.107C174.109 485.236 174.391 485.301 174.727 485.301ZM181.102 486.191C180.66 486.191 180.26 486.117 179.9 485.969C179.545 485.816 179.238 485.604 178.98 485.33C178.727 485.057 178.531 484.732 178.395 484.357C178.258 483.982 178.189 483.572 178.189 483.127V482.881C178.189 482.365 178.266 481.906 178.418 481.504C178.57 481.098 178.777 480.754 179.039 480.473C179.301 480.191 179.598 479.979 179.93 479.834C180.262 479.689 180.605 479.617 180.961 479.617C181.414 479.617 181.805 479.695 182.133 479.852C182.465 480.008 182.736 480.227 182.947 480.508C183.158 480.785 183.314 481.113 183.416 481.492C183.518 481.867 183.568 482.277 183.568 482.723V483.209H178.834V482.324H182.484V482.242C182.469 481.961 182.41 481.688 182.309 481.422C182.211 481.156 182.055 480.938 181.84 480.766C181.625 480.594 181.332 480.508 180.961 480.508C180.715 480.508 180.488 480.561 180.281 480.666C180.074 480.768 179.896 480.92 179.748 481.123C179.6 481.326 179.484 481.574 179.402 481.867C179.32 482.16 179.279 482.498 179.279 482.881V483.127C179.279 483.428 179.32 483.711 179.402 483.977C179.488 484.238 179.611 484.469 179.771 484.668C179.936 484.867 180.133 485.023 180.363 485.137C180.598 485.25 180.863 485.307 181.16 485.307C181.543 485.307 181.867 485.229 182.133 485.072C182.398 484.916 182.631 484.707 182.83 484.445L183.486 484.967C183.35 485.174 183.176 485.371 182.965 485.559C182.754 485.746 182.494 485.898 182.186 486.016C181.881 486.133 181.52 486.191 181.102 486.191ZM188.525 484.393C188.525 484.236 188.49 484.092 188.42 483.959C188.354 483.822 188.215 483.699 188.004 483.59C187.797 483.477 187.484 483.379 187.066 483.297C186.715 483.223 186.396 483.135 186.111 483.033C185.83 482.932 185.59 482.809 185.391 482.664C185.195 482.52 185.045 482.35 184.939 482.154C184.834 481.959 184.781 481.73 184.781 481.469C184.781 481.219 184.836 480.982 184.945 480.76C185.059 480.537 185.217 480.34 185.42 480.168C185.627 479.996 185.875 479.861 186.164 479.764C186.453 479.666 186.775 479.617 187.131 479.617C187.639 479.617 188.072 479.707 188.432 479.887C188.791 480.066 189.066 480.307 189.258 480.607C189.449 480.904 189.545 481.234 189.545 481.598H188.461C188.461 481.422 188.408 481.252 188.303 481.088C188.201 480.92 188.051 480.781 187.852 480.672C187.656 480.562 187.416 480.508 187.131 480.508C186.83 480.508 186.586 480.555 186.398 480.648C186.215 480.738 186.08 480.854 185.994 480.994C185.912 481.135 185.871 481.283 185.871 481.439C185.871 481.557 185.891 481.662 185.93 481.756C185.973 481.846 186.047 481.93 186.152 482.008C186.258 482.082 186.406 482.152 186.598 482.219C186.789 482.285 187.033 482.352 187.33 482.418C187.85 482.535 188.277 482.676 188.613 482.84C188.949 483.004 189.199 483.205 189.363 483.443C189.527 483.682 189.609 483.971 189.609 484.311C189.609 484.588 189.551 484.842 189.434 485.072C189.32 485.303 189.154 485.502 188.936 485.67C188.721 485.834 188.463 485.963 188.162 486.057C187.865 486.146 187.531 486.191 187.16 486.191C186.602 486.191 186.129 486.092 185.742 485.893C185.355 485.693 185.062 485.436 184.863 485.119C184.664 484.803 184.564 484.469 184.564 484.117H185.654C185.67 484.414 185.756 484.65 185.912 484.826C186.068 484.998 186.26 485.121 186.486 485.195C186.713 485.266 186.938 485.301 187.16 485.301C187.457 485.301 187.705 485.262 187.904 485.184C188.107 485.105 188.262 484.998 188.367 484.861C188.473 484.725 188.525 484.568 188.525 484.393ZM195.188 479.734V486.074H194.098V479.734H195.188ZM194.016 478.053C194.016 477.877 194.068 477.729 194.174 477.607C194.283 477.486 194.443 477.426 194.654 477.426C194.861 477.426 195.02 477.486 195.129 477.607C195.242 477.729 195.299 477.877 195.299 478.053C195.299 478.221 195.242 478.365 195.129 478.486C195.02 478.604 194.861 478.662 194.654 478.662C194.443 478.662 194.283 478.604 194.174 478.486C194.068 478.365 194.016 478.221 194.016 478.053ZM198.012 481.088V486.074H196.928V479.734H197.953L198.012 481.088ZM197.754 482.664L197.303 482.646C197.307 482.213 197.371 481.812 197.496 481.445C197.621 481.074 197.797 480.752 198.023 480.479C198.25 480.205 198.52 479.994 198.832 479.846C199.148 479.693 199.498 479.617 199.881 479.617C200.193 479.617 200.475 479.66 200.725 479.746C200.975 479.828 201.188 479.961 201.363 480.145C201.543 480.328 201.68 480.566 201.773 480.859C201.867 481.148 201.914 481.502 201.914 481.92V486.074H200.824V481.908C200.824 481.576 200.775 481.311 200.678 481.111C200.58 480.908 200.438 480.762 200.25 480.672C200.062 480.578 199.832 480.531 199.559 480.531C199.289 480.531 199.043 480.588 198.82 480.701C198.602 480.814 198.412 480.971 198.252 481.17C198.096 481.369 197.973 481.598 197.883 481.855C197.797 482.109 197.754 482.379 197.754 482.664ZM209.074 485.301C209.332 485.301 209.57 485.248 209.789 485.143C210.008 485.037 210.188 484.893 210.328 484.709C210.469 484.521 210.549 484.309 210.568 484.07H211.6C211.58 484.445 211.453 484.795 211.219 485.119C210.988 485.439 210.686 485.699 210.311 485.898C209.936 486.094 209.523 486.191 209.074 486.191C208.598 486.191 208.182 486.107 207.826 485.939C207.475 485.771 207.182 485.541 206.947 485.248C206.717 484.955 206.543 484.619 206.426 484.24C206.312 483.857 206.256 483.453 206.256 483.027V482.781C206.256 482.355 206.312 481.953 206.426 481.574C206.543 481.191 206.717 480.854 206.947 480.561C207.182 480.268 207.475 480.037 207.826 479.869C208.182 479.701 208.598 479.617 209.074 479.617C209.57 479.617 210.004 479.719 210.375 479.922C210.746 480.121 211.037 480.395 211.248 480.742C211.463 481.086 211.58 481.477 211.6 481.914H210.568C210.549 481.652 210.475 481.416 210.346 481.205C210.221 480.994 210.049 480.826 209.83 480.701C209.615 480.572 209.363 480.508 209.074 480.508C208.742 480.508 208.463 480.574 208.236 480.707C208.014 480.836 207.836 481.012 207.703 481.234C207.574 481.453 207.48 481.697 207.422 481.967C207.367 482.232 207.34 482.504 207.34 482.781V483.027C207.34 483.305 207.367 483.578 207.422 483.848C207.477 484.117 207.568 484.361 207.697 484.58C207.83 484.799 208.008 484.975 208.23 485.107C208.457 485.236 208.738 485.301 209.074 485.301ZM215.449 486.191C215.008 486.191 214.607 486.117 214.248 485.969C213.893 485.816 213.586 485.604 213.328 485.33C213.074 485.057 212.879 484.732 212.742 484.357C212.605 483.982 212.537 483.572 212.537 483.127V482.881C212.537 482.365 212.613 481.906 212.766 481.504C212.918 481.098 213.125 480.754 213.387 480.473C213.648 480.191 213.945 479.979 214.277 479.834C214.609 479.689 214.953 479.617 215.309 479.617C215.762 479.617 216.152 479.695 216.48 479.852C216.812 480.008 217.084 480.227 217.295 480.508C217.506 480.785 217.662 481.113 217.764 481.492C217.865 481.867 217.916 482.277 217.916 482.723V483.209H213.182V482.324H216.832V482.242C216.816 481.961 216.758 481.688 216.656 481.422C216.559 481.156 216.402 480.938 216.188 480.766C215.973 480.594 215.68 480.508 215.309 480.508C215.062 480.508 214.836 480.561 214.629 480.666C214.422 480.768 214.244 480.92 214.096 481.123C213.947 481.326 213.832 481.574 213.75 481.867C213.668 482.16 213.627 482.498 213.627 482.881V483.127C213.627 483.428 213.668 483.711 213.75 483.977C213.836 484.238 213.959 484.469 214.119 484.668C214.283 484.867 214.48 485.023 214.711 485.137C214.945 485.25 215.211 485.307 215.508 485.307C215.891 485.307 216.215 485.229 216.48 485.072C216.746 484.916 216.979 484.707 217.178 484.445L217.834 484.967C217.697 485.174 217.523 485.371 217.312 485.559C217.102 485.746 216.842 485.898 216.533 486.016C216.229 486.133 215.867 486.191 215.449 486.191ZM220.266 481.088V486.074H219.182V479.734H220.207L220.266 481.088ZM220.008 482.664L219.557 482.646C219.561 482.213 219.625 481.812 219.75 481.445C219.875 481.074 220.051 480.752 220.277 480.479C220.504 480.205 220.773 479.994 221.086 479.846C221.402 479.693 221.752 479.617 222.135 479.617C222.447 479.617 222.729 479.66 222.979 479.746C223.229 479.828 223.441 479.961 223.617 480.145C223.797 480.328 223.934 480.566 224.027 480.859C224.121 481.148 224.168 481.502 224.168 481.92V486.074H223.078V481.908C223.078 481.576 223.029 481.311 222.932 481.111C222.834 480.908 222.691 480.762 222.504 480.672C222.316 480.578 222.086 480.531 221.812 480.531C221.543 480.531 221.297 480.588 221.074 480.701C220.855 480.814 220.666 480.971 220.506 481.17C220.35 481.369 220.227 481.598 220.137 481.855C220.051 482.109 220.008 482.379 220.008 482.664ZM228.469 479.734V480.566H225.041V479.734H228.469ZM226.201 478.193H227.285V484.504C227.285 484.719 227.318 484.881 227.385 484.99C227.451 485.1 227.537 485.172 227.643 485.207C227.748 485.242 227.861 485.26 227.982 485.26C228.072 485.26 228.166 485.252 228.264 485.236C228.365 485.217 228.441 485.201 228.492 485.189L228.498 486.074C228.412 486.102 228.299 486.127 228.158 486.15C228.021 486.178 227.855 486.191 227.66 486.191C227.395 486.191 227.15 486.139 226.928 486.033C226.705 485.928 226.527 485.752 226.395 485.506C226.266 485.256 226.201 484.92 226.201 484.498V478.193ZM233.432 484.393C233.432 484.236 233.396 484.092 233.326 483.959C233.26 483.822 233.121 483.699 232.91 483.59C232.703 483.477 232.391 483.379 231.973 483.297C231.621 483.223 231.303 483.135 231.018 483.033C230.736 482.932 230.496 482.809 230.297 482.664C230.102 482.52 229.951 482.35 229.846 482.154C229.74 481.959 229.688 481.73 229.688 481.469C229.688 481.219 229.742 480.982 229.852 480.76C229.965 480.537 230.123 480.34 230.326 480.168C230.533 479.996 230.781 479.861 231.07 479.764C231.359 479.666 231.682 479.617 232.037 479.617C232.545 479.617 232.979 479.707 233.338 479.887C233.697 480.066 233.973 480.307 234.164 480.607C234.355 480.904 234.451 481.234 234.451 481.598H233.367C233.367 481.422 233.314 481.252 233.209 481.088C233.107 480.92 232.957 480.781 232.758 480.672C232.562 480.562 232.322 480.508 232.037 480.508C231.736 480.508 231.492 480.555 231.305 480.648C231.121 480.738 230.986 480.854 230.9 480.994C230.818 481.135 230.777 481.283 230.777 481.439C230.777 481.557 230.797 481.662 230.836 481.756C230.879 481.846 230.953 481.93 231.059 482.008C231.164 482.082 231.312 482.152 231.504 482.219C231.695 482.285 231.939 482.352 232.236 482.418C232.756 482.535 233.184 482.676 233.52 482.84C233.855 483.004 234.105 483.205 234.27 483.443C234.434 483.682 234.516 483.971 234.516 484.311C234.516 484.588 234.457 484.842 234.34 485.072C234.227 485.303 234.061 485.502 233.842 485.67C233.627 485.834 233.369 485.963 233.068 486.057C232.771 486.146 232.438 486.191 232.066 486.191C231.508 486.191 231.035 486.092 230.648 485.893C230.262 485.693 229.969 485.436 229.77 485.119C229.57 484.803 229.471 484.469 229.471 484.117H230.561C230.576 484.414 230.662 484.65 230.818 484.826C230.975 484.998 231.166 485.121 231.393 485.195C231.619 485.266 231.844 485.301 232.066 485.301C232.363 485.301 232.611 485.262 232.811 485.184C233.014 485.105 233.168 484.998 233.273 484.861C233.379 484.725 233.432 484.568 233.432 484.393ZM240 480.953V488.512H238.91V479.734H239.906L240 480.953ZM244.271 482.852V482.975C244.271 483.436 244.217 483.863 244.107 484.258C243.998 484.648 243.838 484.988 243.627 485.277C243.42 485.566 243.164 485.791 242.859 485.951C242.555 486.111 242.205 486.191 241.811 486.191C241.408 486.191 241.053 486.125 240.744 485.992C240.436 485.859 240.174 485.666 239.959 485.412C239.744 485.158 239.572 484.854 239.443 484.498C239.318 484.143 239.232 483.742 239.186 483.297V482.641C239.232 482.172 239.32 481.752 239.449 481.381C239.578 481.01 239.748 480.693 239.959 480.432C240.174 480.166 240.434 479.965 240.738 479.828C241.043 479.688 241.395 479.617 241.793 479.617C242.191 479.617 242.545 479.695 242.854 479.852C243.162 480.004 243.422 480.223 243.633 480.508C243.844 480.793 244.002 481.135 244.107 481.533C244.217 481.928 244.271 482.367 244.271 482.852ZM243.182 482.975V482.852C243.182 482.535 243.148 482.238 243.082 481.961C243.016 481.68 242.912 481.434 242.771 481.223C242.635 481.008 242.459 480.84 242.244 480.719C242.029 480.594 241.773 480.531 241.477 480.531C241.203 480.531 240.965 480.578 240.762 480.672C240.562 480.766 240.393 480.893 240.252 481.053C240.111 481.209 239.996 481.389 239.906 481.592C239.82 481.791 239.756 481.998 239.713 482.213V483.73C239.791 484.004 239.9 484.262 240.041 484.504C240.182 484.742 240.369 484.936 240.604 485.084C240.838 485.229 241.133 485.301 241.488 485.301C241.781 485.301 242.033 485.24 242.244 485.119C242.459 484.994 242.635 484.824 242.771 484.609C242.912 484.395 243.016 484.148 243.082 483.871C243.148 483.59 243.182 483.291 243.182 482.975ZM248.285 486.191C247.844 486.191 247.443 486.117 247.084 485.969C246.729 485.816 246.422 485.604 246.164 485.33C245.91 485.057 245.715 484.732 245.578 484.357C245.441 483.982 245.373 483.572 245.373 483.127V482.881C245.373 482.365 245.449 481.906 245.602 481.504C245.754 481.098 245.961 480.754 246.223 480.473C246.484 480.191 246.781 479.979 247.113 479.834C247.445 479.689 247.789 479.617 248.145 479.617C248.598 479.617 248.988 479.695 249.316 479.852C249.648 480.008 249.92 480.227 250.131 480.508C250.342 480.785 250.498 481.113 250.6 481.492C250.701 481.867 250.752 482.277 250.752 482.723V483.209H246.018V482.324H249.668V482.242C249.652 481.961 249.594 481.688 249.492 481.422C249.395 481.156 249.238 480.938 249.023 480.766C248.809 480.594 248.516 480.508 248.145 480.508C247.898 480.508 247.672 480.561 247.465 480.666C247.258 480.768 247.08 480.92 246.932 481.123C246.783 481.326 246.668 481.574 246.586 481.867C246.504 482.16 246.463 482.498 246.463 482.881V483.127C246.463 483.428 246.504 483.711 246.586 483.977C246.672 484.238 246.795 484.469 246.955 484.668C247.119 484.867 247.316 485.023 247.547 485.137C247.781 485.25 248.047 485.307 248.344 485.307C248.727 485.307 249.051 485.229 249.316 485.072C249.582 484.916 249.814 484.707 250.014 484.445L250.67 484.967C250.533 485.174 250.359 485.371 250.148 485.559C249.938 485.746 249.678 485.898 249.369 486.016C249.064 486.133 248.703 486.191 248.285 486.191ZM253.102 480.73V486.074H252.018V479.734H253.072L253.102 480.73ZM255.082 479.699L255.076 480.707C254.986 480.688 254.9 480.676 254.818 480.672C254.74 480.664 254.65 480.66 254.549 480.66C254.299 480.66 254.078 480.699 253.887 480.777C253.695 480.855 253.533 480.965 253.4 481.105C253.268 481.246 253.162 481.414 253.084 481.609C253.01 481.801 252.961 482.012 252.938 482.242L252.633 482.418C252.633 482.035 252.67 481.676 252.744 481.34C252.822 481.004 252.941 480.707 253.102 480.449C253.262 480.188 253.465 479.984 253.711 479.84C253.961 479.691 254.258 479.617 254.602 479.617C254.68 479.617 254.77 479.627 254.871 479.646C254.973 479.662 255.043 479.68 255.082 479.699ZM260.15 477.074V486.074H259.061V477.074H260.15ZM264.023 479.734L261.258 482.693L259.711 484.299L259.623 483.145L260.73 481.82L262.699 479.734H264.023ZM263.033 486.074L260.771 483.051L261.334 482.084L264.311 486.074H263.033ZM267.551 483.496L269.244 477.543H270.064L269.59 479.857L267.768 486.074H266.953L267.551 483.496ZM265.799 477.543L267.146 483.379L267.551 486.074H266.742L264.674 477.543H265.799ZM272.256 483.373L273.574 477.543H274.705L272.643 486.074H271.834L272.256 483.373ZM270.188 477.543L271.834 483.496L272.432 486.074H271.617L269.859 479.857L269.379 477.543H270.188ZM276.879 477.074V486.074H275.795V477.074H276.879ZM276.621 482.664L276.17 482.646C276.174 482.213 276.238 481.812 276.363 481.445C276.488 481.074 276.664 480.752 276.891 480.479C277.117 480.205 277.387 479.994 277.699 479.846C278.016 479.693 278.365 479.617 278.748 479.617C279.061 479.617 279.342 479.66 279.592 479.746C279.842 479.828 280.055 479.961 280.23 480.145C280.41 480.328 280.547 480.566 280.641 480.859C280.734 481.148 280.781 481.502 280.781 481.92V486.074H279.691V481.908C279.691 481.576 279.643 481.311 279.545 481.111C279.447 480.908 279.305 480.762 279.117 480.672C278.93 480.578 278.699 480.531 278.426 480.531C278.156 480.531 277.91 480.588 277.688 480.701C277.469 480.814 277.279 480.971 277.119 481.17C276.963 481.369 276.84 481.598 276.75 481.855C276.664 482.109 276.621 482.379 276.621 482.664ZM285.34 482.664V482.605C285.34 481.754 285.436 480.984 285.627 480.297C285.818 479.605 286.062 479 286.359 478.48C286.656 477.961 286.969 477.531 287.297 477.191C287.625 476.848 287.928 476.6 288.205 476.447L288.434 477.162C288.203 477.338 287.969 477.58 287.73 477.889C287.496 478.197 287.279 478.576 287.08 479.025C286.885 479.475 286.727 479.996 286.605 480.59C286.484 481.184 286.424 481.852 286.424 482.594V482.676C286.424 483.418 286.484 484.088 286.605 484.686C286.727 485.279 286.885 485.803 287.08 486.256C287.279 486.709 287.496 487.094 287.73 487.41C287.969 487.73 288.203 487.984 288.434 488.172L288.205 488.828C287.928 488.676 287.625 488.428 287.297 488.084C286.969 487.744 286.656 487.314 286.359 486.795C286.062 486.279 285.818 485.676 285.627 484.984C285.436 484.293 285.34 483.52 285.34 482.664ZM290.672 479.734V486.074H289.582V479.734H290.672ZM289.5 478.053C289.5 477.877 289.553 477.729 289.658 477.607C289.768 477.486 289.928 477.426 290.139 477.426C290.346 477.426 290.504 477.486 290.613 477.607C290.727 477.729 290.783 477.877 290.783 478.053C290.783 478.221 290.727 478.365 290.613 478.486C290.504 478.604 290.346 478.662 290.139 478.662C289.928 478.662 289.768 478.604 289.658 478.486C289.553 478.365 289.5 478.221 289.5 478.053ZM293.496 481.088V486.074H292.412V479.734H293.438L293.496 481.088ZM293.238 482.664L292.787 482.646C292.791 482.213 292.855 481.812 292.98 481.445C293.105 481.074 293.281 480.752 293.508 480.479C293.734 480.205 294.004 479.994 294.316 479.846C294.633 479.693 294.982 479.617 295.365 479.617C295.678 479.617 295.959 479.66 296.209 479.746C296.459 479.828 296.672 479.961 296.848 480.145C297.027 480.328 297.164 480.566 297.258 480.859C297.352 481.148 297.398 481.502 297.398 481.92V486.074H296.309V481.908C296.309 481.576 296.26 481.311 296.162 481.111C296.064 480.908 295.922 480.762 295.734 480.672C295.547 480.578 295.316 480.531 295.043 480.531C294.773 480.531 294.527 480.588 294.305 480.701C294.086 480.814 293.896 480.971 293.736 481.17C293.58 481.369 293.457 481.598 293.367 481.855C293.281 482.109 293.238 482.379 293.238 482.664ZM301.582 485.301C301.84 485.301 302.078 485.248 302.297 485.143C302.516 485.037 302.695 484.893 302.836 484.709C302.977 484.521 303.057 484.309 303.076 484.07H304.107C304.088 484.445 303.961 484.795 303.727 485.119C303.496 485.439 303.193 485.699 302.818 485.898C302.443 486.094 302.031 486.191 301.582 486.191C301.105 486.191 300.689 486.107 300.334 485.939C299.982 485.771 299.689 485.541 299.455 485.248C299.225 484.955 299.051 484.619 298.934 484.24C298.82 483.857 298.764 483.453 298.764 483.027V482.781C298.764 482.355 298.82 481.953 298.934 481.574C299.051 481.191 299.225 480.854 299.455 480.561C299.689 480.268 299.982 480.037 300.334 479.869C300.689 479.701 301.105 479.617 301.582 479.617C302.078 479.617 302.512 479.719 302.883 479.922C303.254 480.121 303.545 480.395 303.756 480.742C303.971 481.086 304.088 481.477 304.107 481.914H303.076C303.057 481.652 302.982 481.416 302.854 481.205C302.729 480.994 302.557 480.826 302.338 480.701C302.123 480.572 301.871 480.508 301.582 480.508C301.25 480.508 300.971 480.574 300.744 480.707C300.521 480.836 300.344 481.012 300.211 481.234C300.082 481.453 299.988 481.697 299.93 481.967C299.875 482.232 299.848 482.504 299.848 482.781V483.027C299.848 483.305 299.875 483.578 299.93 483.848C299.984 484.117 300.076 484.361 300.205 484.58C300.338 484.799 300.516 484.975 300.738 485.107C300.965 485.236 301.246 485.301 301.582 485.301ZM306.504 477.074V486.074H305.414V477.074H306.504ZM308.262 485.5C308.262 485.316 308.318 485.162 308.432 485.037C308.549 484.908 308.717 484.844 308.936 484.844C309.154 484.844 309.32 484.908 309.434 485.037C309.551 485.162 309.609 485.316 309.609 485.5C309.609 485.68 309.551 485.832 309.434 485.957C309.32 486.082 309.154 486.145 308.936 486.145C308.717 486.145 308.549 486.082 308.432 485.957C308.318 485.832 308.262 485.68 308.262 485.5ZM320.854 481.826V484.949C320.748 485.105 320.58 485.281 320.35 485.477C320.119 485.668 319.801 485.836 319.395 485.98C318.992 486.121 318.473 486.191 317.836 486.191C317.316 486.191 316.838 486.102 316.4 485.922C315.967 485.738 315.59 485.473 315.27 485.125C314.953 484.773 314.707 484.348 314.531 483.848C314.359 483.344 314.273 482.773 314.273 482.137V481.475C314.273 480.838 314.348 480.27 314.496 479.77C314.648 479.27 314.871 478.846 315.164 478.498C315.457 478.146 315.816 477.881 316.242 477.701C316.668 477.518 317.156 477.426 317.707 477.426C318.359 477.426 318.904 477.539 319.342 477.766C319.783 477.988 320.127 478.297 320.373 478.691C320.623 479.086 320.783 479.535 320.854 480.039H319.723C319.672 479.73 319.57 479.449 319.418 479.195C319.27 478.941 319.057 478.738 318.779 478.586C318.502 478.43 318.145 478.352 317.707 478.352C317.312 478.352 316.971 478.424 316.682 478.568C316.393 478.713 316.154 478.92 315.967 479.189C315.779 479.459 315.639 479.785 315.545 480.168C315.455 480.551 315.41 480.982 315.41 481.463V482.137C315.41 482.629 315.467 483.068 315.58 483.455C315.697 483.842 315.863 484.172 316.078 484.445C316.293 484.715 316.549 484.92 316.846 485.061C317.146 485.201 317.479 485.271 317.842 485.271C318.244 485.271 318.57 485.238 318.82 485.172C319.07 485.102 319.266 485.02 319.406 484.926C319.547 484.828 319.654 484.736 319.729 484.65V482.74H317.754V481.826H320.854ZM327.275 483.918C327.275 483.719 327.244 483.543 327.182 483.391C327.123 483.234 327.018 483.094 326.865 482.969C326.717 482.844 326.51 482.725 326.244 482.611C325.982 482.498 325.65 482.383 325.248 482.266C324.826 482.141 324.445 482.002 324.105 481.85C323.766 481.693 323.475 481.516 323.232 481.316C322.99 481.117 322.805 480.889 322.676 480.631C322.547 480.373 322.482 480.078 322.482 479.746C322.482 479.414 322.551 479.107 322.688 478.826C322.824 478.545 323.02 478.301 323.273 478.094C323.531 477.883 323.838 477.719 324.193 477.602C324.549 477.484 324.945 477.426 325.383 477.426C326.023 477.426 326.566 477.549 327.012 477.795C327.461 478.037 327.803 478.355 328.037 478.75C328.271 479.141 328.389 479.559 328.389 480.004H327.264C327.264 479.684 327.195 479.4 327.059 479.154C326.922 478.904 326.715 478.709 326.438 478.568C326.16 478.424 325.809 478.352 325.383 478.352C324.98 478.352 324.648 478.412 324.387 478.533C324.125 478.654 323.93 478.818 323.801 479.025C323.676 479.232 323.613 479.469 323.613 479.734C323.613 479.914 323.65 480.078 323.725 480.227C323.803 480.371 323.922 480.506 324.082 480.631C324.246 480.756 324.453 480.871 324.703 480.977C324.957 481.082 325.26 481.184 325.611 481.281C326.096 481.418 326.514 481.57 326.865 481.738C327.217 481.906 327.506 482.096 327.732 482.307C327.963 482.514 328.133 482.75 328.242 483.016C328.355 483.277 328.412 483.574 328.412 483.906C328.412 484.254 328.342 484.568 328.201 484.85C328.061 485.131 327.859 485.371 327.598 485.57C327.336 485.77 327.021 485.924 326.654 486.033C326.291 486.139 325.885 486.191 325.436 486.191C325.041 486.191 324.652 486.137 324.27 486.027C323.891 485.918 323.545 485.754 323.232 485.535C322.924 485.316 322.676 485.047 322.488 484.727C322.305 484.402 322.213 484.027 322.213 483.602H323.338C323.338 483.895 323.395 484.146 323.508 484.357C323.621 484.564 323.775 484.736 323.971 484.873C324.17 485.01 324.395 485.111 324.645 485.178C324.898 485.24 325.162 485.271 325.436 485.271C325.83 485.271 326.164 485.217 326.438 485.107C326.711 484.998 326.918 484.842 327.059 484.639C327.203 484.436 327.275 484.195 327.275 483.918ZM333.006 477.543V486.074H331.893V477.543H333.006ZM335.748 477.543V478.469H329.156V477.543H335.748ZM339.346 482.605V482.664C339.346 483.52 339.25 484.293 339.059 484.984C338.867 485.676 338.623 486.279 338.326 486.795C338.029 487.314 337.717 487.744 337.389 488.084C337.061 488.428 336.758 488.676 336.48 488.828L336.252 488.172C336.482 487.996 336.715 487.75 336.949 487.434C337.184 487.121 337.4 486.734 337.6 486.273C337.799 485.816 337.959 485.289 338.08 484.691C338.201 484.09 338.262 483.418 338.262 482.676V482.594C338.262 481.852 338.197 481.182 338.068 480.584C337.939 479.982 337.771 479.453 337.564 478.996C337.361 478.539 337.143 478.154 336.908 477.842C336.678 477.525 336.459 477.281 336.252 477.109L336.48 476.447C336.758 476.6 337.061 476.848 337.389 477.191C337.717 477.531 338.029 477.961 338.326 478.48C338.623 479 338.867 479.605 339.059 480.297C339.25 480.984 339.346 481.754 339.346 482.605Z" fill="white"/>
<rect x="49" y="154.703" width="110" height="184.189" fill="#C3EA64"/>
<path d="M49 412H432V460C432 462.761 429.761 465 427 465H54C51.2386 465 49 462.761 49 460V412Z" fill="#C3EA64"/>
<rect x="49" y="339" width="383" height="73" fill="#D94693"/>
<rect x="159" y="155" width="273" height="184" fill="#BBEB63"/>
<path d="M245.271 88.5435V97.1216H244.188V89.897L242.002 90.6938V89.7153L245.102 88.5435H245.271ZM253.838 94.813C253.838 95.3325 253.717 95.7739 253.475 96.1372C253.236 96.4966 252.912 96.77 252.502 96.9575C252.096 97.145 251.637 97.2388 251.125 97.2388C250.613 97.2388 250.152 97.145 249.742 96.9575C249.332 96.77 249.008 96.4966 248.77 96.1372C248.531 95.7739 248.412 95.3325 248.412 94.813C248.412 94.4731 248.477 94.1626 248.605 93.8813C248.738 93.5962 248.924 93.3481 249.162 93.1372C249.404 92.9263 249.689 92.7642 250.018 92.6509C250.35 92.5337 250.715 92.4751 251.113 92.4751C251.637 92.4751 252.104 92.5767 252.514 92.7798C252.924 92.979 253.246 93.2544 253.48 93.606C253.719 93.9575 253.838 94.3599 253.838 94.813ZM252.748 94.7896C252.748 94.4731 252.68 94.1938 252.543 93.9517C252.406 93.7056 252.215 93.5142 251.969 93.3774C251.723 93.2407 251.438 93.1724 251.113 93.1724C250.781 93.1724 250.494 93.2407 250.252 93.3774C250.014 93.5142 249.828 93.7056 249.695 93.9517C249.562 94.1938 249.496 94.4731 249.496 94.7896C249.496 95.1177 249.561 95.3989 249.689 95.6333C249.822 95.8638 250.01 96.0415 250.252 96.1665C250.498 96.2876 250.789 96.3481 251.125 96.3481C251.461 96.3481 251.75 96.2876 251.992 96.1665C252.234 96.0415 252.42 95.8638 252.549 95.6333C252.682 95.3989 252.748 95.1177 252.748 94.7896ZM253.639 90.811C253.639 91.2251 253.529 91.5981 253.311 91.9302C253.092 92.2622 252.793 92.5239 252.414 92.7153C252.035 92.9067 251.605 93.0024 251.125 93.0024C250.637 93.0024 250.201 92.9067 249.818 92.7153C249.439 92.5239 249.143 92.2622 248.928 91.9302C248.713 91.5981 248.605 91.2251 248.605 90.811C248.605 90.3149 248.713 89.8931 248.928 89.5454C249.146 89.1978 249.445 88.9321 249.824 88.7485C250.203 88.5649 250.635 88.4731 251.119 88.4731C251.607 88.4731 252.041 88.5649 252.42 88.7485C252.799 88.9321 253.096 89.1978 253.311 89.5454C253.529 89.8931 253.639 90.3149 253.639 90.811ZM252.555 90.8286C252.555 90.5435 252.494 90.2915 252.373 90.0728C252.252 89.854 252.084 89.6821 251.869 89.5571C251.654 89.4282 251.404 89.3638 251.119 89.3638C250.834 89.3638 250.584 89.4243 250.369 89.5454C250.158 89.6626 249.992 89.8306 249.871 90.0493C249.754 90.2681 249.695 90.5278 249.695 90.8286C249.695 91.1216 249.754 91.3774 249.871 91.5962C249.992 91.8149 250.16 91.9849 250.375 92.106C250.59 92.2271 250.84 92.2876 251.125 92.2876C251.41 92.2876 251.658 92.2271 251.869 92.106C252.084 91.9849 252.252 91.8149 252.373 91.5962C252.494 91.3774 252.555 91.1216 252.555 90.8286Z" fill="black"/>
<path d="M101.271 242.361V250.939H100.188V243.715L98.002 244.512V243.533L101.102 242.361H101.271ZM109.814 245.994V247.295C109.814 247.994 109.752 248.584 109.627 249.064C109.502 249.545 109.322 249.932 109.088 250.225C108.854 250.518 108.57 250.73 108.238 250.863C107.91 250.992 107.539 251.057 107.125 251.057C106.797 251.057 106.494 251.016 106.217 250.934C105.939 250.852 105.689 250.721 105.467 250.541C105.248 250.357 105.061 250.119 104.904 249.826C104.748 249.533 104.629 249.178 104.547 248.76C104.465 248.342 104.424 247.854 104.424 247.295V245.994C104.424 245.295 104.486 244.709 104.611 244.236C104.74 243.764 104.922 243.385 105.156 243.1C105.391 242.811 105.672 242.604 106 242.479C106.332 242.354 106.703 242.291 107.113 242.291C107.445 242.291 107.75 242.332 108.027 242.414C108.309 242.492 108.559 242.619 108.777 242.795C108.996 242.967 109.182 243.197 109.334 243.486C109.49 243.771 109.609 244.121 109.691 244.535C109.773 244.949 109.814 245.436 109.814 245.994ZM108.725 247.471V245.812C108.725 245.43 108.701 245.094 108.654 244.805C108.611 244.512 108.547 244.262 108.461 244.055C108.375 243.848 108.266 243.68 108.133 243.551C108.004 243.422 107.854 243.328 107.682 243.27C107.514 243.207 107.324 243.176 107.113 243.176C106.855 243.176 106.627 243.225 106.428 243.322C106.229 243.416 106.061 243.566 105.924 243.773C105.791 243.98 105.689 244.252 105.619 244.588C105.549 244.924 105.514 245.332 105.514 245.812V247.471C105.514 247.854 105.535 248.191 105.578 248.484C105.625 248.777 105.693 249.031 105.783 249.246C105.873 249.457 105.982 249.631 106.111 249.768C106.24 249.904 106.389 250.006 106.557 250.072C106.729 250.135 106.918 250.166 107.125 250.166C107.391 250.166 107.623 250.115 107.822 250.014C108.021 249.912 108.188 249.754 108.32 249.539C108.457 249.32 108.559 249.041 108.625 248.701C108.691 248.357 108.725 247.947 108.725 247.471Z" fill="black"/>
<path d="M295.299 250.049V250.939H289.715V250.16L292.51 247.049C292.854 246.666 293.119 246.342 293.307 246.076C293.498 245.807 293.631 245.566 293.705 245.355C293.783 245.141 293.822 244.922 293.822 244.699C293.822 244.418 293.764 244.164 293.646 243.938C293.533 243.707 293.365 243.523 293.143 243.387C292.92 243.25 292.65 243.182 292.334 243.182C291.955 243.182 291.639 243.256 291.385 243.404C291.135 243.549 290.947 243.752 290.822 244.014C290.697 244.275 290.635 244.576 290.635 244.916H289.551C289.551 244.436 289.656 243.996 289.867 243.598C290.078 243.199 290.391 242.883 290.805 242.648C291.219 242.41 291.729 242.291 292.334 242.291C292.873 242.291 293.334 242.387 293.717 242.578C294.1 242.766 294.393 243.031 294.596 243.375C294.803 243.715 294.906 244.113 294.906 244.57C294.906 244.82 294.863 245.074 294.777 245.332C294.695 245.586 294.58 245.84 294.432 246.094C294.287 246.348 294.117 246.598 293.922 246.844C293.73 247.09 293.525 247.332 293.307 247.57L291.021 250.049H295.299ZM297.83 246.879L296.963 246.656L297.391 242.408H301.768V243.41H298.311L298.053 245.73C298.209 245.641 298.406 245.557 298.645 245.479C298.887 245.4 299.164 245.361 299.477 245.361C299.871 245.361 300.225 245.43 300.537 245.566C300.85 245.699 301.115 245.891 301.334 246.141C301.557 246.391 301.727 246.691 301.844 247.043C301.961 247.395 302.02 247.787 302.02 248.221C302.02 248.631 301.963 249.008 301.85 249.352C301.74 249.695 301.574 249.996 301.352 250.254C301.129 250.508 300.848 250.705 300.508 250.846C300.172 250.986 299.775 251.057 299.318 251.057C298.975 251.057 298.648 251.01 298.34 250.916C298.035 250.818 297.762 250.672 297.52 250.477C297.281 250.277 297.086 250.031 296.934 249.738C296.785 249.441 296.691 249.094 296.652 248.695H297.684C297.73 249.016 297.824 249.285 297.965 249.504C298.105 249.723 298.289 249.889 298.516 250.002C298.746 250.111 299.014 250.166 299.318 250.166C299.576 250.166 299.805 250.121 300.004 250.031C300.203 249.941 300.371 249.812 300.508 249.645C300.645 249.477 300.748 249.273 300.818 249.035C300.893 248.797 300.93 248.529 300.93 248.232C300.93 247.963 300.893 247.713 300.818 247.482C300.744 247.252 300.633 247.051 300.484 246.879C300.34 246.707 300.162 246.574 299.951 246.48C299.74 246.383 299.498 246.334 299.225 246.334C298.861 246.334 298.586 246.383 298.398 246.48C298.215 246.578 298.025 246.711 297.83 246.879Z" fill="black"/>
<rect x="298" y="155" width="134" height="43.1081" fill="#D94693"/>
<path d="M50 223H298V313.135H50V223Z" fill="#9BDE2C"/>
<path d="M298 223H432V313.135H298V223Z" fill="#BBEB63"/>
<rect x="50" y="197.811" width="382" height="25.473" fill="#BBEB63"/>
<rect x="50" y="154.703" width="248" height="43.1081" fill="#BBEB63"/>
<rect x="50" y="313.419" width="382" height="25.473" fill="#BBEB63"/>
<path d="M49 44C49 41.2386 51.2386 39 54 39H427C429.761 39 432 41.2386 432 44V155H49V44Z" fill="#BBEB63"/>
<path d="M236.326 95.9082H237.287C237.533 95.9082 237.734 95.8652 237.891 95.7793C238.051 95.6895 238.17 95.5645 238.248 95.4043C238.326 95.2402 238.365 95.0469 238.365 94.8242C238.365 94.6523 238.328 94.4941 238.254 94.3496C238.184 94.2051 238.074 94.0898 237.926 94.0039C237.777 93.9141 237.588 93.8691 237.357 93.8691C237.201 93.8691 237.049 93.9023 236.9 93.9688C236.752 94.0312 236.629 94.1211 236.531 94.2383C236.438 94.3555 236.391 94.498 236.391 94.666H234.41C234.41 94.1816 234.543 93.7676 234.809 93.4238C235.078 93.0762 235.432 92.8105 235.869 92.627C236.311 92.4395 236.785 92.3457 237.293 92.3457C237.898 92.3457 238.43 92.4395 238.887 92.627C239.344 92.8105 239.699 93.084 239.953 93.4473C240.211 93.8066 240.34 94.252 240.34 94.7832C240.34 95.0762 240.271 95.3516 240.135 95.6094C239.998 95.8672 239.807 96.0938 239.561 96.2891C239.314 96.4844 239.025 96.6387 238.693 96.752C238.365 96.8613 238.006 96.916 237.615 96.916H236.326V95.9082ZM236.326 97.3789V96.3945H237.615C238.041 96.3945 238.43 96.4434 238.781 96.541C239.133 96.6348 239.436 96.7754 239.689 96.9629C239.943 97.1504 240.139 97.3828 240.275 97.6602C240.412 97.9336 240.48 98.248 240.48 98.6035C240.48 99.002 240.4 99.3574 240.24 99.6699C240.08 99.9824 239.855 100.246 239.566 100.461C239.277 100.676 238.939 100.84 238.553 100.953C238.166 101.062 237.746 101.117 237.293 101.117C236.938 101.117 236.582 101.07 236.227 100.977C235.871 100.879 235.547 100.73 235.254 100.531C234.961 100.328 234.725 100.07 234.545 99.7578C234.369 99.4414 234.281 99.0645 234.281 98.627H236.262C236.262 98.8066 236.311 98.9707 236.408 99.1191C236.51 99.2637 236.645 99.3789 236.812 99.4648C236.98 99.5508 237.162 99.5938 237.357 99.5938C237.6 99.5938 237.805 99.5488 237.973 99.459C238.145 99.3652 238.275 99.2402 238.365 99.084C238.455 98.9277 238.5 98.7539 238.5 98.5625C238.5 98.2734 238.451 98.043 238.354 97.8711C238.26 97.6992 238.121 97.5742 237.938 97.4961C237.758 97.418 237.541 97.3789 237.287 97.3789H236.326ZM247.564 97.666V99.1895H241.424L241.307 97.9824L244.734 92.4688H246.293L244.6 95.2402L243.193 97.666H247.564ZM246.703 92.4688V101H244.729V92.4688H246.703Z" fill="black"/>
<path d="M360.326 266.908H361.287C361.533 266.908 361.734 266.865 361.891 266.779C362.051 266.689 362.17 266.564 362.248 266.404C362.326 266.24 362.365 266.047 362.365 265.824C362.365 265.652 362.328 265.494 362.254 265.35C362.184 265.205 362.074 265.09 361.926 265.004C361.777 264.914 361.588 264.869 361.357 264.869C361.201 264.869 361.049 264.902 360.9 264.969C360.752 265.031 360.629 265.121 360.531 265.238C360.438 265.355 360.391 265.498 360.391 265.666H358.41C358.41 265.182 358.543 264.768 358.809 264.424C359.078 264.076 359.432 263.811 359.869 263.627C360.311 263.439 360.785 263.346 361.293 263.346C361.898 263.346 362.43 263.439 362.887 263.627C363.344 263.811 363.699 264.084 363.953 264.447C364.211 264.807 364.34 265.252 364.34 265.783C364.34 266.076 364.271 266.352 364.135 266.609C363.998 266.867 363.807 267.094 363.561 267.289C363.314 267.484 363.025 267.639 362.693 267.752C362.365 267.861 362.006 267.916 361.615 267.916H360.326V266.908ZM360.326 268.379V267.395H361.615C362.041 267.395 362.43 267.443 362.781 267.541C363.133 267.635 363.436 267.775 363.689 267.963C363.943 268.15 364.139 268.383 364.275 268.66C364.412 268.934 364.48 269.248 364.48 269.604C364.48 270.002 364.4 270.357 364.24 270.67C364.08 270.982 363.855 271.246 363.566 271.461C363.277 271.676 362.939 271.84 362.553 271.953C362.166 272.062 361.746 272.117 361.293 272.117C360.938 272.117 360.582 272.07 360.227 271.977C359.871 271.879 359.547 271.73 359.254 271.531C358.961 271.328 358.725 271.07 358.545 270.758C358.369 270.441 358.281 270.064 358.281 269.627H360.262C360.262 269.807 360.311 269.971 360.408 270.119C360.51 270.264 360.645 270.379 360.812 270.465C360.98 270.551 361.162 270.594 361.357 270.594C361.6 270.594 361.805 270.549 361.973 270.459C362.145 270.365 362.275 270.24 362.365 270.084C362.455 269.928 362.5 269.754 362.5 269.562C362.5 269.273 362.451 269.043 362.354 268.871C362.26 268.699 362.121 268.574 361.938 268.496C361.758 268.418 361.541 268.379 361.287 268.379H360.326ZM371.564 268.666V270.189H365.424L365.307 268.982L368.734 263.469H370.293L368.6 266.24L367.193 268.666H371.564ZM370.703 263.469V272H368.729V263.469H370.703Z" fill="black"/>
<path d="M240.457 371.469V372.523L237.27 380H235.184L238.377 372.992H234.305V371.469H240.457ZM243.176 376.197L241.605 375.828L242.121 371.469H247.107V373.004H243.732L243.539 374.697C243.633 374.643 243.791 374.578 244.014 374.504C244.24 374.426 244.49 374.387 244.764 374.387C245.186 374.387 245.559 374.451 245.883 374.58C246.211 374.705 246.488 374.891 246.715 375.137C246.941 375.379 247.111 375.678 247.225 376.033C247.342 376.389 247.4 376.795 247.4 377.252C247.4 377.619 247.34 377.975 247.219 378.318C247.102 378.658 246.92 378.965 246.674 379.238C246.432 379.508 246.125 379.723 245.754 379.883C245.383 380.039 244.943 380.117 244.436 380.117C244.057 380.117 243.688 380.059 243.328 379.941C242.969 379.824 242.645 379.656 242.355 379.438C242.07 379.215 241.844 378.947 241.676 378.635C241.512 378.318 241.432 377.965 241.436 377.574H243.422C243.434 377.781 243.482 377.961 243.568 378.113C243.654 378.266 243.77 378.385 243.914 378.471C244.062 378.553 244.232 378.594 244.424 378.594C244.619 378.594 244.781 378.555 244.91 378.477C245.039 378.398 245.141 378.291 245.215 378.154C245.289 378.018 245.342 377.861 245.373 377.686C245.404 377.506 245.42 377.316 245.42 377.117C245.42 376.906 245.396 376.717 245.35 376.549C245.307 376.381 245.236 376.238 245.139 376.121C245.041 376 244.914 375.908 244.758 375.846C244.605 375.783 244.422 375.752 244.207 375.752C243.922 375.752 243.697 375.801 243.533 375.898C243.369 375.996 243.25 376.096 243.176 376.197Z" fill="white"/>
<path d="M364.457 171.469V172.523L361.27 180H359.184L362.377 172.992H358.305V171.469H364.457ZM367.176 176.197L365.605 175.828L366.121 171.469H371.107V173.004H367.732L367.539 174.697C367.633 174.643 367.791 174.578 368.014 174.504C368.24 174.426 368.49 174.387 368.764 174.387C369.186 174.387 369.559 174.451 369.883 174.58C370.211 174.705 370.488 174.891 370.715 175.137C370.941 175.379 371.111 175.678 371.225 176.033C371.342 176.389 371.4 176.795 371.4 177.252C371.4 177.619 371.34 177.975 371.219 178.318C371.102 178.658 370.92 178.965 370.674 179.238C370.432 179.508 370.125 179.723 369.754 179.883C369.383 180.039 368.943 180.117 368.436 180.117C368.057 180.117 367.688 180.059 367.328 179.941C366.969 179.824 366.645 179.656 366.355 179.438C366.07 179.215 365.844 178.947 365.676 178.635C365.512 178.318 365.432 177.965 365.436 177.574H367.422C367.434 177.781 367.482 177.961 367.568 178.113C367.654 178.266 367.77 178.385 367.914 178.471C368.062 178.553 368.232 178.594 368.424 178.594C368.619 178.594 368.781 178.555 368.91 178.477C369.039 178.398 369.141 178.291 369.215 178.154C369.289 178.018 369.342 177.861 369.373 177.686C369.404 177.506 369.42 177.316 369.42 177.117C369.42 176.906 369.396 176.717 369.35 176.549C369.307 176.381 369.236 176.238 369.139 176.121C369.041 176 368.914 175.908 368.758 175.846C368.605 175.783 368.422 175.752 368.207 175.752C367.922 175.752 367.697 175.801 367.533 175.898C367.369 175.996 367.25 176.096 367.176 176.197Z" fill="white"/>
<path d="M236.326 437.908H237.287C237.533 437.908 237.734 437.865 237.891 437.779C238.051 437.689 238.17 437.564 238.248 437.404C238.326 437.24 238.365 437.047 238.365 436.824C238.365 436.652 238.328 436.494 238.254 436.35C238.184 436.205 238.074 436.09 237.926 436.004C237.777 435.914 237.588 435.869 237.357 435.869C237.201 435.869 237.049 435.902 236.9 435.969C236.752 436.031 236.629 436.121 236.531 436.238C236.438 436.355 236.391 436.498 236.391 436.666H234.41C234.41 436.182 234.543 435.768 234.809 435.424C235.078 435.076 235.432 434.811 235.869 434.627C236.311 434.439 236.785 434.346 237.293 434.346C237.898 434.346 238.43 434.439 238.887 434.627C239.344 434.811 239.699 435.084 239.953 435.447C240.211 435.807 240.34 436.252 240.34 436.783C240.34 437.076 240.271 437.352 240.135 437.609C239.998 437.867 239.807 438.094 239.561 438.289C239.314 438.484 239.025 438.639 238.693 438.752C238.365 438.861 238.006 438.916 237.615 438.916H236.326V437.908ZM236.326 439.379V438.395H237.615C238.041 438.395 238.43 438.443 238.781 438.541C239.133 438.635 239.436 438.775 239.689 438.963C239.943 439.15 240.139 439.383 240.275 439.66C240.412 439.934 240.48 440.248 240.48 440.604C240.48 441.002 240.4 441.357 240.24 441.67C240.08 441.982 239.855 442.246 239.566 442.461C239.277 442.676 238.939 442.84 238.553 442.953C238.166 443.062 237.746 443.117 237.293 443.117C236.938 443.117 236.582 443.07 236.227 442.977C235.871 442.879 235.547 442.73 235.254 442.531C234.961 442.328 234.725 442.07 234.545 441.758C234.369 441.441 234.281 441.064 234.281 440.627H236.262C236.262 440.807 236.311 440.971 236.408 441.119C236.51 441.264 236.645 441.379 236.812 441.465C236.98 441.551 237.162 441.594 237.357 441.594C237.6 441.594 237.805 441.549 237.973 441.459C238.145 441.365 238.275 441.24 238.365 441.084C238.455 440.928 238.5 440.754 238.5 440.562C238.5 440.273 238.451 440.043 238.354 439.871C238.26 439.699 238.121 439.574 237.938 439.496C237.758 439.418 237.541 439.379 237.287 439.379H236.326ZM247.564 439.666V441.189H241.424L241.307 439.982L244.734 434.469H246.293L244.6 437.24L243.193 439.666H247.564ZM246.703 434.469V443H244.729V434.469H246.703Z" fill="black"/>
<path d="M173.48 270.477V272H167.527V270.711L170.27 267.828C170.512 267.551 170.707 267.303 170.855 267.084C171.004 266.861 171.111 266.66 171.178 266.48C171.248 266.301 171.283 266.139 171.283 265.994C171.283 265.748 171.246 265.543 171.172 265.379C171.102 265.211 170.996 265.084 170.855 264.998C170.719 264.912 170.549 264.869 170.346 264.869C170.143 264.869 169.965 264.928 169.812 265.045C169.66 265.162 169.541 265.322 169.455 265.525C169.373 265.729 169.332 265.957 169.332 266.211H167.352C167.352 265.688 167.479 265.209 167.732 264.775C167.99 264.342 168.348 263.996 168.805 263.738C169.262 263.477 169.791 263.346 170.393 263.346C171.021 263.346 171.549 263.443 171.975 263.639C172.4 263.834 172.721 264.117 172.936 264.488C173.154 264.855 173.264 265.299 173.264 265.818C173.264 266.115 173.217 266.4 173.123 266.674C173.029 266.947 172.895 267.219 172.719 267.488C172.543 267.754 172.328 268.027 172.074 268.309C171.824 268.59 171.539 268.889 171.219 269.205L170.117 270.477H173.48ZM180.412 266.955V268.514C180.412 269.127 180.34 269.66 180.195 270.113C180.055 270.566 179.852 270.941 179.586 271.238C179.324 271.535 179.012 271.756 178.648 271.9C178.285 272.045 177.885 272.117 177.447 272.117C177.096 272.117 176.768 272.072 176.463 271.982C176.158 271.889 175.883 271.748 175.637 271.561C175.395 271.369 175.186 271.131 175.01 270.846C174.834 270.561 174.699 270.225 174.605 269.838C174.512 269.447 174.465 269.006 174.465 268.514V266.955C174.465 266.338 174.535 265.805 174.676 265.355C174.82 264.902 175.025 264.527 175.291 264.23C175.557 263.934 175.871 263.713 176.234 263.568C176.598 263.424 176.998 263.352 177.436 263.352C177.787 263.352 178.113 263.398 178.414 263.492C178.719 263.582 178.994 263.723 179.24 263.914C179.486 264.102 179.695 264.338 179.867 264.623C180.043 264.908 180.178 265.246 180.271 265.637C180.365 266.023 180.412 266.463 180.412 266.955ZM178.438 268.754V266.703C178.438 266.43 178.422 266.191 178.391 265.988C178.363 265.785 178.32 265.613 178.262 265.473C178.207 265.332 178.139 265.219 178.057 265.133C177.975 265.043 177.881 264.979 177.775 264.939C177.674 264.896 177.561 264.875 177.436 264.875C177.279 264.875 177.139 264.908 177.014 264.975C176.893 265.037 176.789 265.139 176.703 265.279C176.617 265.42 176.551 265.607 176.504 265.842C176.461 266.076 176.439 266.363 176.439 266.703V268.754C176.439 269.031 176.453 269.273 176.48 269.48C176.512 269.684 176.555 269.857 176.609 270.002C176.668 270.143 176.738 270.258 176.82 270.348C176.902 270.434 176.996 270.496 177.102 270.535C177.207 270.574 177.322 270.594 177.447 270.594C177.6 270.594 177.736 270.562 177.857 270.5C177.979 270.438 178.082 270.336 178.168 270.195C178.258 270.051 178.324 269.861 178.367 269.627C178.414 269.389 178.438 269.098 178.438 268.754Z" fill="black"/>
<path d="M297 0H426C428.761 0 431 2.23858 431 5V24C431 26.7614 428.761 29 426 29H297V0Z" fill="#6F00FF"/>
<path d="M318.367 17.1113L319.783 10.8906H320.599L320.921 11.6621L319.412 18H318.519L318.367 17.1113ZM317.815 10.8906L319.002 17.1406L318.797 18H317.781L316.238 10.8906H317.815ZM321.932 17.1064L323.104 10.8906H324.676L323.133 18H322.127L321.932 17.1064ZM321.131 10.8906L322.566 17.1455L322.4 18H321.512L319.979 11.6572L320.315 10.8906H321.131ZM327.664 18.0977C327.244 18.0977 326.868 18.0309 326.536 17.8975C326.204 17.764 325.923 17.5801 325.691 17.3457C325.464 17.1081 325.289 16.8346 325.169 16.5254C325.049 16.2161 324.988 15.8857 324.988 15.5342V15.3486C324.988 14.9548 325.044 14.5918 325.154 14.2598C325.265 13.9277 325.426 13.6396 325.638 13.3955C325.853 13.1481 326.116 12.9577 326.429 12.8242C326.741 12.6875 327.098 12.6191 327.498 12.6191C327.872 12.6191 328.206 12.681 328.499 12.8047C328.792 12.9251 329.039 13.0993 329.241 13.3271C329.443 13.5518 329.596 13.8236 329.7 14.1426C329.808 14.4583 329.861 14.8132 329.861 15.207V15.832H325.604V14.8506H328.367V14.7334C328.367 14.5479 328.333 14.3851 328.265 14.2451C328.2 14.1051 328.102 13.9977 327.972 13.9229C327.845 13.8447 327.684 13.8057 327.488 13.8057C327.303 13.8057 327.148 13.8447 327.024 13.9229C326.901 14.001 326.801 14.1117 326.727 14.2549C326.655 14.3949 326.603 14.5592 326.57 14.748C326.538 14.9336 326.521 15.1338 326.521 15.3486V15.5342C326.521 15.7393 326.549 15.9264 326.604 16.0957C326.66 16.265 326.741 16.4098 326.849 16.5303C326.956 16.6507 327.086 16.7451 327.239 16.8135C327.392 16.8818 327.566 16.916 327.762 16.916C328.003 16.916 328.232 16.8704 328.45 16.7793C328.668 16.6849 328.857 16.5384 329.017 16.3398L329.729 17.1553C329.622 17.3115 329.471 17.4629 329.275 17.6094C329.083 17.7526 328.852 17.8698 328.582 17.9609C328.312 18.0521 328.006 18.0977 327.664 18.0977ZM333.094 18.0977C332.674 18.0977 332.298 18.0309 331.966 17.8975C331.634 17.764 331.352 17.5801 331.121 17.3457C330.893 17.1081 330.719 16.8346 330.599 16.5254C330.478 16.2161 330.418 15.8857 330.418 15.5342V15.3486C330.418 14.9548 330.473 14.5918 330.584 14.2598C330.695 13.9277 330.856 13.6396 331.067 13.3955C331.282 13.1481 331.546 12.9577 331.858 12.8242C332.171 12.6875 332.527 12.6191 332.928 12.6191C333.302 12.6191 333.636 12.681 333.929 12.8047C334.222 12.9251 334.469 13.0993 334.671 13.3271C334.873 13.5518 335.026 13.8236 335.13 14.1426C335.237 14.4583 335.291 14.8132 335.291 15.207V15.832H331.033V14.8506H333.797V14.7334C333.797 14.5479 333.763 14.3851 333.694 14.2451C333.629 14.1051 333.532 13.9977 333.401 13.9229C333.274 13.8447 333.113 13.8057 332.918 13.8057C332.732 13.8057 332.578 13.8447 332.454 13.9229C332.33 14.001 332.231 14.1117 332.156 14.2549C332.085 14.3949 332.033 14.5592 332 14.748C331.967 14.9336 331.951 15.1338 331.951 15.3486V15.5342C331.951 15.7393 331.979 15.9264 332.034 16.0957C332.09 16.265 332.171 16.4098 332.278 16.5303C332.386 16.6507 332.516 16.7451 332.669 16.8135C332.822 16.8818 332.996 16.916 333.191 16.916C333.432 16.916 333.662 16.8704 333.88 16.7793C334.098 16.6849 334.287 16.5384 334.446 16.3398L335.159 17.1553C335.052 17.3115 334.9 17.4629 334.705 17.6094C334.513 17.7526 334.282 17.8698 334.012 17.9609C333.742 18.0521 333.436 18.0977 333.094 18.0977ZM337.566 10.4951V18H336.038V10.4951H337.566ZM340.921 12.7168L338.621 15.373L337.405 16.5938L336.795 15.5635L337.781 14.2891L339.085 12.7168H340.921ZM339.31 18L337.82 15.5732L338.914 14.7188L341.058 18H339.31ZM344.422 16.8184V10.5H345.955V18H344.578L344.422 16.8184ZM341.131 15.4219V15.3193C341.131 14.9189 341.175 14.5544 341.263 14.2256C341.354 13.8936 341.486 13.6087 341.658 13.3711C341.834 13.1302 342.05 12.9447 342.308 12.8145C342.565 12.6842 342.859 12.6191 343.191 12.6191C343.497 12.6191 343.764 12.6875 343.992 12.8242C344.22 12.9577 344.414 13.1465 344.573 13.3906C344.736 13.6315 344.868 13.9163 344.969 14.2451C345.07 14.5706 345.146 14.9238 345.198 15.3047V15.4805C345.149 15.8451 345.073 16.1852 344.969 16.501C344.868 16.8167 344.736 17.0951 344.573 17.3359C344.414 17.5736 344.218 17.7607 343.987 17.8975C343.759 18.0309 343.491 18.0977 343.182 18.0977C342.85 18.0977 342.555 18.0309 342.298 17.8975C342.044 17.764 341.831 17.5768 341.658 17.3359C341.486 17.0951 341.354 16.8118 341.263 16.4863C341.175 16.1608 341.131 15.806 341.131 15.4219ZM342.654 15.3193V15.4219C342.654 15.6302 342.669 15.8239 342.698 16.0029C342.731 16.182 342.783 16.3398 342.854 16.4766C342.926 16.6133 343.021 16.7207 343.138 16.7988C343.255 16.8737 343.398 16.9111 343.567 16.9111C343.795 16.9111 343.982 16.859 344.129 16.7549C344.275 16.6475 344.386 16.4993 344.461 16.3105C344.536 16.1217 344.575 15.902 344.578 15.6514V15.1387C344.578 14.9303 344.557 14.7432 344.515 14.5771C344.472 14.4111 344.409 14.2712 344.324 14.1572C344.243 14.0433 344.14 13.957 344.017 13.8984C343.893 13.8366 343.746 13.8057 343.577 13.8057C343.411 13.8057 343.27 13.8447 343.152 13.9229C343.035 13.9977 342.939 14.1035 342.864 14.2402C342.793 14.377 342.739 14.5381 342.703 14.7236C342.671 14.9059 342.654 15.1045 342.654 15.3193ZM349.769 16.7402V14.4746C349.769 14.3151 349.744 14.1784 349.695 14.0645C349.646 13.9505 349.57 13.861 349.466 13.7959C349.362 13.7308 349.227 13.6982 349.061 13.6982C348.921 13.6982 348.799 13.7227 348.694 13.7715C348.593 13.8203 348.515 13.8903 348.46 13.9814C348.408 14.0726 348.382 14.1849 348.382 14.3184H346.858C346.858 14.0807 346.912 13.8594 347.02 13.6543C347.127 13.4492 347.28 13.2686 347.479 13.1123C347.68 12.9561 347.921 12.8356 348.201 12.751C348.481 12.6631 348.795 12.6191 349.144 12.6191C349.557 12.6191 349.925 12.6891 350.247 12.8291C350.573 12.9658 350.83 13.1725 351.019 13.4492C351.207 13.7227 351.302 14.0677 351.302 14.4844V16.6963C351.302 17.0153 351.32 17.266 351.355 17.4482C351.395 17.6273 351.45 17.7835 351.521 17.917V18H349.983C349.912 17.847 349.858 17.6582 349.822 17.4336C349.786 17.2057 349.769 16.9746 349.769 16.7402ZM349.959 14.7773L349.969 15.6172H349.212C349.043 15.6172 348.896 15.6383 348.772 15.6807C348.652 15.723 348.554 15.7816 348.479 15.8564C348.405 15.9281 348.349 16.0127 348.313 16.1104C348.281 16.2048 348.265 16.3089 348.265 16.4229C348.265 16.5303 348.291 16.6279 348.343 16.7158C348.395 16.8005 348.466 16.8672 348.558 16.916C348.649 16.9648 348.755 16.9893 348.875 16.9893C349.074 16.9893 349.243 16.9502 349.383 16.8721C349.526 16.7939 349.637 16.6995 349.715 16.5889C349.793 16.4749 349.832 16.3691 349.832 16.2715L350.198 16.9062C350.14 17.0365 350.068 17.1715 349.983 17.3115C349.899 17.4482 349.791 17.5768 349.661 17.6973C349.531 17.8145 349.373 17.9105 349.188 17.9854C349.005 18.0602 348.785 18.0977 348.528 18.0977C348.196 18.0977 347.895 18.0309 347.625 17.8975C347.355 17.7607 347.138 17.5736 346.976 17.3359C346.816 17.0983 346.736 16.8249 346.736 16.5156C346.736 16.2389 346.787 15.9932 346.888 15.7783C346.989 15.5635 347.14 15.3812 347.342 15.2314C347.547 15.0817 347.804 14.9694 348.113 14.8945C348.423 14.8164 348.784 14.7773 349.197 14.7773H349.959ZM353.816 17.3896L355.198 12.7168H356.839L354.715 18.791C354.669 18.9245 354.607 19.0677 354.529 19.2207C354.454 19.3737 354.352 19.5202 354.222 19.6602C354.095 19.8001 353.932 19.9141 353.733 20.002C353.535 20.0898 353.291 20.1338 353.001 20.1338C352.854 20.1338 352.741 20.1257 352.659 20.1094C352.581 20.0964 352.477 20.0736 352.347 20.041L352.342 18.9326C352.384 18.9326 352.422 18.9326 352.454 18.9326C352.49 18.9359 352.526 18.9375 352.562 18.9375C352.744 18.9375 352.89 18.918 353.001 18.8789C353.115 18.8398 353.203 18.7812 353.265 18.7031C353.33 18.6283 353.382 18.5322 353.421 18.415L353.816 17.3896ZM353.353 12.7168L354.446 16.4766L354.632 18.0928L353.602 18.1465L351.712 12.7168H353.353ZM360.145 16.5303C360.145 16.4326 360.114 16.3464 360.052 16.2715C359.993 16.1966 359.886 16.1283 359.729 16.0664C359.576 16.0046 359.36 15.9427 359.08 15.8809C358.816 15.8255 358.571 15.7539 358.343 15.666C358.115 15.5749 357.916 15.4658 357.747 15.3389C357.578 15.2087 357.446 15.0557 357.352 14.8799C357.257 14.7008 357.21 14.4974 357.21 14.2695C357.21 14.0482 357.257 13.8382 357.352 13.6396C357.449 13.4411 357.589 13.2653 357.771 13.1123C357.957 12.9593 358.182 12.8389 358.445 12.751C358.712 12.6631 359.015 12.6191 359.354 12.6191C359.819 12.6191 360.221 12.6924 360.56 12.8389C360.898 12.9821 361.159 13.1839 361.341 13.4443C361.523 13.7015 361.614 13.9961 361.614 14.3281H360.091C360.091 14.1914 360.065 14.0726 360.013 13.9717C359.961 13.8708 359.881 13.7926 359.773 13.7373C359.666 13.6787 359.524 13.6494 359.349 13.6494C359.212 13.6494 359.091 13.6738 358.987 13.7227C358.886 13.7682 358.807 13.8317 358.748 13.9131C358.693 13.9945 358.665 14.0889 358.665 14.1963C358.665 14.2712 358.681 14.3395 358.714 14.4014C358.75 14.46 358.803 14.5153 358.875 14.5674C358.95 14.6162 359.046 14.6602 359.163 14.6992C359.284 14.7383 359.43 14.7757 359.603 14.8115C359.97 14.8799 360.306 14.9759 360.608 15.0996C360.914 15.2233 361.159 15.3942 361.341 15.6123C361.526 15.8304 361.619 16.1185 361.619 16.4766C361.619 16.7109 361.565 16.9258 361.458 17.1211C361.354 17.3164 361.202 17.4873 361.004 17.6338C360.805 17.7803 360.568 17.8942 360.291 17.9756C360.014 18.057 359.702 18.0977 359.354 18.0977C358.855 18.0977 358.434 18.0081 358.089 17.8291C357.744 17.6501 357.483 17.4255 357.308 17.1553C357.135 16.8818 357.049 16.6019 357.049 16.3154H358.479C358.486 16.4912 358.53 16.6344 358.611 16.7451C358.696 16.8558 358.805 16.9372 358.938 16.9893C359.072 17.0381 359.222 17.0625 359.388 17.0625C359.554 17.0625 359.692 17.0397 359.803 16.9941C359.913 16.9486 359.998 16.8867 360.057 16.8086C360.115 16.7272 360.145 16.6344 360.145 16.5303ZM365.052 15.2314V15.1094C365.052 14.429 365.122 13.8105 365.262 13.2539C365.405 12.694 365.594 12.2041 365.828 11.7842C366.066 11.361 366.328 11.0094 366.614 10.7295C366.901 10.4495 367.189 10.2493 367.479 10.1289L367.771 10.9053C367.586 11.042 367.405 11.2275 367.229 11.4619C367.057 11.693 366.899 11.9795 366.756 12.3213C366.616 12.6631 366.504 13.0635 366.419 13.5225C366.338 13.9814 366.297 14.5072 366.297 15.0996V15.2412C366.297 15.8337 366.338 16.3594 366.419 16.8184C366.504 17.2773 366.616 17.6777 366.756 18.0195C366.899 18.3613 367.057 18.6494 367.229 18.8838C367.405 19.1214 367.586 19.3086 367.771 19.4453L367.479 20.2119C367.189 20.0882 366.901 19.8864 366.614 19.6064C366.328 19.3298 366.066 18.9798 365.828 18.5566C365.594 18.1367 365.405 17.6484 365.262 17.0918C365.122 16.5319 365.052 15.9118 365.052 15.2314ZM369.314 10.8906H370.633L372.342 15.9736L374.046 10.8906H375.364L372.874 18H371.805L369.314 10.8906ZM368.553 10.8906H369.896L370.145 16.1592V18H368.553V10.8906ZM374.783 10.8906H376.131V18H374.534V16.1592L374.783 10.8906ZM380.032 16.7402V14.4746C380.032 14.3151 380.008 14.1784 379.959 14.0645C379.91 13.9505 379.834 13.861 379.729 13.7959C379.625 13.7308 379.49 13.6982 379.324 13.6982C379.184 13.6982 379.062 13.7227 378.958 13.7715C378.857 13.8203 378.779 13.8903 378.724 13.9814C378.672 14.0726 378.646 14.1849 378.646 14.3184H377.122C377.122 14.0807 377.176 13.8594 377.283 13.6543C377.391 13.4492 377.544 13.2686 377.742 13.1123C377.944 12.9561 378.185 12.8356 378.465 12.751C378.745 12.6631 379.059 12.6191 379.407 12.6191C379.821 12.6191 380.188 12.6891 380.511 12.8291C380.836 12.9658 381.093 13.1725 381.282 13.4492C381.471 13.7227 381.565 14.0677 381.565 14.4844V16.6963C381.565 17.0153 381.583 17.266 381.619 17.4482C381.658 17.6273 381.714 17.7835 381.785 17.917V18H380.247C380.175 17.847 380.122 17.6582 380.086 17.4336C380.05 17.2057 380.032 16.9746 380.032 16.7402ZM380.223 14.7773L380.232 15.6172H379.476C379.306 15.6172 379.16 15.6383 379.036 15.6807C378.916 15.723 378.818 15.7816 378.743 15.8564C378.668 15.9281 378.613 16.0127 378.577 16.1104C378.545 16.2048 378.528 16.3089 378.528 16.4229C378.528 16.5303 378.554 16.6279 378.606 16.7158C378.659 16.8005 378.73 16.8672 378.821 16.916C378.912 16.9648 379.018 16.9893 379.139 16.9893C379.337 16.9893 379.507 16.9502 379.646 16.8721C379.79 16.7939 379.9 16.6995 379.979 16.5889C380.057 16.4749 380.096 16.3691 380.096 16.2715L380.462 16.9062C380.403 17.0365 380.332 17.1715 380.247 17.3115C380.162 17.4482 380.055 17.5768 379.925 17.6973C379.795 17.8145 379.637 17.9105 379.451 17.9854C379.269 18.0602 379.049 18.0977 378.792 18.0977C378.46 18.0977 378.159 18.0309 377.889 17.8975C377.618 17.7607 377.402 17.5736 377.239 17.3359C377.08 17.0983 377 16.8249 377 16.5156C377 16.2389 377.05 15.9932 377.151 15.7783C377.252 15.5635 377.404 15.3812 377.605 15.2314C377.811 15.0817 378.068 14.9694 378.377 14.8945C378.686 14.8164 379.048 14.7773 379.461 14.7773H380.223ZM384.08 17.3896L385.462 12.7168H387.103L384.979 18.791C384.933 18.9245 384.871 19.0677 384.793 19.2207C384.718 19.3737 384.616 19.5202 384.485 19.6602C384.358 19.8001 384.196 19.9141 383.997 20.002C383.799 20.0898 383.554 20.1338 383.265 20.1338C383.118 20.1338 383.004 20.1257 382.923 20.1094C382.845 20.0964 382.741 20.0736 382.61 20.041L382.605 18.9326C382.648 18.9326 382.685 18.9326 382.718 18.9326C382.754 18.9359 382.789 18.9375 382.825 18.9375C383.007 18.9375 383.154 18.918 383.265 18.8789C383.379 18.8398 383.466 18.7812 383.528 18.7031C383.593 18.6283 383.646 18.5322 383.685 18.415L384.08 17.3896ZM383.616 12.7168L384.71 16.4766L384.896 18.0928L383.865 18.1465L381.976 12.7168H383.616ZM390.584 14.3477V15.5391H387.742V14.3477H390.584ZM394.847 12.2432L393.011 18H391.312L393.943 10.8906H395.018L394.847 12.2432ZM396.37 18L394.529 12.2432L394.339 10.8906H395.428L398.069 18H396.37ZM396.292 15.3535V16.584H392.586V15.3535H396.292ZM401.624 16.7256V12.7168H403.157V18H401.722L401.624 16.7256ZM401.785 15.6465L402.205 15.6367C402.205 15.9915 402.163 16.3187 402.078 16.6182C401.997 16.9176 401.873 17.1781 401.707 17.3994C401.544 17.6208 401.341 17.7933 401.097 17.917C400.856 18.0374 400.574 18.0977 400.252 18.0977C399.992 18.0977 399.752 18.0618 399.534 17.9902C399.319 17.9154 399.134 17.7998 398.978 17.6436C398.821 17.484 398.701 17.2806 398.616 17.0332C398.532 16.7826 398.489 16.4831 398.489 16.1348V12.7168H400.013V16.1445C400.013 16.2812 400.029 16.3984 400.062 16.4961C400.097 16.5905 400.145 16.6686 400.203 16.7305C400.265 16.7923 400.34 16.8379 400.428 16.8672C400.519 16.8965 400.618 16.9111 400.726 16.9111C400.996 16.9111 401.207 16.8558 401.36 16.7451C401.517 16.6312 401.626 16.4798 401.688 16.291C401.753 16.099 401.785 15.8841 401.785 15.6465ZM407.479 12.7168H408.865V17.8096C408.865 18.2946 408.755 18.7064 408.533 19.0449C408.315 19.3835 408.011 19.6406 407.62 19.8164C407.229 19.9922 406.772 20.0801 406.248 20.0801C406.02 20.0801 405.783 20.0492 405.535 19.9873C405.288 19.9287 405.055 19.8392 404.837 19.7188C404.619 19.6016 404.437 19.4518 404.29 19.2695L404.939 18.3711C405.089 18.5404 405.268 18.6771 405.477 18.7812C405.685 18.8887 405.923 18.9424 406.189 18.9424C406.434 18.9424 406.64 18.8984 406.81 18.8105C406.979 18.7227 407.107 18.5941 407.195 18.4248C407.286 18.2555 407.332 18.0505 407.332 17.8096V13.9521L407.479 12.7168ZM403.948 15.4219V15.3193C403.948 14.9189 403.997 14.5544 404.095 14.2256C404.192 13.8936 404.334 13.6087 404.52 13.3711C404.708 13.1302 404.935 12.9447 405.198 12.8145C405.465 12.6842 405.765 12.6191 406.097 12.6191C406.455 12.6191 406.751 12.6875 406.985 12.8242C407.22 12.9577 407.41 13.1465 407.557 13.3906C407.703 13.6315 407.819 13.9163 407.903 14.2451C407.988 14.5706 408.056 14.9238 408.108 15.3047V15.4805C408.056 15.8451 407.981 16.1852 407.884 16.501C407.786 16.8167 407.659 17.0951 407.503 17.3359C407.347 17.5736 407.151 17.7607 406.917 17.8975C406.686 18.0309 406.409 18.0977 406.087 18.0977C405.758 18.0977 405.462 18.0309 405.198 17.8975C404.935 17.764 404.708 17.5768 404.52 17.3359C404.334 17.0951 404.192 16.8118 404.095 16.4863C403.997 16.1608 403.948 15.806 403.948 15.4219ZM405.472 15.3193V15.4219C405.472 15.6302 405.491 15.8239 405.53 16.0029C405.573 16.182 405.634 16.3398 405.716 16.4766C405.8 16.6133 405.905 16.7207 406.028 16.7988C406.155 16.8737 406.303 16.9111 406.473 16.9111C406.72 16.9111 406.92 16.859 407.073 16.7549C407.229 16.6475 407.343 16.4993 407.415 16.3105C407.49 16.1217 407.529 15.902 407.532 15.6514V15.1387C407.532 14.9303 407.511 14.7432 407.469 14.5771C407.426 14.4111 407.363 14.2712 407.278 14.1572C407.197 14.0433 407.09 13.957 406.956 13.8984C406.826 13.8366 406.668 13.8057 406.482 13.8057C406.316 13.8057 406.17 13.8447 406.043 13.9229C405.916 13.9977 405.81 14.1035 405.726 14.2402C405.641 14.377 405.577 14.5381 405.535 14.7236C405.493 14.9059 405.472 15.1045 405.472 15.3193ZM412.381 15.1094V15.2314C412.381 15.8857 412.308 16.4896 412.161 17.043C412.015 17.5964 411.819 18.0879 411.575 18.5176C411.331 18.9473 411.059 19.3053 410.76 19.5918C410.464 19.8815 410.166 20.0882 409.866 20.2119L409.568 19.4453C409.751 19.3086 409.93 19.123 410.105 18.8887C410.281 18.6543 410.439 18.3646 410.579 18.0195C410.722 17.6777 410.835 17.2773 410.916 16.8184C411.001 16.3594 411.043 15.8337 411.043 15.2412V15.0996C411.043 14.5072 411.001 13.9814 410.916 13.5225C410.831 13.0635 410.717 12.6631 410.574 12.3213C410.434 11.9762 410.276 11.6865 410.101 11.4521C409.925 11.2178 409.747 11.0322 409.568 10.8955L409.866 10.1289C410.166 10.2493 410.464 10.4544 410.76 10.7441C411.059 11.0339 411.331 11.3936 411.575 11.8232C411.819 12.2529 412.015 12.7461 412.161 13.3027C412.308 13.8561 412.381 14.4583 412.381 15.1094Z" fill="white"/>
<path d="M49 5C49 2.23858 51.2386 0 54 0H298.141V29H54C51.2386 29 49 26.7614 49 24V5Z" fill="#9747FF"/>
<path d="M144.876 12.2432L143.04 18H141.341L143.973 10.8906H145.047L144.876 12.2432ZM146.399 18L144.559 12.2432L144.368 10.8906H145.457L148.099 18H146.399ZM146.321 15.3535V16.584H142.615V15.3535H146.321ZM150.218 10.5V18H148.689V10.5H150.218ZM152.923 10.5V18H151.395V10.5H152.923ZM156.292 15.4121V15.3096C156.292 14.9222 156.347 14.5658 156.458 14.2402C156.569 13.9115 156.731 13.6266 156.946 13.3857C157.161 13.1449 157.425 12.9577 157.737 12.8242C158.05 12.6875 158.408 12.6191 158.812 12.6191C159.222 12.6191 159.583 12.6875 159.896 12.8242C160.211 12.9577 160.477 13.1449 160.691 13.3857C160.906 13.6266 161.069 13.9115 161.18 14.2402C161.29 14.5658 161.346 14.9222 161.346 15.3096V15.4121C161.346 15.7962 161.29 16.1527 161.18 16.4814C161.069 16.807 160.906 17.0918 160.691 17.3359C160.477 17.5768 160.213 17.764 159.9 17.8975C159.588 18.0309 159.228 18.0977 158.821 18.0977C158.418 18.0977 158.058 18.0309 157.742 17.8975C157.426 17.764 157.161 17.5768 156.946 17.3359C156.731 17.0918 156.569 16.807 156.458 16.4814C156.347 16.1527 156.292 15.7962 156.292 15.4121ZM157.82 15.3096V15.4121C157.82 15.6204 157.837 15.8158 157.869 15.998C157.905 16.1803 157.962 16.3398 158.04 16.4766C158.118 16.6133 158.221 16.7207 158.348 16.7988C158.478 16.8737 158.636 16.9111 158.821 16.9111C159.007 16.9111 159.163 16.8737 159.29 16.7988C159.417 16.7207 159.52 16.6133 159.598 16.4766C159.676 16.3398 159.731 16.1803 159.764 15.998C159.799 15.8158 159.817 15.6204 159.817 15.4121V15.3096C159.817 15.1045 159.799 14.9124 159.764 14.7334C159.731 14.5511 159.676 14.39 159.598 14.25C159.52 14.11 159.415 14.001 159.285 13.9229C159.158 13.8447 159 13.8057 158.812 13.8057C158.629 13.8057 158.475 13.8447 158.348 13.9229C158.221 14.001 158.118 14.11 158.04 14.25C157.962 14.39 157.905 14.5511 157.869 14.7334C157.837 14.9124 157.82 15.1045 157.82 15.3096ZM164.832 12.7168V13.7861H161.697V12.7168H164.832ZM162.415 11.4082H163.943V16.3447C163.943 16.4912 163.961 16.6035 163.997 16.6816C164.033 16.7598 164.091 16.8151 164.173 16.8477C164.254 16.877 164.358 16.8916 164.485 16.8916C164.576 16.8916 164.655 16.8883 164.72 16.8818C164.785 16.8753 164.845 16.8672 164.9 16.8574V17.9609C164.77 18.0033 164.632 18.0358 164.485 18.0586C164.339 18.0846 164.179 18.0977 164.007 18.0977C163.678 18.0977 163.393 18.0439 163.152 17.9365C162.915 17.8291 162.732 17.6598 162.605 17.4287C162.479 17.1943 162.415 16.89 162.415 16.5156V11.4082ZM167.054 10.5V18H165.53V10.5H167.054ZM166.854 15.1729L166.473 15.1826C166.473 14.8115 166.518 14.4714 166.609 14.1621C166.704 13.8496 166.837 13.5778 167.01 13.3467C167.182 13.1156 167.389 12.9365 167.63 12.8096C167.874 12.6826 168.143 12.6191 168.436 12.6191C168.696 12.6191 168.934 12.6566 169.148 12.7314C169.363 12.8063 169.549 12.9251 169.705 13.0879C169.861 13.2507 169.982 13.4639 170.066 13.7275C170.151 13.9912 170.193 14.3118 170.193 14.6895V18H168.66V14.6797C168.66 14.4551 168.628 14.2793 168.562 14.1523C168.501 14.0254 168.41 13.9359 168.289 13.8838C168.172 13.8317 168.029 13.8057 167.859 13.8057C167.661 13.8057 167.496 13.8415 167.366 13.9131C167.236 13.9814 167.133 14.0775 167.059 14.2012C166.984 14.3249 166.93 14.4697 166.897 14.6357C166.868 14.8018 166.854 14.9808 166.854 15.1729ZM173.68 18.0977C173.26 18.0977 172.884 18.0309 172.552 17.8975C172.22 17.764 171.938 17.5801 171.707 17.3457C171.479 17.1081 171.305 16.8346 171.185 16.5254C171.064 16.2161 171.004 15.8857 171.004 15.5342V15.3486C171.004 14.9548 171.059 14.5918 171.17 14.2598C171.281 13.9277 171.442 13.6396 171.653 13.3955C171.868 13.1481 172.132 12.9577 172.444 12.8242C172.757 12.6875 173.113 12.6191 173.514 12.6191C173.888 12.6191 174.222 12.681 174.515 12.8047C174.808 12.9251 175.055 13.0993 175.257 13.3271C175.459 13.5518 175.612 13.8236 175.716 14.1426C175.823 14.4583 175.877 14.8132 175.877 15.207V15.832H171.619V14.8506H174.383V14.7334C174.383 14.5479 174.349 14.3851 174.28 14.2451C174.215 14.1051 174.118 13.9977 173.987 13.9229C173.86 13.8447 173.699 13.8057 173.504 13.8057C173.318 13.8057 173.164 13.8447 173.04 13.9229C172.916 14.001 172.817 14.1117 172.742 14.2549C172.671 14.3949 172.618 14.5592 172.586 14.748C172.553 14.9336 172.537 15.1338 172.537 15.3486V15.5342C172.537 15.7393 172.565 15.9264 172.62 16.0957C172.675 16.265 172.757 16.4098 172.864 16.5303C172.972 16.6507 173.102 16.7451 173.255 16.8135C173.408 16.8818 173.582 16.916 173.777 16.916C174.018 16.916 174.248 16.8704 174.466 16.7793C174.684 16.6849 174.873 16.5384 175.032 16.3398L175.745 17.1553C175.638 17.3115 175.486 17.4629 175.291 17.6094C175.099 17.7526 174.868 17.8698 174.598 17.9609C174.327 18.0521 174.021 18.0977 173.68 18.0977ZM178.147 13.9473V18H176.624V12.7168H178.055L178.147 13.9473ZM179.725 12.6777L179.7 14.0986C179.635 14.0889 179.55 14.0807 179.446 14.0742C179.342 14.0645 179.253 14.0596 179.178 14.0596C178.982 14.0596 178.813 14.084 178.67 14.1328C178.53 14.1784 178.413 14.2467 178.318 14.3379C178.227 14.429 178.159 14.543 178.113 14.6797C178.068 14.8132 178.045 14.9678 178.045 15.1436L177.757 15.002C177.757 14.6536 177.791 14.3346 177.859 14.0449C177.928 13.7552 178.027 13.5046 178.157 13.293C178.287 13.0781 178.447 12.9121 178.636 12.7949C178.825 12.6777 179.039 12.6191 179.28 12.6191C179.358 12.6191 179.438 12.624 179.52 12.6338C179.601 12.6436 179.669 12.6582 179.725 12.6777ZM185.525 12.7168V13.7861H182.391V12.7168H185.525ZM183.108 11.4082H184.637V16.3447C184.637 16.4912 184.655 16.6035 184.69 16.6816C184.726 16.7598 184.785 16.8151 184.866 16.8477C184.948 16.877 185.052 16.8916 185.179 16.8916C185.27 16.8916 185.348 16.8883 185.413 16.8818C185.478 16.8753 185.538 16.8672 185.594 16.8574V17.9609C185.464 18.0033 185.325 18.0358 185.179 18.0586C185.032 18.0846 184.873 18.0977 184.7 18.0977C184.371 18.0977 184.087 18.0439 183.846 17.9365C183.608 17.8291 183.426 17.6598 183.299 17.4287C183.172 17.1943 183.108 16.89 183.108 16.5156V11.4082ZM187.864 12.7168V18H186.336V12.7168H187.864ZM186.243 11.3496C186.243 11.1283 186.321 10.9476 186.478 10.8076C186.634 10.6644 186.839 10.5928 187.093 10.5928C187.347 10.5928 187.552 10.6644 187.708 10.8076C187.868 10.9476 187.947 11.1283 187.947 11.3496C187.947 11.5677 187.868 11.7484 187.708 11.8916C187.552 12.0316 187.347 12.1016 187.093 12.1016C186.839 12.1016 186.634 12.0316 186.478 11.8916C186.321 11.7484 186.243 11.5677 186.243 11.3496ZM190.491 13.8252V18H188.968V12.7168H190.398L190.491 13.8252ZM190.296 15.1729L189.91 15.1826C189.91 14.8115 189.954 14.4714 190.042 14.1621C190.133 13.8496 190.265 13.5778 190.438 13.3467C190.61 13.1156 190.823 12.9365 191.077 12.8096C191.334 12.6826 191.631 12.6191 191.966 12.6191C192.2 12.6191 192.413 12.6549 192.605 12.7266C192.798 12.7949 192.962 12.904 193.099 13.0537C193.239 13.2002 193.346 13.3923 193.421 13.6299C193.496 13.8643 193.533 14.1458 193.533 14.4746V18H192.01V14.6602C192.01 14.4258 191.98 14.2484 191.922 14.1279C191.867 14.0042 191.785 13.9196 191.678 13.874C191.57 13.8285 191.442 13.8057 191.292 13.8057C191.129 13.8057 190.984 13.8415 190.857 13.9131C190.734 13.9814 190.63 14.0775 190.545 14.2012C190.46 14.3249 190.397 14.4697 190.354 14.6357C190.315 14.8018 190.296 14.9808 190.296 15.1729ZM193.377 15.0947L192.894 15.1338C192.894 14.7757 192.936 14.4437 193.021 14.1377C193.105 13.8317 193.232 13.5664 193.401 13.3418C193.571 13.1139 193.781 12.9365 194.031 12.8096C194.285 12.6826 194.58 12.6191 194.915 12.6191C195.162 12.6191 195.387 12.6549 195.589 12.7266C195.794 12.7982 195.97 12.9137 196.116 13.0732C196.266 13.2327 196.382 13.4427 196.463 13.7031C196.544 13.9603 196.585 14.276 196.585 14.6504V18H195.052V14.6504C195.052 14.4193 195.022 14.2435 194.964 14.123C194.909 14.0026 194.827 13.9196 194.72 13.874C194.616 13.8285 194.49 13.8057 194.344 13.8057C194.181 13.8057 194.039 13.8398 193.919 13.9082C193.799 13.9733 193.698 14.0645 193.616 14.1816C193.535 14.2956 193.475 14.4307 193.436 14.5869C193.396 14.7432 193.377 14.9124 193.377 15.0947ZM200.096 18.0977C199.676 18.0977 199.3 18.0309 198.968 17.8975C198.636 17.764 198.354 17.5801 198.123 17.3457C197.895 17.1081 197.721 16.8346 197.601 16.5254C197.48 16.2161 197.42 15.8857 197.42 15.5342V15.3486C197.42 14.9548 197.475 14.5918 197.586 14.2598C197.697 13.9277 197.858 13.6396 198.069 13.3955C198.284 13.1481 198.548 12.9577 198.86 12.8242C199.173 12.6875 199.529 12.6191 199.93 12.6191C200.304 12.6191 200.638 12.681 200.931 12.8047C201.224 12.9251 201.471 13.0993 201.673 13.3271C201.875 13.5518 202.028 13.8236 202.132 14.1426C202.239 14.4583 202.293 14.8132 202.293 15.207V15.832H198.035V14.8506H200.799V14.7334C200.799 14.5479 200.765 14.3851 200.696 14.2451C200.631 14.1051 200.534 13.9977 200.403 13.9229C200.276 13.8447 200.115 13.8057 199.92 13.8057C199.734 13.8057 199.58 13.8447 199.456 13.9229C199.332 14.001 199.233 14.1117 199.158 14.2549C199.087 14.3949 199.035 14.5592 199.002 14.748C198.969 14.9336 198.953 15.1338 198.953 15.3486V15.5342C198.953 15.7393 198.981 15.9264 199.036 16.0957C199.091 16.265 199.173 16.4098 199.28 16.5303C199.388 16.6507 199.518 16.7451 199.671 16.8135C199.824 16.8818 199.998 16.916 200.193 16.916C200.434 16.916 200.664 16.8704 200.882 16.7793C201.1 16.6849 201.289 16.5384 201.448 16.3398L202.161 17.1553C202.054 17.3115 201.902 17.4629 201.707 17.6094C201.515 17.7526 201.284 17.8698 201.014 17.9609C200.743 18.0521 200.438 18.0977 200.096 18.0977ZM205.848 16.5303C205.848 16.4326 205.817 16.3464 205.755 16.2715C205.696 16.1966 205.589 16.1283 205.433 16.0664C205.28 16.0046 205.063 15.9427 204.783 15.8809C204.52 15.8255 204.274 15.7539 204.046 15.666C203.818 15.5749 203.619 15.4658 203.45 15.3389C203.281 15.2087 203.149 15.0557 203.055 14.8799C202.96 14.7008 202.913 14.4974 202.913 14.2695C202.913 14.0482 202.96 13.8382 203.055 13.6396C203.152 13.4411 203.292 13.2653 203.475 13.1123C203.66 12.9593 203.885 12.8389 204.148 12.751C204.415 12.6631 204.718 12.6191 205.057 12.6191C205.522 12.6191 205.924 12.6924 206.263 12.8389C206.601 12.9821 206.862 13.1839 207.044 13.4443C207.226 13.7015 207.317 13.9961 207.317 14.3281H205.794C205.794 14.1914 205.768 14.0726 205.716 13.9717C205.664 13.8708 205.584 13.7926 205.477 13.7373C205.369 13.6787 205.228 13.6494 205.052 13.6494C204.915 13.6494 204.795 13.6738 204.69 13.7227C204.59 13.7682 204.51 13.8317 204.451 13.9131C204.396 13.9945 204.368 14.0889 204.368 14.1963C204.368 14.2712 204.384 14.3395 204.417 14.4014C204.453 14.46 204.507 14.5153 204.578 14.5674C204.653 14.6162 204.749 14.6602 204.866 14.6992C204.987 14.7383 205.133 14.7757 205.306 14.8115C205.674 14.8799 206.009 14.9759 206.312 15.0996C206.618 15.2233 206.862 15.3942 207.044 15.6123C207.229 15.8304 207.322 16.1185 207.322 16.4766C207.322 16.7109 207.269 16.9258 207.161 17.1211C207.057 17.3164 206.906 17.4873 206.707 17.6338C206.508 17.7803 206.271 17.8942 205.994 17.9756C205.717 18.057 205.405 18.0977 205.057 18.0977C204.559 18.0977 204.137 18.0081 203.792 17.8291C203.447 17.6501 203.187 17.4255 203.011 17.1553C202.838 16.8818 202.752 16.6019 202.752 16.3154H204.183C204.189 16.4912 204.233 16.6344 204.314 16.7451C204.399 16.8558 204.508 16.9372 204.642 16.9893C204.775 17.0381 204.925 17.0625 205.091 17.0625C205.257 17.0625 205.395 17.0397 205.506 16.9941C205.617 16.9486 205.701 16.8867 205.76 16.8086C205.818 16.7272 205.848 16.6344 205.848 16.5303Z" fill="white"/>
</svg>
